<svg width="768" height="97" viewBox="0 0 768 97" fill="none" xmlns="http://www.w3.org/2000/svg">
<g clip-path="url(#clip0_280_5316)">
<path d="M10.0319 12.5324C6.56905 12.5324 3.76186 9.72691 3.76186 6.26619C3.76186 2.80547 6.56905 0 10.0319 0C13.4947 0 16.3019 2.80547 16.3019 6.26619C16.3019 9.72691 13.4947 12.5324 10.0319 12.5324Z" fill="#FCB119"/>
<path d="M10.0319 41.3567C4.49143 41.3567 0 36.8681 0 31.331C0 25.7939 4.49143 21.3052 10.0319 21.3052C15.5723 21.3052 20.0638 25.7939 20.0638 31.331C20.0638 36.8681 15.5723 41.3567 10.0319 41.3567Z" fill="#FCB119"/>
<path d="M10.0319 91.4854C4.49143 91.4854 0 86.9967 0 81.4596C0 75.9226 4.49143 71.4339 10.0319 71.4339C15.5723 71.4339 20.0638 75.9226 20.0638 81.4596C20.0638 86.9967 15.5723 91.4854 10.0319 91.4854Z" fill="#FCB119"/>
<path d="M3.76186 56.3958C3.76186 59.8566 6.56905 62.662 10.0319 62.662C13.4947 62.662 16.3019 59.8566 16.3019 56.3958C16.3019 52.9351 13.4947 50.1296 10.0319 50.1296C6.56905 50.1296 3.76186 52.9351 3.76186 56.3958Z" fill="#FCB119"/>
<path d="M38.4976 65.6689C38.4976 71.206 42.989 75.6947 48.5295 75.6947C54.07 75.6947 58.5614 71.206 58.5614 65.6689C58.5614 60.1319 54.07 55.6432 48.5295 55.6432C42.989 55.6432 38.4976 60.1319 38.4976 65.6689Z" fill="#FCB119"/>
<path d="M48.5296 97C45.0667 97 42.2595 94.1945 42.2595 90.7338C42.2595 87.2731 45.0667 84.4676 48.5296 84.4676C51.9924 84.4676 54.7996 87.2731 54.7996 90.7338C54.7996 94.1945 51.9924 97 48.5296 97Z" fill="#FCB119"/>
<path d="M42.2595 40.6049C42.2595 44.0657 45.0667 46.8711 48.5296 46.8711C51.9924 46.8711 54.7996 44.0657 54.7996 40.6049C54.7996 37.1442 51.9924 34.3388 48.5296 34.3388C45.0667 34.3388 42.2595 37.1442 42.2595 40.6049Z" fill="#FCB119"/>
<path d="M48.5296 21.8063C45.0667 21.8063 42.2595 19.0009 42.2595 15.5402C42.2595 12.0794 45.0667 9.27396 48.5296 9.27396C51.9924 9.27396 54.7996 12.0794 54.7996 15.5402C54.7996 19.0009 51.9924 21.8063 48.5296 21.8063Z" fill="#FCB119"/>
<path d="M76.9954 31.331C76.9954 36.8681 81.4868 41.3567 87.0273 41.3567C92.5677 41.3567 97.0592 36.8681 97.0592 31.331C97.0592 25.7939 92.5677 21.3052 87.0273 21.3052C81.4868 21.3052 76.9954 25.7939 76.9954 31.331Z" fill="#FCB119"/>
<path d="M87.0275 12.5324C83.5646 12.5324 80.7574 9.72691 80.7574 6.26619C80.7574 2.80547 83.5646 0 87.0275 0C90.4903 0 93.2975 2.80547 93.2975 6.26619C93.2975 9.72691 90.4903 12.5324 87.0275 12.5324Z" fill="#FCB119"/>
<path d="M80.7574 56.3958C80.7574 59.8566 83.5646 62.662 87.0275 62.662C90.4903 62.662 93.2975 59.8566 93.2975 56.3958C93.2975 52.9351 90.4903 50.1296 87.0275 50.1296C83.5646 50.1296 80.7574 52.9351 80.7574 56.3958Z" fill="#FCB119"/>
<path d="M87.0275 87.726C83.5646 87.726 80.7574 84.9205 80.7574 81.4598C80.7574 77.999 83.5646 75.1936 87.0275 75.1936C90.4903 75.1936 93.2975 77.999 93.2975 81.4598C93.2975 84.9205 90.4903 87.726 87.0275 87.726Z" fill="#FCB119"/>
<path d="M302.411 71.9933V69.4325L306.952 68.9011C306.953 68.6755 306.954 68.4452 306.954 68.2103C306.993 66.7747 307.012 65.3003 307.012 63.7871V34.4544L302.062 33.6396V31.3116L310.856 29.1L312.195 29.4492L312.02 37.1316V49.0044H312.311C313.127 47.8792 314.078 46.8704 315.165 45.978C316.291 45.0468 317.494 44.3096 318.776 43.7664C320.057 43.2232 321.396 42.9516 322.794 42.9516C325.473 42.9516 327.472 43.8052 328.792 45.5124C330.112 47.1807 330.772 49.8191 330.772 53.4275V63.8453C330.811 65.3585 330.83 66.8329 330.83 68.2685L330.847 68.8941L335.198 69.4325V71.9933H321.163V69.4325L325.531 68.9167V68.2685C325.57 66.8329 325.589 65.3585 325.589 63.8453C325.628 62.2933 325.647 60.8771 325.647 59.5968V54.1841C325.647 51.6622 325.259 49.8968 324.483 48.888C323.706 47.8792 322.425 47.3748 320.639 47.3748C319.669 47.3748 318.698 47.53 317.727 47.8404C316.757 48.1119 315.767 48.5582 314.757 49.179C313.926 49.6772 313.053 50.3033 312.137 51.0574V63.7871C312.176 65.3003 312.195 66.7747 312.195 68.2103L312.205 68.5991L312.212 68.8993L316.563 69.4325V71.9933H302.411Z" fill="#33383D"/>
<path d="M253.052 71.9933V69.4325L257.593 68.9058C257.594 68.6787 257.594 68.4469 257.594 68.2103V63.7871C257.633 62.2351 257.652 60.8383 257.652 59.5968V56.6867C257.652 55.1735 257.633 53.8349 257.594 52.6709C257.594 51.5069 257.575 50.3042 257.536 49.0625L252.761 48.7134V46.3272L261.554 43.1844L262.952 43.5918L262.835 50.9831V68.2103L262.854 68.8944L267.203 69.4325V71.9933H253.052Z" fill="#33383D"/>
<path d="M260.04 37.3644C258.953 37.3644 258.021 36.9958 257.245 36.2586C256.468 35.5214 256.08 34.6096 256.08 33.5232C256.08 32.4368 256.468 31.5444 257.245 30.846C258.021 30.1088 258.953 29.7402 260.04 29.7402C261.127 29.7402 262.039 30.1088 262.777 30.846C263.554 31.5444 263.942 32.4368 263.942 33.5232C263.942 34.6096 263.554 35.5214 262.777 36.2586C262.039 36.9958 261.127 37.3644 260.04 37.3644Z" fill="#33383D"/>
<path d="M172.265 36.2541L182.627 72.2843H186.412L194.74 44.9886L195.706 40.8481L205.047 72.2843H208.716L218.845 36.3216L223.741 35.8512V32.9994H210.172V35.8512L215.417 36.3552L209.007 59.5385L207.966 64.9894L199.404 36.33L205.106 35.8512V32.9994H188.8V35.8512L194.1 36.2853L186.761 59.3057L185.755 64.6208L178.157 36.3086L183.558 35.8512V32.9994H167.427V35.8512L172.265 36.2541Z" fill="#33383D"/>
<path fill-rule="evenodd" clip-rule="evenodd" d="M229.269 71.0039C231.365 72.1679 233.831 72.7499 236.665 72.7499C238.722 72.7499 240.45 72.4783 241.848 71.9351C243.284 71.3531 244.507 70.5771 245.517 69.6071C246.565 68.5983 247.497 67.4537 248.312 66.1733L246.681 64.8347C245.594 66.1151 244.352 67.1045 242.954 67.8029C241.595 68.5013 239.926 68.8505 237.946 68.8505C235.966 68.8505 234.238 68.4237 232.763 67.5701C231.327 66.6777 230.201 65.3973 229.385 63.7289C228.654 62.1205 228.267 60.2193 228.225 58.0253H247.438C247.555 57.5985 247.652 57.0553 247.73 56.3958C247.807 55.6973 247.846 54.9989 247.846 54.3006C247.846 51.9337 247.361 49.9162 246.39 48.2478C245.42 46.5406 244.08 45.2408 242.372 44.3484C240.664 43.4172 238.684 42.9516 236.432 42.9516C233.869 42.9516 231.559 43.6112 229.502 44.9304C227.444 46.2108 225.814 47.9956 224.61 50.2848C223.445 52.574 222.863 55.2124 222.863 58.1999C222.863 61.1875 223.406 63.7677 224.494 65.9405C225.619 68.1133 227.211 69.8011 229.269 71.0039ZM228.307 55.4064C228.455 53.6108 228.795 52.0976 229.327 50.8668C230.104 49.1596 231.113 47.8986 232.355 47.0838C233.637 46.269 234.995 45.8616 236.432 45.8616C237.752 45.8616 238.897 46.1138 239.868 46.6182C240.838 47.1226 241.576 47.8598 242.081 48.8298C242.585 49.7997 242.838 51.0025 242.838 52.4382C242.838 53.1754 242.682 53.8155 242.372 54.3587C242.061 54.8632 241.362 55.2123 240.275 55.4064H228.307Z" fill="#33383D"/>
<path fill-rule="evenodd" clip-rule="evenodd" d="M276.831 84.8555C278.656 85.4763 280.908 85.7867 283.587 85.7867C285.955 85.7867 288.071 85.5151 289.934 84.9719C291.837 84.4287 293.448 83.6721 294.768 82.7021C296.088 81.7709 297.097 80.6845 297.796 79.4429C298.534 78.2401 298.903 76.9597 298.903 75.6017C298.903 74.0885 298.534 72.7693 297.796 71.6441C297.097 70.5189 296.03 69.6459 294.593 69.0251C293.196 68.4043 291.429 68.0939 289.294 68.0939H281.956C280.442 68.0939 279.355 67.8417 278.695 67.3373C278.035 66.7941 277.705 66.0375 277.705 65.0675C277.705 64.2915 277.918 63.5737 278.346 62.9141C278.591 62.5663 278.912 62.1862 279.309 61.7737C280.644 62.1848 282.109 62.3903 283.703 62.3903C285.839 62.3903 287.721 62.0023 289.352 61.2263C291.021 60.4115 292.322 59.2863 293.254 57.8507C294.224 56.3764 294.71 54.6304 294.71 52.6128C294.71 51.3711 294.535 50.2848 294.186 49.3536C293.991 48.813 293.754 48.3086 293.475 47.8404H299.485V43.1844L297.971 42.8352L291.904 46.0353C291.459 45.5615 290.938 45.135 290.342 44.7558C289.488 44.1738 288.498 43.7276 287.372 43.4172C286.285 43.1068 285.081 42.9516 283.761 42.9516C281.626 42.9516 279.724 43.3396 278.054 44.1156C276.424 44.8916 275.123 46.0168 274.153 47.4912C273.221 48.9268 272.755 50.6728 272.755 52.7292C272.755 54.7855 273.221 56.5315 274.153 57.9671C275.039 59.3327 276.241 60.3998 277.76 61.1685C276.181 62.2119 275.018 63.2012 274.269 64.1363C273.493 65.0675 273.104 66.0957 273.104 67.2209C273.104 68.5013 273.512 69.5101 274.327 70.2473C275.181 70.9457 276.346 71.4307 277.821 71.7023V71.9275C276.585 72.4147 275.537 72.9216 274.677 73.4483C273.512 74.1855 272.677 74.9615 272.173 75.7763C271.668 76.6299 271.415 77.5805 271.415 78.6281C271.415 80.0249 271.862 81.2665 272.755 82.3529C273.648 83.4393 275.007 84.2735 276.831 84.8555ZM278.99 72.4547C279.141 72.4575 279.295 72.4589 279.452 72.4589C280.034 72.4977 280.617 72.5171 281.199 72.5171H288.42C290.439 72.5171 291.895 72.9245 292.788 73.7393C293.72 74.5541 294.186 75.6211 294.186 76.9403C294.186 77.9879 293.817 78.9579 293.079 79.8503C292.341 80.7815 291.235 81.5187 289.76 82.0619C288.284 82.6051 286.46 82.8767 284.286 82.8767C282.539 82.8767 281.083 82.6827 279.918 82.2947C278.753 81.9067 277.88 81.3053 277.297 80.4905C276.715 79.7145 276.424 78.7833 276.424 77.6969C276.424 76.9209 276.54 76.2031 276.773 75.5435C277.045 74.8839 277.414 74.2437 277.88 73.6229C278.196 73.2335 278.566 72.8441 278.99 72.4547ZM286.848 58.8402C285.955 59.4222 284.887 59.7131 283.645 59.7131C282.403 59.7131 281.335 59.4222 280.442 58.8402C279.588 58.2581 278.928 57.4433 278.462 56.3958C277.996 55.3481 277.763 54.126 277.763 52.7292C277.763 51.2936 277.996 50.052 278.462 49.0044C278.967 47.9568 279.666 47.142 280.558 46.56C281.49 45.9392 282.558 45.6288 283.761 45.6288C285.004 45.6288 286.052 45.9198 286.906 46.5018C287.799 47.0838 288.479 47.8986 288.944 48.9462C289.449 49.955 289.701 51.1578 289.701 52.5546C289.701 53.9901 289.449 55.2512 288.944 56.3375C288.479 57.3851 287.78 58.2193 286.848 58.8402Z" fill="#33383D"/>
<path d="M347.606 46.9674V64.9511C347.606 66.4643 347.917 67.5701 348.538 68.2685C349.159 68.9281 350.013 69.2579 351.1 69.2579C351.799 69.2579 352.459 69.1415 353.08 68.9087C353.702 68.6371 354.323 68.3073 354.944 67.9193L356.283 69.8981C355.856 70.4025 355.293 70.8681 354.595 71.2949C353.935 71.7217 353.177 72.0515 352.323 72.2843C351.469 72.5171 350.518 72.6335 349.47 72.6335C347.335 72.6335 345.626 72.0515 344.345 70.8875C343.064 69.7235 342.423 67.9387 342.423 65.5331V46.9674H337.415V44.2902L342.908 43.6417L344.462 35.7348H348.014L347.533 43.7082H355.701V46.9674H347.606Z" fill="#33383D"/>
<path d="M369.018 72.7499C367.194 72.7499 365.524 72.5559 364.01 72.1679C362.496 71.7799 361.059 71.2755 359.701 70.6547L359.468 63.7871H362.845L364.024 69.0656C364.358 69.199 364.702 69.3214 365.058 69.4325C366.301 69.7817 367.659 69.9563 369.135 69.9563C370.649 69.9563 371.872 69.7623 372.804 69.3743C373.774 68.9475 374.492 68.3849 374.958 67.6865C375.424 66.9493 375.657 66.1539 375.657 65.3003C375.657 64.0587 375.211 63.0693 374.318 62.3321C373.425 61.5561 372.008 60.8577 370.067 60.2369L367.912 59.4803C366.242 58.8983 364.806 58.2387 363.602 57.5015C362.399 56.7644 361.467 55.8913 360.807 54.8826C360.147 53.8349 359.817 52.6128 359.817 51.216C359.817 49.7028 360.244 48.3253 361.098 47.0838C361.952 45.8422 363.175 44.8528 364.767 44.1156C366.359 43.3396 368.281 42.9516 370.532 42.9516C372.202 42.9516 373.755 43.165 375.191 43.5918C376.628 43.9798 377.928 44.5036 379.093 45.1632L378.918 51.5652H375.657L374.694 46.6608C374.38 46.5347 374.061 46.4234 373.735 46.3272C372.726 45.978 371.639 45.8034 370.474 45.8034C368.572 45.8034 367.155 46.1914 366.223 46.9674C365.291 47.7046 364.825 48.6745 364.825 49.8774C364.825 51.119 365.233 52.0889 366.048 52.7874C366.864 53.4469 368.281 54.126 370.3 54.8243L371.872 55.3481C373.891 56.0465 375.56 56.8225 376.88 57.6762C378.2 58.5297 379.151 59.4803 379.734 60.5279C380.355 61.5755 380.665 62.7783 380.665 64.1363C380.665 65.7271 380.219 67.1821 379.326 68.5013C378.433 69.7817 377.113 70.8099 375.366 71.5859C373.658 72.3619 371.542 72.7499 369.018 72.7499Z" fill="#33383D"/>
<path fill-rule="evenodd" clip-rule="evenodd" d="M404.392 71.3531C406.295 72.2843 408.449 72.7499 410.856 72.7499C413.031 72.7499 414.914 72.4589 416.505 71.8769C418.136 71.2949 419.514 70.5383 420.64 69.6071C421.359 68.9876 422.007 68.3444 422.583 67.6774C423.221 68.38 423.873 69.1009 424.542 69.8399C425.202 70.5383 425.881 71.1009 426.58 71.5277C427.279 71.9157 428.036 72.1873 428.851 72.3425C429.667 72.5365 430.579 72.6335 431.588 72.6335C432.481 72.6335 433.297 72.5753 434.034 72.4589C434.811 72.3813 435.587 72.2649 436.364 72.1097L436.538 69.3161L430.306 68.6888C429.366 67.6776 428.454 66.7033 427.57 65.7659C427.037 65.1852 426.515 64.618 426.002 64.0641C426.92 62.8777 427.734 61.6602 428.444 60.4115C429.414 58.6656 430.249 56.7643 430.948 54.708C431.406 53.3593 431.823 51.8938 432.197 50.3115L436.655 49.761V46.9674H424.367V49.761L429.018 50.2723C428.74 51.62 428.432 52.8852 428.094 54.0677C427.551 55.9301 426.93 57.6567 426.231 59.2475C425.729 60.3615 425.178 61.4554 424.576 62.5293C424.349 62.2862 424.124 62.0458 423.901 61.8083C422.737 60.5279 421.611 59.3057 420.524 58.1417C419.475 56.9778 418.427 55.8525 417.379 54.7661C416.369 53.6409 415.477 52.6515 414.7 51.798C414.011 51.0404 413.352 50.3135 412.725 49.6171C415.681 48.2233 417.854 46.7968 419.242 45.3378C420.795 43.7082 421.572 41.807 421.572 39.6342C421.572 37.3838 420.776 35.5796 419.184 34.2216C417.592 32.8248 415.399 32.1264 412.604 32.1264C410.74 32.1264 409.071 32.4562 407.595 33.1158C406.159 33.7754 405.014 34.7454 404.159 36.0258C403.305 37.2674 402.878 38.7806 402.878 40.5654C402.878 41.807 403.053 42.9904 403.402 44.1156C403.791 45.2408 404.334 46.3466 405.033 47.433C405.653 48.3622 406.395 49.322 407.259 50.3123C405.555 51.0498 404.075 51.9136 402.82 52.9037C401.383 54.0289 400.277 55.3481 399.501 56.8613C398.763 58.3357 398.394 60.0235 398.394 61.9247C398.394 64.0199 398.918 65.8823 399.966 67.5119C401.054 69.1415 402.529 70.4219 404.392 71.3531ZM411.515 48.2135C411.165 47.8033 410.81 47.3879 410.449 46.9674C409.634 45.9974 408.993 45.1244 408.527 44.3484C408.061 43.5724 407.731 42.8352 407.537 42.1368C407.343 41.3996 407.246 40.643 407.246 39.867C407.246 38.2374 407.751 36.9376 408.76 35.9676C409.769 34.9588 411.031 34.4544 412.545 34.4544C414.021 34.4544 415.224 34.92 416.156 35.8512C417.088 36.7436 417.554 38.024 417.554 39.6924C417.554 41.5548 416.874 43.2232 415.515 44.6976C414.431 45.9088 413.098 47.0808 411.515 48.2135ZM421.083 66.025C420.221 66.699 419.258 67.2722 418.194 67.7447C416.486 68.5207 414.584 68.9087 412.487 68.9087C410.585 68.9087 408.974 68.5401 407.654 67.8029C406.334 67.0269 405.344 65.9987 404.684 64.7183C404.024 63.4379 403.694 62.0605 403.694 60.5861C403.694 59.3833 403.907 58.1999 404.334 57.0359C404.761 55.8332 405.441 54.708 406.372 53.6603C406.989 52.97 407.708 52.3423 408.528 51.7772C408.969 52.2953 409.395 52.8066 409.808 53.3112C410.546 54.126 411.303 54.9795 412.079 55.8719C412.856 56.7644 413.729 57.7731 414.7 58.8983C416.253 60.6831 417.825 62.4485 419.417 64.1945C419.959 64.789 420.514 65.3991 421.083 66.025Z" fill="#33383D"/>
<path fill-rule="evenodd" clip-rule="evenodd" d="M455.171 71.9933V69.1415L460.797 68.6988C460.813 67.8182 460.82 66.9376 460.82 66.0569V38.994C460.82 38.09 460.813 37.19 460.797 36.2938L455.171 35.8512V32.9994H472.467C475.224 32.9994 477.592 33.3874 479.572 34.1634C481.591 34.9394 483.144 36.0452 484.231 37.4808C485.318 38.8776 485.862 40.546 485.862 42.486C485.862 44.232 485.396 45.7646 484.464 47.0838C483.571 48.3642 482.251 49.4118 480.504 50.2265C478.796 51.0026 476.699 51.4876 474.215 51.6816V51.7397C477.204 51.8949 479.708 52.38 481.727 53.1948C483.746 53.9707 485.26 55.0378 486.269 56.3958C487.318 57.715 487.842 59.3057 487.842 61.1681C487.842 62.6425 487.512 64.0393 486.852 65.3585C486.23 66.6389 485.26 67.7835 483.94 68.7923C482.659 69.8011 481.009 70.5965 478.99 71.1785C476.971 71.7217 474.603 71.9933 471.885 71.9933H455.171ZM466.644 38.994L466.702 35.9676H471.012C472.992 35.9676 474.661 36.2004 476.02 36.666C477.379 37.1316 478.388 37.8688 479.048 38.8776C479.747 39.8864 480.096 41.2444 480.096 42.9516C480.096 44.6588 479.747 46.0556 479.048 47.142C478.349 48.2284 477.262 49.0432 475.787 49.5864C474.35 50.0908 472.506 50.343 470.255 50.343H466.644V38.994ZM466.644 53.3112H470.546C474.467 53.3112 477.32 53.9707 479.106 55.2899C480.931 56.6091 481.843 58.5879 481.843 61.2263C481.843 63.7095 480.931 65.6301 479.106 66.9881C477.32 68.3073 474.525 68.9669 470.72 68.9669H466.702L466.644 65.9405V53.3112Z" fill="#33383D"/>
<path d="M492.648 69.4325V71.9933H506.799V69.4325L502.45 68.8944L502.431 68.2103V50.9831L502.548 43.5918L501.15 43.1844L492.357 46.3272V48.7134L497.132 49.0625C497.171 50.3042 497.19 51.5069 497.19 52.6709C497.229 53.8349 497.249 55.1735 497.249 56.6867V59.5968C497.249 60.8383 497.229 62.2351 497.19 63.7871V68.2103C497.19 68.4469 497.19 68.6787 497.189 68.9058L492.648 69.4325Z" fill="#33383D"/>
<path d="M496.841 36.2586C497.617 36.9958 498.549 37.3644 499.636 37.3644C500.723 37.3644 501.636 36.9958 502.373 36.2586C503.15 35.5214 503.538 34.6096 503.538 33.5232C503.538 32.4368 503.15 31.5444 502.373 30.846C501.636 30.1088 500.723 29.7402 499.636 29.7402C498.549 29.7402 497.617 30.1088 496.841 30.846C496.064 31.5444 495.676 32.4368 495.676 33.5232C495.676 34.6096 496.064 35.5214 496.841 36.2586Z" fill="#33383D"/>
<path fill-rule="evenodd" clip-rule="evenodd" d="M519.631 72.8081C517.456 72.8081 515.573 72.1873 513.982 70.9457C512.429 69.6653 511.652 67.7835 511.652 65.3003C511.652 63.9811 511.924 62.7977 512.468 61.7501C513.05 60.6637 514.04 59.6937 515.438 58.8402C516.835 57.9477 518.757 57.1524 521.203 56.4539C522.29 56.1435 523.358 55.8525 524.406 55.5809C525.493 55.2706 526.561 54.9601 527.609 54.6498C527.939 54.5555 528.269 54.4631 528.599 54.3724V52.962C528.599 51.0996 528.385 49.664 527.958 48.6552C527.57 47.6076 526.929 46.8898 526.036 46.5018C525.182 46.075 524.076 45.8616 522.717 45.8616C521.863 45.8616 520.989 45.9392 520.096 46.0944C519.833 46.1401 519.565 46.1959 519.292 46.2619L518.466 49.9356C518.272 50.9831 517.903 51.7785 517.359 52.3217C516.855 52.8261 516.175 53.0783 515.321 53.0783C514.428 53.0783 513.729 52.8455 513.225 52.38C512.759 51.9143 512.487 51.3323 512.409 50.634C512.914 48.306 514.215 46.4436 516.311 45.0468C518.408 43.65 521.028 42.9516 524.173 42.9516C526.192 42.9516 527.9 43.3008 529.298 43.9992C530.734 44.6588 531.821 45.7258 532.559 47.2002C533.335 48.6358 533.724 50.5951 533.724 53.0783V65.8241C533.724 67.0269 533.937 67.8999 534.364 68.4431C534.791 68.9475 535.354 69.1997 536.053 69.1997C536.558 69.1997 536.985 69.1027 537.334 68.9087C537.722 68.7147 538.072 68.4819 538.382 68.2103L539.372 69.9563C538.751 70.8487 538.014 71.5277 537.159 71.9933C536.344 72.4201 535.393 72.6335 534.306 72.6335C532.636 72.6335 531.297 72.0903 530.288 71.0039C529.471 70.1252 528.972 68.9418 528.791 67.4537H528.541C527.648 68.5013 526.774 69.4325 525.92 70.2473C525.066 71.0621 524.134 71.6829 523.125 72.1097C522.154 72.5753 520.989 72.8081 519.631 72.8081ZM526.735 57.327C527.352 57.1331 527.974 56.9392 528.599 56.7454V65.342C527.839 65.9515 527.16 66.4808 526.561 66.9299C525.668 67.5895 524.852 68.0745 524.115 68.3849C523.416 68.6953 522.639 68.8505 521.785 68.8505C520.349 68.8505 519.184 68.4819 518.291 67.7447C517.398 66.9687 516.952 65.8435 516.952 64.3691C516.952 63.6707 517.088 62.9917 517.359 62.3321C517.631 61.6337 518.175 60.9741 518.99 60.3534C519.805 59.7325 521.028 59.1699 522.659 58.6655C524.018 58.1999 525.376 57.7537 526.735 57.327Z" fill="#33383D"/>
<path d="M547.134 72.1679C548.648 72.5559 550.317 72.7499 552.142 72.7499C554.665 72.7499 556.781 72.3619 558.49 71.5859C560.237 70.8099 561.557 69.7817 562.45 68.5013C563.343 67.1821 563.789 65.7271 563.789 64.1363C563.789 62.7783 563.478 61.5755 562.857 60.5279C562.275 59.4803 561.324 58.5297 560.004 57.6762C558.684 56.8225 557.014 56.0465 554.995 55.3481L553.423 54.8243C551.404 54.126 549.987 53.4469 549.172 52.7874C548.357 52.0889 547.949 51.119 547.949 49.8774C547.949 48.6745 548.415 47.7046 549.347 46.9674C550.278 46.1914 551.695 45.8034 553.598 45.8034C554.763 45.8034 555.85 45.978 556.859 46.3272C557.184 46.4234 557.504 46.5347 557.818 46.6608L558.781 51.5652H562.042L562.217 45.1632C561.052 44.5036 559.751 43.9798 558.315 43.5918C556.878 43.165 555.325 42.9516 553.656 42.9516C551.404 42.9516 549.482 43.3396 547.891 44.1156C546.299 44.8528 545.076 45.8422 544.222 47.0838C543.368 48.3253 542.941 49.7028 542.941 51.216C542.941 52.6128 543.271 53.8349 543.931 54.8826C544.591 55.8913 545.522 56.7644 546.726 57.5015C547.93 58.2387 549.366 58.8983 551.035 59.4803L553.19 60.2369C555.131 60.8577 556.548 61.5561 557.441 62.3321C558.334 63.0693 558.781 64.0587 558.781 65.3003C558.781 66.1539 558.548 66.9493 558.082 67.6865C557.616 68.3849 556.898 68.9475 555.927 69.3743C554.995 69.7623 553.772 69.9563 552.258 69.9563C550.783 69.9563 549.424 69.7817 548.182 69.4325C547.826 69.3214 547.481 69.199 547.148 69.0656L545.969 63.7871H542.591L542.824 70.6547C544.183 71.2755 545.62 71.7799 547.134 72.1679Z" fill="#33383D"/>
<path fill-rule="evenodd" clip-rule="evenodd" d="M582.837 72.7499C580.002 72.7499 577.537 72.1679 575.441 71.0039C573.383 69.8011 571.791 68.1133 570.665 65.9405C569.578 63.7677 569.035 61.1875 569.035 58.1999C569.035 55.2124 569.617 52.574 570.782 50.2848C571.985 47.9956 573.616 46.2108 575.674 44.9304C577.731 43.6112 580.041 42.9516 582.604 42.9516C584.855 42.9516 586.835 43.4172 588.544 44.3484C590.252 45.2408 591.591 46.5406 592.562 48.2478C593.533 49.9162 594.018 51.9337 594.018 54.3006C594.018 54.9989 593.979 55.6973 593.901 56.3958C593.824 57.0553 593.727 57.5985 593.61 58.0253H574.396C574.439 60.2193 574.826 62.1205 575.557 63.7289C576.372 65.3973 577.498 66.6777 578.935 67.5701C580.41 68.4237 582.138 68.8505 584.118 68.8505C586.098 68.8505 587.767 68.5013 589.126 67.8029C590.524 67.1045 591.766 66.1151 592.853 64.8347L594.484 66.1733C593.668 67.4537 592.737 68.5983 591.688 69.6071C590.679 70.5771 589.456 71.3531 588.02 71.9351C586.622 72.4783 584.894 72.7499 582.837 72.7499ZM575.499 50.8668C574.967 52.0976 574.627 53.6108 574.479 55.4064H586.447C587.534 55.2123 588.233 54.8632 588.544 54.3587C588.854 53.8155 589.01 53.1754 589.01 52.4382C589.01 51.0025 588.757 49.7997 588.253 48.8298C587.748 47.8598 587.01 47.1226 586.04 46.6182C585.069 46.1138 583.924 45.8616 582.604 45.8616C581.167 45.8616 579.808 46.269 578.527 47.0838C577.285 47.8986 576.275 49.1596 575.499 50.8668Z" fill="#33383D"/>
<path d="M604.232 72.1679C605.746 72.5559 607.415 72.7499 609.24 72.7499C611.764 72.7499 613.88 72.3619 615.588 71.5859C617.335 70.8099 618.655 69.7817 619.548 68.5013C620.441 67.1821 620.887 65.7271 620.887 64.1363C620.887 62.7783 620.577 61.5755 619.955 60.5279C619.373 59.4803 618.422 58.5297 617.102 57.6762C615.782 56.8225 614.112 56.0465 612.094 55.3481L610.521 54.8243C608.502 54.126 607.085 53.4469 606.27 52.7874C605.455 52.0889 605.047 51.119 605.047 49.8774C605.047 48.6745 605.513 47.7046 606.445 46.9674C607.377 46.1914 608.794 45.8034 610.696 45.8034C611.861 45.8034 612.948 45.978 613.957 46.3272C614.282 46.4234 614.602 46.5347 614.916 46.6608L615.879 51.5652H619.14L619.315 45.1632C618.15 44.5036 616.85 43.9798 615.413 43.5918C613.977 43.165 612.424 42.9516 610.754 42.9516C608.502 42.9516 606.581 43.3396 604.989 44.1156C603.397 44.8528 602.174 45.8422 601.32 47.0838C600.466 48.3253 600.039 49.7028 600.039 51.216C600.039 52.6128 600.369 53.8349 601.029 54.8826C601.689 55.8913 602.621 56.7644 603.824 57.5015C605.028 58.2387 606.464 58.8983 608.134 59.4803L610.288 60.2369C612.23 60.8577 613.647 61.5561 614.54 62.3321C615.432 63.0693 615.879 64.0587 615.879 65.3003C615.879 66.1539 615.646 66.9493 615.18 67.6865C614.714 68.3849 613.996 68.9475 613.025 69.3743C612.094 69.7623 610.871 69.9563 609.357 69.9563C607.881 69.9563 606.522 69.7817 605.28 69.4325C604.924 69.3214 604.579 69.199 604.246 69.0656L603.067 63.7871H599.689L599.922 70.6547C601.281 71.2755 602.718 71.7799 604.232 72.1679Z" fill="#33383D"/>
<path d="M642.848 72.7499V29.7984H653.592C660.231 29.7984 665.276 31.6535 668.726 35.3637C672.177 39.0303 673.902 44.2683 673.902 51.0777C673.902 57.9308 672.177 63.2561 668.726 67.0536C665.32 70.8512 660.362 72.7499 653.854 72.7499H642.848ZM648.286 68.2976H653.199C658.222 68.2976 661.978 66.7917 664.468 63.7799C667.001 60.7244 668.268 56.4903 668.268 51.0777C668.268 45.6651 667.001 41.5184 664.468 38.6375C661.978 35.7129 658.222 34.2507 653.199 34.2507H648.286V68.2976Z" fill="#33383D"/>
<path d="M695.013 73.5356C692.436 73.5356 690.012 72.8809 687.741 71.5714C685.514 70.2619 683.701 68.3631 682.303 65.8751C680.949 63.387 680.272 60.397 680.272 56.905C680.272 53.3257 680.949 50.292 682.303 47.804C683.701 45.3159 685.514 43.4172 687.741 42.1077C690.012 40.7982 692.436 40.1434 695.013 40.1434C697.634 40.1434 700.058 40.7982 702.285 42.1077C704.513 43.4172 706.304 45.3159 707.658 47.804C709.055 50.292 709.754 53.3257 709.754 56.905C709.754 60.397 709.055 63.387 707.658 65.8751C706.304 68.3631 704.513 70.2619 702.285 71.5714C700.058 72.8809 697.634 73.5356 695.013 73.5356ZM695.013 69.0833C697.765 69.0833 699.971 67.9703 701.63 65.7441C703.334 63.4743 704.185 60.5279 704.185 56.905C704.185 53.2384 703.334 50.2702 701.63 48.0004C699.971 45.7306 697.765 44.5957 695.013 44.5957C692.305 44.5957 690.1 45.7306 688.396 48.0004C686.693 50.2702 685.841 53.2384 685.841 56.905C685.841 60.5279 686.693 63.4743 688.396 65.7441C690.1 67.9703 692.305 69.0833 695.013 69.0833Z" fill="#33383D"/>
<path d="M730.718 73.5356C727.923 73.5356 725.39 72.8809 723.119 71.5714C720.847 70.2619 719.057 68.3631 717.746 65.8751C716.436 63.387 715.781 60.397 715.781 56.905C715.781 53.3257 716.48 50.292 717.877 47.804C719.319 45.3159 721.197 43.4172 723.512 42.1077C725.87 40.7982 728.404 40.1434 731.111 40.1434C733.208 40.1434 734.999 40.5144 736.484 41.2565C738.012 41.9985 739.323 42.8715 740.415 43.8755L737.663 47.4111C736.746 46.5818 735.763 45.9052 734.715 45.3814C733.71 44.8576 732.575 44.5957 731.308 44.5957C729.386 44.5957 727.661 45.1195 726.132 46.1671C724.647 47.1711 723.468 48.6115 722.595 50.4885C721.765 52.3217 721.35 54.4606 721.35 56.905C721.35 60.5279 722.245 63.4743 724.036 65.7441C725.87 67.9703 728.251 69.0833 731.177 69.0833C732.662 69.0833 734.038 68.7778 735.304 68.1667C736.571 67.5119 737.685 66.7481 738.646 65.8751L741.004 69.4762C739.563 70.742 737.969 71.746 736.222 72.488C734.475 73.1864 732.64 73.5356 730.718 73.5356Z" fill="#33383D"/>
<path d="M756.338 73.5356C754.067 73.5356 751.905 73.121 749.852 72.2916C747.8 71.4186 746.009 70.371 744.48 69.1488L747.166 65.5477C748.564 66.6389 750.005 67.5556 751.49 68.2976C752.975 68.996 754.657 69.3452 756.535 69.3452C758.631 69.3452 760.204 68.8651 761.252 67.9048C762.3 66.9008 762.824 65.7223 762.824 64.3691C762.824 63.2779 762.453 62.3612 761.711 61.6192C761.012 60.8771 760.095 60.266 758.959 59.7859C757.867 59.2621 756.731 58.7819 755.552 58.3454C754.067 57.778 752.604 57.1451 751.163 56.4467C749.721 55.7046 748.542 54.7661 747.625 53.6312C746.708 52.4527 746.249 50.9686 746.249 49.179C746.249 46.6036 747.21 44.4648 749.132 42.7624C751.097 41.0164 753.805 40.1434 757.256 40.1434C759.221 40.1434 761.055 40.4926 762.759 41.191C764.462 41.8894 765.925 42.7406 767.148 43.7445L764.528 47.1492C763.436 46.3199 762.3 45.6433 761.121 45.1195C759.942 44.5957 758.653 44.3338 757.256 44.3338C755.246 44.3338 753.761 44.7921 752.801 45.7088C751.883 46.6254 751.425 47.6949 751.425 48.9171C751.425 49.921 751.752 50.7503 752.407 51.4051C753.063 52.0162 753.914 52.5618 754.963 53.042C756.011 53.4785 757.125 53.9368 758.304 54.4169C759.832 54.9844 761.339 55.6391 762.824 56.3812C764.309 57.0796 765.532 58.0399 766.493 59.2621C767.498 60.4406 768 62.0339 768 64.0418C768 65.7441 767.541 67.3155 766.624 68.756C765.751 70.1964 764.44 71.3531 762.693 72.2261C760.99 73.0991 758.872 73.5356 756.338 73.5356Z" fill="#33383D"/>
</g>
<defs>
<clipPath id="clip0_280_5316">
<rect width="768" height="97" fill="white"/>
</clipPath>
</defs>
</svg>
