<svg fill="none" height="27" viewBox="0 0 200 27" width="200" xmlns="http://www.w3.org/2000/svg" xmlns:xlink="http://www.w3.org/1999/xlink"><clipPath id="a"><path d="m0 0h200v27h-200z"/></clipPath><g clip-path="url(#a)"><path d="m2.75622 3.44533c-.9514 0-1.72266-.77126-1.72266-1.72266 0-.951406.77126-1.72267 1.72266-1.72267.95141 0 1.72267.771264 1.72267 1.72267 0 .9514-.77126 1.72266-1.72267 1.72266z" fill="#fcb119"/><path d="m2.75622 11.3696c-1.52222 0-2.75622-1.234-2.75622-2.75626 0-1.52222 1.234-2.75622 2.75622-2.75622s2.75622 1.234 2.75622 2.75622c0 1.52226-1.234 2.75626-2.75622 2.75626z" fill="#fcb119"/><path d="m2.75622 25.1506c-1.52222 0-2.75622-1.234-2.75622-2.7562s1.234-2.7562 2.75622-2.7562 2.75622 1.234 2.75622 2.7562-1.234 2.7562-2.75622 2.7562z" fill="#fcb119"/><path d="m1.03356 15.504c0 .9514.77126 1.7227 1.72266 1.7227.95141 0 1.72267-.7713 1.72267-1.7227s-.77126-1.7226-1.72267-1.7226c-.9514 0-1.72266.7712-1.72266 1.7226z" fill="#fcb119"/><path d="m10.5771 18.0533c0 1.5223 1.234 2.7563 2.7562 2.7563s2.7562-1.234 2.7562-2.7563c0-1.5222-1.234-2.7562-2.7562-2.7562s-2.7562 1.234-2.7562 2.7562z" fill="#fcb119"/><path d="m13.3333 26.6667c-.9514 0-1.7227-.7713-1.7227-1.7227s.7713-1.7226 1.7227-1.7226 1.7227.7712 1.7227 1.7226-.7713 1.7227-1.7227 1.7227z" fill="#fcb119"/><path d="m11.6106 11.1629c0 .9514.7713 1.7226 1.7227 1.7226s1.7227-.7712 1.7227-1.7226-.7713-1.72268-1.7227-1.72268-1.7227.77128-1.7227 1.72268z" fill="#fcb119"/><path d="m13.3333 5.99488c-.9514 0-1.7227-.77127-1.7227-1.72267s.7713-1.72266 1.7227-1.72266 1.7227.77126 1.7227 1.72266-.7713 1.72267-1.7227 1.72267z" fill="#fcb119"/><path d="m21.1542 8.61334c0 1.52226 1.234 2.75626 2.7562 2.75626s2.7562-1.234 2.7562-2.75626c0-1.52222-1.234-2.75622-2.7562-2.75622s-2.7562 1.234-2.7562 2.75622z" fill="#fcb119"/><path d="m23.9105 3.44533c-.9514 0-1.7227-.77126-1.7227-1.72266 0-.951406.7713-1.72267 1.7227-1.72267s1.7226.771264 1.7226 1.72267c0 .9514-.7712 1.72266-1.7226 1.72266z" fill="#fcb119"/><path d="m22.1878 15.504c0 .9514.7713 1.7227 1.7227 1.7227s1.7226-.7713 1.7226-1.7227-.7712-1.7226-1.7226-1.7226-1.7227.7712-1.7227 1.7226z" fill="#fcb119"/><path d="m23.9105 24.1171c-.9514 0-1.7227-.7712-1.7227-1.7226s.7713-1.7227 1.7227-1.7227 1.7226.7713 1.7226 1.7227-.7712 1.7226-1.7226 1.7226z" fill="#fcb119"/><g fill="#33383d"><path d="m73.0864 19.792v-.704l1.2475-.1461c.0003-.062.0005-.1253.0005-.1899.0106-.3947.016-.8.016-1.216v-8.064l-1.36-.224v-.64l2.416-.608.368.096-.048 2.112v3.264h.08c.224-.3093.4853-.5867.784-.832.3093-.256.64-.4587.992-.608s.72-.224 1.104-.224c.736 0 1.2853.2347 1.648.704.3626.4587.544 1.184.544 2.176v2.864c.0106.416.016.8213.016 1.216l.0045.172 1.1955.148v.704h-3.856v-.704l1.2-.1418v-.1782c.0106-.3947.016-.8.016-1.216.0106-.4267.016-.816.016-1.168v-1.488c0-.6933-.1067-1.1787-.32-1.456-.2134-.2773-.5654-.416-1.056-.416-.2667 0-.5334.0427-.8.128-.2667.0747-.5387.1973-.816.368-.2283.137-.4683.3091-.72.5164v3.4996c.0106.416.016.8213.016 1.216l.0028.1069.002.0825 1.1952.1466v.704z"/><path d="m59.525 19.792v-.704l1.2476-.1448c.0002-.0624.0004-.1262.0004-.1912v-1.216c.0107-.4267.016-.8107.016-1.152v-.8c0-.416-.0053-.784-.016-1.104 0-.32-.0053-.6507-.016-.992l-1.312-.096v-.656l2.416-.864.384.112-.032 2.032v4.736l.0052.1881 1.1948.1479v.704z"/><path d="m61.445 10.272c-.2987 0-.5547-.1013-.768-.304-.2133-.20266-.32-.45333-.32-.752 0-.29866.1067-.544.32-.736.2133-.20267.4693-.304.768-.304s.5493.10133.752.304c.2133.192.32.43734.32.736 0 .29867-.1067.54934-.32.752-.2027.2027-.4533.304-.752.304z"/><path d="m37.3292 9.96676 2.8468 9.90524h1.04l2.288-7.504.2656-1.1383 2.5664 8.6423h1.008l2.7829-9.88667 1.3451-.12933v-.784h-3.728v.784l1.4411.13856-1.7611 6.37344-.2861 1.4985-2.3525-7.87886 1.5666-.13164v-.784h-4.48v.784l1.4562.11936-2.0162 6.32864-.2764 1.4612-2.0876-7.78344 1.484-.12576v-.784h-4.432v.784z"/><path clip-rule="evenodd" d="m52.9907 19.52c.576.32 1.2534.48 2.032.48.5654 0 1.04-.0747 1.424-.224.3947-.16.7307-.3733 1.008-.64.288-.2773.544-.592.768-.944l-.448-.368c-.2986.352-.64.624-1.024.816-.3733.192-.832.288-1.376.288s-1.0186-.1173-1.424-.352c-.3946-.2453-.704-.5973-.928-1.056-.2009-.4422-.3073-.9649-.3189-1.568h5.2789c.032-.1173.0587-.2667.08-.448.0214-.192.032-.384.032-.576 0-.6507-.1333-1.2053-.4-1.664-.2666-.4693-.6346-.8267-1.104-1.072-.4693-.256-1.0133-.384-1.632-.384-.704 0-1.3386.1813-1.904.544-.5653.352-1.0133.8427-1.344 1.472-.32.6293-.48 1.3547-.48 2.176s.1494 1.5307.448 2.128c.3094.5973.7467 1.0613 1.312 1.392zm-.2643-4.288c.0408-.4936.1342-.9096.2803-1.248.2134-.4693.4907-.816.832-1.04.352-.224.7254-.336 1.12-.336.3627 0 .6774.0693.944.208.2667.1387.4694.3413.608.608.1387.2667.208.5973.208.992 0 .2027-.0426.3787-.128.528-.0853.1387-.2773.2347-.576.288z" fill-rule="evenodd"/><path clip-rule="evenodd" d="m66.0584 23.328c.5013.1707 1.12.256 1.856.256.6506 0 1.232-.0747 1.744-.224.5226-.1493.9653-.3573 1.328-.624.3626-.256.64-.5547.832-.896.2026-.3307.304-.6827.304-1.056 0-.416-.1014-.7787-.304-1.088-.192-.3093-.4854-.5493-.88-.72-.384-.1707-.8694-.256-1.456-.256h-2.016c-.416 0-.7147-.0693-.896-.208-.1814-.1493-.272-.3573-.272-.624 0-.2133.0586-.4107.176-.592.0675-.0956.1557-.2001.2647-.3135.3667.113.7692.1695 1.2073.1695.5866 0 1.104-.1067 1.552-.32.4586-.224.816-.5333 1.072-.928.2666-.4053.4-.8853.4-1.44 0-.3413-.048-.64-.144-.896-.0535-.1486-.1186-.2873-.1953-.416h1.6513v-1.28l-.416-.096-1.6669.8798c-.1223-.1303-.2653-.2475-.4291-.3518-.2347-.16-.5067-.2827-.816-.368-.2987-.0853-.6294-.128-.992-.128-.5867 0-1.1094.1067-1.568.32-.448.2133-.8054.5227-1.072.928-.256.3947-.384.8747-.384 1.44s.128 1.0453.384 1.44c.2435.3754.5738.6688.991.8801-.4337.2868-.7534.5588-.959.8159-.2134.256-.32.5387-.32.848 0 .352.112.6293.336.832.2346.192.5546.3253.96.4v.0619c-.3398.1339-.6278.2733-.864.4181-.32.2027-.5494.416-.688.64-.1387.2347-.208.496-.208.784 0 .384.1226.7253.368 1.024.2453.2987.6186.528 1.12.688zm.593-3.4092c.0415.0008.0839.0012.127.0012.16.0107.32.016.48.016h1.984c.5546 0 .9546.112 1.2.336.256.224.384.5173.384.88 0 .288-.1014.5547-.304.8-.2027.256-.5067.4587-.912.608-.4054.1493-.9067.224-1.504.224-.48 0-.88-.0533-1.2-.16s-.56-.272-.72-.496c-.16-.2133-.24-.4693-.24-.768 0-.2133.032-.4107.096-.592.0746-.1813.176-.3573.304-.528.0869-.1071.1886-.2141.305-.3212zm2.159-3.7428c-.2454.16-.5387.24-.88.24-.3414 0-.6347-.08-.88-.24-.2347-.16-.416-.384-.544-.672s-.192-.624-.192-1.008c0-.3947.064-.736.192-1.024.1386-.288.3306-.512.576-.672.256-.1707.5493-.256.88-.256.3413 0 .6293.08.864.24.2453.16.432.384.56.672.1386.2773.208.608.208.992 0 .3947-.0694.7413-.208 1.04-.128.288-.32.5173-.576.688z" fill-rule="evenodd"/><path d="m85.5035 12.912v4.944c0 .416.0853.72.256.912.1707.1813.4053.272.704.272.192 0 .3733-.032.544-.096.1707-.0747.3413-.1653.512-.272l.368.544c-.1173.1387-.272.2667-.464.384-.1813.1173-.3893.208-.624.272s-.496.096-.784.096c-.5867 0-1.056-.16-1.408-.48s-.528-.8107-.528-1.472v-5.104h-1.376v-.736l1.5092-.1783.4268-2.1737h.976l-.1321 2.192h2.2441v.896z"/><path d="m91.3864 20c-.5014 0-.96-.0533-1.376-.16s-.8107-.2453-1.184-.416l-.064-1.888h.928l.3238 1.4511c.0916.0367.1864.0703.2842.1009.3413.096.7146.144 1.12.144.416 0 .752-.0533 1.008-.16.2666-.1173.464-.272.592-.464.128-.2027.192-.4213.192-.656 0-.3413-.1227-.6133-.368-.816-.2454-.2133-.6347-.4053-1.168-.576l-.592-.208c-.4587-.16-.8534-.3413-1.184-.544-.3307-.2027-.5867-.4427-.768-.72-.1814-.288-.272-.624-.272-1.008 0-.416.1173-.7947.352-1.136.2346-.3413.5706-.6133 1.008-.816.4373-.2133.9653-.32 1.584-.32.4586 0 .8853.0587 1.28.176.3946.1067.752.2507 1.072.432l-.048 1.76h-.896l-.2646-1.3483c-.0863-.0347-.1741-.0652-.2634-.0917-.2774-.096-.576-.144-.896-.144-.5227 0-.912.1067-1.168.32-.256.2027-.384.4693-.384.8 0 .3413.112.608.336.8.224.1813.6133.368 1.168.56l.432.144c.5546.192 1.0133.4053 1.376.64.3626.2347.624.496.784.784.1706.288.256.6187.256.992 0 .4373-.1227.8373-.368 1.2-.2454.352-.608.6347-1.088.848-.4694.2133-1.0507.32-1.744.32z"/><path clip-rule="evenodd" d="m101.105 19.616c.523.256 1.115.384 1.776.384.598 0 1.115-.08 1.552-.24.448-.16.827-.368 1.136-.624.198-.1703.376-.3471.534-.5305.175.1931.355.3913.538.5945.182.192.368.3467.56.464.192.1067.4.1813.624.224.224.0533.475.08.752.08.246 0 .47-.016.672-.048.214-.0213.427-.0533.64-.096l.048-.768-1.712-.1725c-.258-.278-.509-.5458-.752-.8035-.146-.1596-.29-.3156-.43-.4679.252-.3261.475-.6608.67-1.0041.267-.48.496-1.0027.688-1.568.126-.3708.241-.7736.344-1.2086l1.224-.1514v-.768h-3.376v.768l1.278.1406c-.076.3705-.161.7183-.254 1.0434-.149.512-.32.9867-.512 1.424-.138.3062-.289.607-.454.9022-.063-.0668-.125-.1329-.186-.1982-.32-.352-.629-.688-.928-1.008-.288-.32-.576-.6293-.864-.928-.277-.3093-.522-.5813-.736-.816-.189-.2083-.37-.4081-.543-.5996.813-.3831 1.41-.7753 1.791-1.1764.427-.448.64-.9707.64-1.568 0-.6187-.218-1.11467-.656-1.488-.437-.384-1.04-.576-1.808-.576-.512 0-.97.09067-1.376.272-.394.18133-.709.448-.944.8-.234.3413-.352.7573-.352 1.248 0 .3413.048.6667.144.976.107.3093.256.6133.448.912.171.2555.374.5193.612.7916-.468.2027-.875.4402-1.22.7124-.394.3093-.6984.672-.9118 1.088-.2026.4053-.304.8693-.304 1.392 0 .576.144 1.088.432 1.536.2988.448.7038.8 1.2158 1.056zm1.957-6.3614c-.096-.1128-.194-.227-.293-.3426-.224-.2667-.4-.5067-.528-.72s-.218-.416-.272-.608c-.053-.2027-.08-.4107-.08-.624 0-.448.139-.8053.416-1.072.278-.27733.624-.416 1.04-.416.406 0 .736.128.992.384.256.2453.384.5973.384 1.056 0 .512-.186.9707-.56 1.376-.298.333-.664.6552-1.099.9666zm2.629 4.8966c-.237.1853-.501.3429-.794.4728-.469.2133-.992.32-1.568.32-.522 0-.965-.1013-1.328-.304-.362-.2133-.634-.496-.816-.848-.181-.352-.272-.7307-.272-1.136 0-.3307.059-.656.176-.976.118-.3307.304-.64.56-.928.17-.1898.367-.3624.593-.5177.121.1424.238.283.351.4217.203.224.411.4587.624.704.214.2453.454.5227.72.832.427.4907.859.976 1.296 1.456.149.1634.302.3312.458.5032z" fill-rule="evenodd"/><path clip-rule="evenodd" d="m115.057 19.792v-.784l1.545-.1217c.005-.2421.007-.4842.007-.7263v-7.44c0-.2485-.003-.4959-.007-.7423l-1.545-.1217v-.784h4.752c.757 0 1.408.10667 1.952.32.554.21333.981.51733 1.28.912.298.384.448.8427.448 1.376 0 .48-.128.9013-.384 1.264-.246.352-.608.64-1.088.864-.47.2133-1.046.3467-1.728.4v.016c.821.0427 1.509.176 2.064.4.554.2133.97.5067 1.248.88.288.3627.432.8.432 1.312 0 .4053-.091.7893-.272 1.152-.171.352-.438.6667-.8.944-.352.2773-.806.496-1.36.656-.555.1493-1.206.224-1.952.224zm3.152-9.072.016-.832h1.184c.544 0 1.002.064 1.376.192.373.128.65.3307.832.608.192.2773.288.6507.288 1.12s-.096.8533-.288 1.152-.491.5227-.896.672c-.395.1387-.902.208-1.52.208h-.992zm0 3.936h1.072c1.077 0 1.861.1813 2.352.544.501.3627.752.9067.752 1.632 0 .6827-.251 1.2107-.752 1.584-.491.3627-1.259.544-2.304.544h-1.104l-.016-.832z" fill-rule="evenodd"/><path d="m125.353 19.088v.704h3.888v-.704l-1.195-.1479-.005-.1881v-4.736l.032-2.032-.384-.112-2.416.864v.656l1.312.096c.011.3413.016.672.016.992.011.32.016.688.016 1.104v.8c0 .3413-.005.7253-.016 1.152v1.216.1912z"/><path d="m126.505 9.968c.213.2027.469.304.768.304s.549-.1013.752-.304c.213-.20266.32-.45333.32-.752 0-.29866-.107-.544-.32-.736-.203-.20267-.453-.304-.752-.304s-.555.10133-.768.304c-.213.192-.32.43734-.32.736 0 .29867.107.54934.32.752z"/><path clip-rule="evenodd" d="m132.766 20.016c-.597 0-1.114-.1707-1.552-.512-.426-.352-.64-.8693-.64-1.552 0-.3627.075-.688.224-.976.16-.2987.432-.5653.817-.8.384-.2453.911-.464 1.583-.656.299-.0853.592-.1653.88-.24.299-.0853.592-.1707.88-.256.091-.0259.182-.0513.272-.0762v-.3878c0-.512-.058-.9067-.175-1.184-.107-.288-.283-.4853-.529-.592-.234-.1173-.538-.176-.911-.176-.235 0-.475.0213-.72.064-.073.0126-.146.0279-.222.0461l-.226 1.0099c-.054.288-.155.5067-.305.656-.138.1387-.325.208-.56.208-.245 0-.437-.064-.575-.192-.128-.128-.203-.288-.224-.48.138-.64.495-1.152 1.071-1.536s1.296-.576 2.16-.576c.555 0 1.024.096 1.408.288.395.1813.694.4747.896.88.214.3947.32.9333.32 1.616v3.504c0 .3307.059.5707.176.72.118.1387.273.208.465.208.138 0 .255-.0267.351-.08.107-.0533.203-.1173.288-.192l.272.48c-.17.2453-.373.432-.608.56-.224.1173-.485.176-.784.176-.458 0-.826-.1493-1.104-.448-.224-.2416-.361-.5669-.411-.976h-.069c-.245.288-.485.544-.72.768-.234.224-.49.3947-.767.512-.267.128-.587.192-.961.192zm1.952-4.256c.17-.0533.341-.1066.512-.1599v2.3634c-.208.1675-.395.313-.559.4365-.246.1813-.47.3147-.672.4-.192.0853-.406.128-.641.128-.394 0-.714-.1013-.96-.304-.245-.2133-.368-.5227-.368-.928 0-.192.038-.3787.112-.56.075-.192.224-.3733.448-.544s.56-.3253 1.008-.464c.374-.128.747-.2507 1.12-.368z" fill-rule="evenodd"/><path d="m140.323 19.84c.416.1067.875.16 1.376.16.693 0 1.275-.1067 1.744-.32.48-.2133.843-.496 1.088-.848.245-.3627.368-.7627.368-1.2 0-.3733-.085-.704-.256-.992-.16-.288-.421-.5493-.784-.784s-.821-.448-1.376-.64l-.432-.144c-.555-.192-.944-.3787-1.168-.56-.224-.192-.336-.4587-.336-.8 0-.3307.128-.5973.384-.8.256-.2133.645-.32 1.168-.32.32 0 .619.048.896.144.089.0265.177.057.263.0917l.265 1.3483h.896l.048-1.76c-.32-.1813-.677-.3253-1.072-.432-.395-.1173-.821-.176-1.28-.176-.619 0-1.147.1067-1.584.32-.437.2027-.773.4747-1.008.816s-.352.72-.352 1.136c0 .384.091.72.272 1.008.181.2773.437.5173.768.72s.725.384 1.184.544l.592.208c.533.1707.923.3627 1.168.576.245.2027.368.4747.368.816 0 .2347-.064.4533-.192.656-.128.192-.325.3467-.592.464-.256.1067-.592.16-1.008.16-.405 0-.779-.048-1.12-.144-.098-.0306-.193-.0642-.284-.1009l-.324-1.4511h-.928l.064 1.888c.373.1707.768.3093 1.184.416z"/><path clip-rule="evenodd" d="m150.132 20c-.779 0-1.456-.16-2.032-.48-.565-.3307-1.003-.7947-1.312-1.392-.299-.5973-.448-1.3067-.448-2.128s.16-1.5467.48-2.176c.331-.6293.779-1.12 1.344-1.472.565-.3627 1.2-.544 1.904-.544.619 0 1.163.128 1.632.384.469.2453.837.6027 1.104 1.072.267.4587.4 1.0133.4 1.664 0 .192-.011.384-.032.576-.021.1813-.048.3307-.08.448h-5.279c.012.6031.118 1.1258.319 1.568.224.4587.533.8107.928 1.056.405.2347.88.352 1.424.352s1.003-.096 1.376-.288c.384-.192.725-.464 1.024-.816l.448.368c-.224.352-.48.6667-.768.944-.277.2667-.613.48-1.008.64-.384.1493-.859.224-1.424.224zm-2.016-6.016c-.146.3384-.239.7544-.28 1.248h3.288c.299-.0533.491-.1493.576-.288.085-.1493.128-.3253.128-.528 0-.3947-.069-.7253-.208-.992s-.341-.4693-.608-.608-.581-.208-.944-.208c-.395 0-.768.112-1.12.336-.341.224-.619.5707-.832 1.04z" fill-rule="evenodd"/><path d="m156.01 19.84c.416.1067.875.16 1.376.16.694 0 1.275-.1067 1.744-.32.48-.2133.843-.496 1.088-.848.246-.3627.368-.7627.368-1.2 0-.3733-.085-.704-.256-.992-.16-.288-.421-.5493-.784-.784-.362-.2347-.821-.448-1.376-.64l-.432-.144c-.554-.192-.944-.3787-1.168-.56-.224-.192-.336-.4587-.336-.8 0-.3307.128-.5973.384-.8.256-.2133.646-.32 1.168-.32.32 0 .619.048.896.144.09.0265.177.057.264.0917l.264 1.3483h.896l.048-1.76c-.32-.1813-.677-.3253-1.072-.432-.394-.1173-.821-.176-1.28-.176-.618 0-1.146.1067-1.584.32-.437.2027-.773.4747-1.008.816-.234.3413-.352.72-.352 1.136 0 .384.091.72.272 1.008.182.2773.438.5173.768.72.331.2027.726.384 1.184.544l.592.208c.534.1707.923.3627 1.168.576.246.2027.368.4747.368.816 0 .2347-.064.4533-.192.656-.128.192-.325.3467-.592.464-.256.1067-.592.16-1.008.16-.405 0-.778-.048-1.12-.144-.097-.0306-.192-.0642-.284-.1009l-.324-1.4511h-.928l.064 1.888c.374.1707.768.3093 1.184.416z"/></g><path d="m168.844 14.687v2.3265c.011.748.022 1.485.033 2.211h1.304c1.276 0 2.255-.4125 2.937-1.2375.682-.836 1.023-2.002 1.023-3.498 0-1.551-.336-2.7335-1.007-3.5475s-1.606-1.221-2.805-1.221h-1.452c-.011.704-.022 1.4245-.033 2.1615v2.1945zm-3.118-5.049v-.6765h4.867c1.056 0 1.986.2145 2.789.6435.803.418 1.43 1.0395 1.881 1.8645.451.814.676 1.8205.676 3.0195 0 1.188-.247 2.1945-.742 3.0195-.495.814-1.172 1.4355-2.03 1.8645-.847.418-1.809.627-2.887.627h-4.554v-.6765l1.518-.1815c.022-.704.033-1.419.033-2.145 0-.737 0-1.507 0-2.31v-.6105c0-.715 0-1.4245 0-2.1285 0-.715-.011-1.4245-.033-2.1285z" fill="#0096ad"/><path d="m181.235 20.2145c-.638 0-1.248-.1485-1.831-.4455-.572-.308-1.04-.7645-1.403-1.3695-.363-.616-.544-1.375-.544-2.277 0-.913.181-1.6775.544-2.2935.363-.627.831-1.0945 1.403-1.4025.583-.319 1.193-.4785 1.831-.4785s1.243.1595 1.815.4785c.583.308 1.056.7755 1.419 1.4025.374.616.561 1.3805.561 2.2935 0 .902-.187 1.661-.561 2.277-.363.605-.836 1.0615-1.419 1.3695-.572.297-1.177.4455-1.815.4455zm0-.7425c.715 0 1.265-.2805 1.65-.8415.385-.572.578-1.408.578-2.508 0-1.111-.193-1.958-.578-2.541s-.935-.8745-1.65-.8745-1.265.2915-1.65.8745c-.374.583-.561 1.43-.561 2.541 0 1.1.187 1.936.561 2.508.385.561.935.8415 1.65.8415z" fill="#0096ad"/><path d="m190.176 20.2145c-1.133 0-2.035-.3685-2.706-1.1055s-1.007-1.738-1.007-3.003c0-.869.176-1.6115.528-2.2275.363-.627.836-1.1055 1.419-1.4355s1.205-.495 1.865-.495c.495 0 .951.0935 1.369.2805s.765.4455 1.04.7755c.275.319.445.682.511 1.089-.077.418-.33.627-.759.627-.275 0-.484-.0715-.627-.2145-.132-.154-.225-.3465-.28-.5775l-.297-1.089c-.154-.055-.308-.088-.462-.099-.143-.022-.286-.033-.429-.033-.704 0-1.287.275-1.749.825-.451.55-.677 1.353-.677 2.409 0 1.034.248 1.826.743 2.376s1.127.825 1.897.825c.473 0 .908-.1045 1.304-.3135.396-.22.72-.5335.973-.9405l.413.2145c-.231.682-.605 1.2045-1.122 1.5675s-1.166.5445-1.947.5445z" fill="#0096ad"/><path d="m197.127 20.2145c-.462 0-.886-.055-1.271-.165-.385-.099-.781-.253-1.188-.462l-.066-1.815h.908l.313 1.4355c.385.176.831.264 1.337.264.627 0 1.089-.1155 1.386-.3465.308-.231.462-.5335.462-.9075 0-.352-.127-.6325-.38-.8415-.253-.22-.638-.418-1.155-.594l-.759-.2805c-.605-.22-1.089-.506-1.452-.858s-.544-.8085-.544-1.3695c0-.407.11-.7865.33-1.1385s.544-.638.973-.858.952-.33 1.568-.33c.451 0 .858.0605 1.221.1815.374.11.737.275 1.089.495l-.066 1.683h-.858l-.264-1.32c-.374-.187-.754-.2805-1.139-.2805-.506 0-.891.1045-1.155.3135-.253.198-.379.4675-.379.8085 0 .363.11.638.33.825.231.187.627.385 1.188.594l.511.1815c.825.308 1.408.66 1.749 1.056.352.396.528.8525.528 1.3695 0 .418-.121.8085-.363 1.1715-.242.352-.599.638-1.072.858s-1.067.33-1.782.33z" fill="#0096ad"/></g></svg>