<svg width="212" height="27" viewBox="0 0 212 27" fill="none" xmlns="http://www.w3.org/2000/svg">
<path d="M2.75622 3.44533C1.80482 3.44533 1.03356 2.67407 1.03356 1.72267C1.03356 0.771264 1.80482 0 2.75622 0C3.70763 0 4.47889 0.771264 4.47889 1.72267C4.47889 2.67407 3.70763 3.44533 2.75622 3.44533Z" fill="#FCB119"/>
<path d="M2.75622 11.3696C1.234 11.3696 0 10.1356 0 8.61334C0 7.09112 1.234 5.85712 2.75622 5.85712C4.27844 5.85712 5.51244 7.09112 5.51244 8.61334C5.51244 10.1356 4.27844 11.3696 2.75622 11.3696Z" fill="#FCB119"/>
<path d="M2.75622 25.1506C1.234 25.1506 0 23.9166 0 22.3944C0 20.8722 1.234 19.6382 2.75622 19.6382C4.27844 19.6382 5.51244 20.8722 5.51244 22.3944C5.51244 23.9166 4.27844 25.1506 2.75622 25.1506Z" fill="#FCB119"/>
<path d="M1.03356 15.504C1.03356 16.4554 1.80482 17.2267 2.75622 17.2267C3.70763 17.2267 4.47889 16.4554 4.47889 15.504C4.47889 14.5526 3.70763 13.7814 2.75622 13.7814C1.80482 13.7814 1.03356 14.5526 1.03356 15.504Z" fill="#FCB119"/>
<path d="M10.5771 18.0533C10.5771 19.5756 11.8111 20.8096 13.3333 20.8096C14.8555 20.8096 16.0895 19.5756 16.0895 18.0533C16.0895 16.5311 14.8555 15.2971 13.3333 15.2971C11.8111 15.2971 10.5771 16.5311 10.5771 18.0533Z" fill="#FCB119"/>
<path d="M13.3333 26.6667C12.3819 26.6667 11.6106 25.8954 11.6106 24.944C11.6106 23.9926 12.3819 23.2214 13.3333 23.2214C14.2847 23.2214 15.056 23.9926 15.056 24.944C15.056 25.8954 14.2847 26.6667 13.3333 26.6667Z" fill="#FCB119"/>
<path d="M11.6106 11.1629C11.6106 12.1143 12.3819 12.8855 13.3333 12.8855C14.2847 12.8855 15.056 12.1143 15.056 11.1629C15.056 10.2115 14.2847 9.44022 13.3333 9.44022C12.3819 9.44022 11.6106 10.2115 11.6106 11.1629Z" fill="#FCB119"/>
<path d="M13.3333 5.99488C12.3819 5.99488 11.6106 5.22361 11.6106 4.27221C11.6106 3.32081 12.3819 2.54955 13.3333 2.54955C14.2847 2.54955 15.056 3.32081 15.056 4.27221C15.056 5.22361 14.2847 5.99488 13.3333 5.99488Z" fill="#FCB119"/>
<path d="M21.1542 8.61334C21.1542 10.1356 22.3882 11.3696 23.9104 11.3696C25.4326 11.3696 26.6666 10.1356 26.6666 8.61334C26.6666 7.09112 25.4326 5.85712 23.9104 5.85712C22.3882 5.85712 21.1542 7.09112 21.1542 8.61334Z" fill="#FCB119"/>
<path d="M23.9105 3.44533C22.9591 3.44533 22.1878 2.67407 22.1878 1.72267C22.1878 0.771264 22.9591 0 23.9105 0C24.8619 0 25.6331 0.771264 25.6331 1.72267C25.6331 2.67407 24.8619 3.44533 23.9105 3.44533Z" fill="#FCB119"/>
<path d="M22.1878 15.504C22.1878 16.4554 22.9591 17.2267 23.9105 17.2267C24.8619 17.2267 25.6331 16.4554 25.6331 15.504C25.6331 14.5526 24.8619 13.7814 23.9105 13.7814C22.9591 13.7814 22.1878 14.5526 22.1878 15.504Z" fill="#FCB119"/>
<path d="M23.9105 24.1171C22.9591 24.1171 22.1878 23.3459 22.1878 22.3945C22.1878 21.4431 22.9591 20.6718 23.9105 20.6718C24.8619 20.6718 25.6331 21.4431 25.6331 22.3945C25.6331 23.3459 24.8619 24.1171 23.9105 24.1171Z" fill="#FCB119"/>
<path d="M83.0864 19.792V19.088L84.3339 18.9419C84.3342 18.8799 84.3344 18.8166 84.3344 18.752C84.345 18.3573 84.3504 17.952 84.3504 17.536V9.472L82.9904 9.248V8.608L85.4064 8L85.7744 8.096L85.7264 10.208V13.472H85.8064C86.0304 13.1627 86.2917 12.8853 86.5904 12.64C86.8997 12.384 87.2304 12.1813 87.5824 12.032C87.9344 11.8827 88.3024 11.808 88.6864 11.808C89.4224 11.808 89.9717 12.0427 90.3344 12.512C90.697 12.9707 90.8784 13.696 90.8784 14.688V17.552C90.889 17.968 90.8944 18.3733 90.8944 18.768L90.8989 18.94L92.0944 19.088V19.792H88.2384V19.088L89.4384 18.9462V18.768C89.449 18.3733 89.4544 17.968 89.4544 17.552C89.465 17.1253 89.4704 16.736 89.4704 16.384V14.896C89.4704 14.2027 89.3637 13.7173 89.1504 13.44C88.937 13.1627 88.585 13.024 88.0944 13.024C87.8277 13.024 87.561 13.0667 87.2944 13.152C87.0277 13.2267 86.7557 13.3493 86.4784 13.52C86.2501 13.657 86.0101 13.8291 85.7584 14.0364V17.536C85.769 17.952 85.7744 18.3573 85.7744 18.752L85.7772 18.8589L85.7792 18.9414L86.9744 19.088V19.792H83.0864Z" fill="#33383D"/>
<path d="M69.525 19.792V19.088L70.7726 18.9432C70.7728 18.8808 70.773 18.817 70.773 18.752V17.536C70.7837 17.1093 70.789 16.7253 70.789 16.384V15.584C70.789 15.168 70.7837 14.8 70.773 14.48C70.773 14.16 70.7677 13.8293 70.757 13.488L69.445 13.392V12.736L71.861 11.872L72.245 11.984L72.213 14.016V18.752L72.2182 18.9401L73.413 19.088V19.792H69.525Z" fill="#33383D"/>
<path d="M71.445 10.272C71.1463 10.272 70.8903 10.1707 70.677 9.968C70.4637 9.76534 70.357 9.51467 70.357 9.216C70.357 8.91734 70.4637 8.672 70.677 8.48C70.8903 8.27733 71.1463 8.176 71.445 8.176C71.7437 8.176 71.9943 8.27733 72.197 8.48C72.4103 8.672 72.517 8.91734 72.517 9.216C72.517 9.51467 72.4103 9.76534 72.197 9.968C71.9943 10.1707 71.7437 10.272 71.445 10.272Z" fill="#33383D"/>
<path d="M47.3292 9.96676L50.176 19.872H51.216L53.504 12.368L53.7696 11.2297L56.336 19.872H57.344L60.1269 9.98533L61.472 9.856V9.072H57.744V9.856L59.1851 9.99456L57.424 16.368L57.1379 17.8665L54.7854 9.98764L56.352 9.856V9.072H51.872V9.856L53.3282 9.97536L51.312 16.304L51.0356 17.7652L48.948 9.98176L50.432 9.856V9.072H46V9.856L47.3292 9.96676Z" fill="#33383D"/>
<path fill-rule="evenodd" clip-rule="evenodd" d="M62.9907 19.52C63.5667 19.84 64.2441 20 65.0227 20C65.5881 20 66.0627 19.9253 66.4467 19.776C66.8414 19.616 67.1774 19.4027 67.4547 19.136C67.7427 18.8587 67.9987 18.544 68.2227 18.192L67.7747 17.824C67.4761 18.176 67.1347 18.448 66.7507 18.64C66.3774 18.832 65.9187 18.928 65.3747 18.928C64.8307 18.928 64.3561 18.8107 63.9507 18.576C63.5561 18.3307 63.2467 17.9787 63.0227 17.52C62.8218 17.0778 62.7154 16.5551 62.7038 15.952H67.9827C68.0147 15.8347 68.0414 15.6853 68.0627 15.504C68.0841 15.312 68.0947 15.12 68.0947 14.928C68.0947 14.2773 67.9614 13.7227 67.6947 13.264C67.4281 12.7947 67.0601 12.4373 66.5907 12.192C66.1214 11.936 65.5774 11.808 64.9587 11.808C64.2547 11.808 63.6201 11.9893 63.0547 12.352C62.4894 12.704 62.0414 13.1947 61.7107 13.824C61.3907 14.4533 61.2307 15.1787 61.2307 16C61.2307 16.8213 61.3801 17.5307 61.6787 18.128C61.9881 18.7253 62.4254 19.1893 62.9907 19.52ZM62.7264 15.232C62.7672 14.7384 62.8606 14.3224 63.0067 13.984C63.2201 13.5147 63.4974 13.168 63.8387 12.944C64.1907 12.72 64.5641 12.608 64.9587 12.608C65.3214 12.608 65.6361 12.6773 65.9027 12.816C66.1694 12.9547 66.3721 13.1573 66.5107 13.424C66.6494 13.6907 66.7187 14.0213 66.7187 14.416C66.7187 14.6187 66.6761 14.7947 66.5907 14.944C66.5054 15.0827 66.3134 15.1787 66.0147 15.232H62.7264Z" fill="#33383D"/>
<path fill-rule="evenodd" clip-rule="evenodd" d="M76.0584 23.328C76.5597 23.4987 77.1784 23.584 77.9144 23.584C78.565 23.584 79.1464 23.5093 79.6584 23.36C80.181 23.2107 80.6237 23.0027 80.9864 22.736C81.349 22.48 81.6264 22.1813 81.8184 21.84C82.021 21.5093 82.1224 21.1573 82.1224 20.784C82.1224 20.368 82.021 20.0053 81.8184 19.696C81.6264 19.3867 81.333 19.1467 80.9384 18.976C80.5544 18.8053 80.069 18.72 79.4824 18.72H77.4664C77.0504 18.72 76.7517 18.6507 76.5704 18.512C76.389 18.3627 76.2984 18.1547 76.2984 17.888C76.2984 17.6747 76.357 17.4773 76.4744 17.296C76.5419 17.2004 76.6301 17.0959 76.7391 16.9825C77.1058 17.0955 77.5083 17.152 77.9464 17.152C78.533 17.152 79.0504 17.0453 79.4984 16.832C79.957 16.608 80.3144 16.2987 80.5704 15.904C80.837 15.4987 80.9704 15.0187 80.9704 14.464C80.9704 14.1227 80.9224 13.824 80.8264 13.568C80.7729 13.4194 80.7078 13.2807 80.6311 13.152H82.2824V11.872L81.8664 11.776L80.1995 12.6558C80.0772 12.5255 79.9342 12.4083 79.7704 12.304C79.5357 12.144 79.2637 12.0213 78.9544 11.936C78.6557 11.8507 78.325 11.808 77.9624 11.808C77.3757 11.808 76.853 11.9147 76.3944 12.128C75.9464 12.3413 75.589 12.6507 75.3224 13.056C75.0664 13.4507 74.9384 13.9307 74.9384 14.496C74.9384 15.0613 75.0664 15.5413 75.3224 15.936C75.5659 16.3114 75.8962 16.6048 76.3134 16.8161C75.8797 17.1029 75.56 17.3749 75.3544 17.632C75.141 17.888 75.0344 18.1707 75.0344 18.48C75.0344 18.832 75.1464 19.1093 75.3704 19.312C75.605 19.504 75.925 19.6373 76.3304 19.712V19.7739C75.9906 19.9078 75.7026 20.0472 75.4664 20.192C75.1464 20.3947 74.917 20.608 74.7784 20.832C74.6397 21.0667 74.5704 21.328 74.5704 21.616C74.5704 22 74.693 22.3413 74.9384 22.64C75.1837 22.9387 75.557 23.168 76.0584 23.328ZM76.6514 19.9188C76.6929 19.9196 76.7353 19.92 76.7784 19.92C76.9384 19.9307 77.0984 19.936 77.2584 19.936H79.2424C79.797 19.936 80.197 20.048 80.4424 20.272C80.6984 20.496 80.8264 20.7893 80.8264 21.152C80.8264 21.44 80.725 21.7067 80.5224 21.952C80.3197 22.208 80.0157 22.4107 79.6104 22.56C79.205 22.7093 78.7037 22.784 78.1064 22.784C77.6264 22.784 77.2264 22.7307 76.9064 22.624C76.5864 22.5173 76.3464 22.352 76.1864 22.128C76.0264 21.9147 75.9464 21.6587 75.9464 21.36C75.9464 21.1467 75.9784 20.9493 76.0424 20.768C76.117 20.5867 76.2184 20.4107 76.3464 20.24C76.4333 20.1329 76.535 20.0259 76.6514 19.9188ZM78.8104 16.176C78.565 16.336 78.2717 16.416 77.9304 16.416C77.589 16.416 77.2957 16.336 77.0504 16.176C76.8157 16.016 76.6344 15.792 76.5064 15.504C76.3784 15.216 76.3144 14.88 76.3144 14.496C76.3144 14.1013 76.3784 13.76 76.5064 13.472C76.645 13.184 76.837 12.96 77.0824 12.8C77.3384 12.6293 77.6317 12.544 77.9624 12.544C78.3037 12.544 78.5917 12.624 78.8264 12.784C79.0717 12.944 79.2584 13.168 79.3864 13.456C79.525 13.7333 79.5944 14.064 79.5944 14.448C79.5944 14.8427 79.525 15.1893 79.3864 15.488C79.2584 15.776 79.0664 16.0053 78.8104 16.176Z" fill="#33383D"/>
<path d="M95.5035 12.912V17.856C95.5035 18.272 95.5888 18.576 95.7595 18.768C95.9302 18.9493 96.1648 19.04 96.4635 19.04C96.6555 19.04 96.8368 19.008 97.0075 18.944C97.1782 18.8693 97.3488 18.7787 97.5195 18.672L97.8875 19.216C97.7702 19.3547 97.6155 19.4827 97.4235 19.6C97.2422 19.7173 97.0342 19.808 96.7995 19.872C96.5648 19.936 96.3035 19.968 96.0155 19.968C95.4288 19.968 94.9595 19.808 94.6075 19.488C94.2555 19.168 94.0795 18.6773 94.0795 18.016V12.912H92.7035V12.176L94.2127 11.9977L94.6395 9.824H95.6155L95.4834 12.016H97.7275V12.912H95.5035Z" fill="#33383D"/>
<path d="M101.386 20C100.885 20 100.426 19.9467 100.01 19.84C99.5944 19.7333 99.1997 19.5947 98.8264 19.424L98.7624 17.536H99.6904L100.014 18.9871C100.106 19.0238 100.201 19.0574 100.298 19.088C100.64 19.184 101.013 19.232 101.418 19.232C101.834 19.232 102.17 19.1787 102.426 19.072C102.693 18.9547 102.89 18.8 103.018 18.608C103.146 18.4053 103.21 18.1867 103.21 17.952C103.21 17.6107 103.088 17.3387 102.842 17.136C102.597 16.9227 102.208 16.7307 101.674 16.56L101.082 16.352C100.624 16.192 100.229 16.0107 99.8984 15.808C99.5677 15.6053 99.3117 15.3653 99.1304 15.088C98.949 14.8 98.8584 14.464 98.8584 14.08C98.8584 13.664 98.9757 13.2853 99.2104 12.944C99.445 12.6027 99.781 12.3307 100.218 12.128C100.656 11.9147 101.184 11.808 101.802 11.808C102.261 11.808 102.688 11.8667 103.082 11.984C103.477 12.0907 103.834 12.2347 104.154 12.416L104.106 14.176H103.21L102.946 12.8277C102.86 12.793 102.772 12.7625 102.682 12.736C102.405 12.64 102.106 12.592 101.786 12.592C101.264 12.592 100.874 12.6987 100.618 12.912C100.362 13.1147 100.234 13.3813 100.234 13.712C100.234 14.0533 100.346 14.32 100.57 14.512C100.794 14.6933 101.184 14.88 101.738 15.072L102.17 15.216C102.725 15.408 103.184 15.6213 103.546 15.856C103.909 16.0907 104.17 16.352 104.33 16.64C104.501 16.928 104.586 17.2587 104.586 17.632C104.586 18.0693 104.464 18.4693 104.218 18.832C103.973 19.184 103.61 19.4667 103.13 19.68C102.661 19.8933 102.08 20 101.386 20Z" fill="#33383D"/>
<path fill-rule="evenodd" clip-rule="evenodd" d="M111.105 19.616C111.628 19.872 112.22 20 112.881 20C113.479 20 113.996 19.92 114.433 19.76C114.881 19.6 115.26 19.392 115.569 19.136C115.767 18.9657 115.945 18.7889 116.103 18.6055C116.278 18.7986 116.458 18.9968 116.641 19.2C116.823 19.392 117.009 19.5467 117.201 19.664C117.393 19.7707 117.601 19.8453 117.825 19.888C118.049 19.9413 118.3 19.968 118.577 19.968C118.823 19.968 119.047 19.952 119.249 19.92C119.463 19.8987 119.676 19.8667 119.889 19.824L119.937 19.056L118.225 18.8835C117.967 18.6055 117.716 18.3377 117.473 18.08C117.327 17.9204 117.183 17.7644 117.043 17.6121C117.295 17.286 117.518 16.9513 117.713 16.608C117.98 16.128 118.209 15.6053 118.401 15.04C118.527 14.6692 118.642 14.2664 118.745 13.8314L119.969 13.68V12.912H116.593V13.68L117.871 13.8206C117.795 14.1911 117.71 14.5389 117.617 14.864C117.468 15.376 117.297 15.8507 117.105 16.288C116.967 16.5942 116.816 16.895 116.651 17.1902C116.588 17.1234 116.526 17.0573 116.465 16.992C116.145 16.64 115.836 16.304 115.537 15.984C115.249 15.664 114.961 15.3547 114.673 15.056C114.396 14.7467 114.151 14.4747 113.937 14.24C113.748 14.0317 113.567 13.8319 113.394 13.6404C114.207 13.2573 114.804 12.8651 115.185 12.464C115.612 12.016 115.825 11.4933 115.825 10.896C115.825 10.2773 115.607 9.78133 115.169 9.408C114.732 9.024 114.129 8.832 113.361 8.832C112.849 8.832 112.391 8.92267 111.985 9.104C111.591 9.28533 111.276 9.552 111.041 9.904C110.807 10.2453 110.689 10.6613 110.689 11.152C110.689 11.4933 110.737 11.8187 110.833 12.128C110.94 12.4373 111.089 12.7413 111.281 13.04C111.452 13.2955 111.655 13.5593 111.893 13.8316C111.425 14.0343 111.018 14.2718 110.673 14.544C110.279 14.8533 109.975 15.216 109.761 15.632C109.559 16.0373 109.457 16.5013 109.457 17.024C109.457 17.6 109.601 18.112 109.889 18.56C110.188 19.008 110.593 19.36 111.105 19.616ZM113.062 13.2546C112.966 13.1418 112.868 13.0276 112.769 12.912C112.545 12.6453 112.369 12.4053 112.241 12.192C112.113 11.9787 112.023 11.776 111.969 11.584C111.916 11.3813 111.889 11.1733 111.889 10.96C111.889 10.512 112.028 10.1547 112.305 9.888C112.583 9.61067 112.929 9.472 113.345 9.472C113.751 9.472 114.081 9.6 114.337 9.856C114.593 10.1013 114.721 10.4533 114.721 10.912C114.721 11.424 114.535 11.8827 114.161 12.288C113.863 12.621 113.497 12.9432 113.062 13.2546ZM115.691 18.1512C115.454 18.3365 115.19 18.4941 114.897 18.624C114.428 18.8373 113.905 18.944 113.329 18.944C112.807 18.944 112.364 18.8427 112.001 18.64C111.639 18.4267 111.367 18.144 111.185 17.792C111.004 17.44 110.913 17.0613 110.913 16.656C110.913 16.3253 110.972 16 111.089 15.68C111.207 15.3493 111.393 15.04 111.649 14.752C111.819 14.5622 112.016 14.3896 112.242 14.2343C112.363 14.3767 112.48 14.5173 112.593 14.656C112.796 14.88 113.004 15.1147 113.217 15.36C113.431 15.6053 113.671 15.8827 113.937 16.192C114.364 16.6827 114.796 17.168 115.233 17.648C115.382 17.8114 115.535 17.9792 115.691 18.1512Z" fill="#33383D"/>
<path fill-rule="evenodd" clip-rule="evenodd" d="M125.057 19.792V19.008L126.602 18.8863C126.607 18.6442 126.609 18.4021 126.609 18.16V10.72C126.609 10.4715 126.606 10.2241 126.602 9.9777L125.057 9.856V9.072H129.809C130.566 9.072 131.217 9.17867 131.761 9.392C132.315 9.60533 132.742 9.90933 133.041 10.304C133.339 10.688 133.489 11.1467 133.489 11.68C133.489 12.16 133.361 12.5813 133.105 12.944C132.859 13.296 132.497 13.584 132.017 13.808C131.547 14.0213 130.971 14.1547 130.289 14.208V14.224C131.11 14.2667 131.798 14.4 132.353 14.624C132.907 14.8373 133.323 15.1307 133.601 15.504C133.889 15.8667 134.033 16.304 134.033 16.816C134.033 17.2213 133.942 17.6053 133.761 17.968C133.59 18.32 133.323 18.6347 132.961 18.912C132.609 19.1893 132.155 19.408 131.601 19.568C131.046 19.7173 130.395 19.792 129.649 19.792H125.057ZM128.209 10.72L128.225 9.888H129.409C129.953 9.888 130.411 9.952 130.785 10.08C131.158 10.208 131.435 10.4107 131.617 10.688C131.809 10.9653 131.905 11.3387 131.905 11.808C131.905 12.2773 131.809 12.6613 131.617 12.96C131.425 13.2587 131.126 13.4827 130.721 13.632C130.326 13.7707 129.819 13.84 129.201 13.84H128.209V10.72ZM128.209 14.656H129.281C130.358 14.656 131.142 14.8373 131.633 15.2C132.134 15.5627 132.385 16.1067 132.385 16.832C132.385 17.5147 132.134 18.0427 131.633 18.416C131.142 18.7787 130.374 18.96 129.329 18.96H128.225L128.209 18.128V14.656Z" fill="#33383D"/>
<path d="M135.353 19.088V19.792H139.241V19.088L138.046 18.9401L138.041 18.752V14.016L138.073 11.984L137.689 11.872L135.273 12.736V13.392L136.585 13.488C136.596 13.8293 136.601 14.16 136.601 14.48C136.612 14.8 136.617 15.168 136.617 15.584V16.384C136.617 16.7253 136.612 17.1093 136.601 17.536V18.752C136.601 18.817 136.601 18.8808 136.601 18.9432L135.353 19.088Z" fill="#33383D"/>
<path d="M136.505 9.968C136.718 10.1707 136.974 10.272 137.273 10.272C137.572 10.272 137.822 10.1707 138.025 9.968C138.238 9.76534 138.345 9.51467 138.345 9.216C138.345 8.91734 138.238 8.672 138.025 8.48C137.822 8.27733 137.572 8.176 137.273 8.176C136.974 8.176 136.718 8.27733 136.505 8.48C136.292 8.672 136.185 8.91734 136.185 9.216C136.185 9.51467 136.292 9.76534 136.505 9.968Z" fill="#33383D"/>
<path fill-rule="evenodd" clip-rule="evenodd" d="M142.766 20.016C142.169 20.016 141.652 19.8453 141.214 19.504C140.788 19.152 140.574 18.6347 140.574 17.952C140.574 17.5893 140.649 17.264 140.798 16.976C140.958 16.6773 141.23 16.4107 141.615 16.176C141.999 15.9307 142.526 15.712 143.198 15.52C143.497 15.4347 143.79 15.3547 144.078 15.28C144.377 15.1947 144.67 15.1093 144.958 15.024C145.049 14.9981 145.14 14.9727 145.23 14.9478V14.56C145.23 14.048 145.172 13.6533 145.055 13.376C144.948 13.088 144.772 12.8907 144.526 12.784C144.292 12.6667 143.988 12.608 143.615 12.608C143.38 12.608 143.14 12.6293 142.895 12.672C142.822 12.6846 142.749 12.6999 142.673 12.7181L142.447 13.728C142.393 14.016 142.292 14.2347 142.142 14.384C142.004 14.5227 141.817 14.592 141.582 14.592C141.337 14.592 141.145 14.528 141.007 14.4C140.879 14.272 140.804 14.112 140.783 13.92C140.921 13.28 141.278 12.768 141.854 12.384C142.43 12 143.15 11.808 144.014 11.808C144.569 11.808 145.038 11.904 145.422 12.096C145.817 12.2773 146.116 12.5707 146.318 12.976C146.532 13.3707 146.638 13.9093 146.638 14.592V18.096C146.638 18.4267 146.697 18.6667 146.814 18.816C146.932 18.9547 147.087 19.024 147.279 19.024C147.417 19.024 147.534 18.9973 147.63 18.944C147.737 18.8907 147.833 18.8267 147.918 18.752L148.19 19.232C148.02 19.4773 147.817 19.664 147.582 19.792C147.358 19.9093 147.097 19.968 146.798 19.968C146.34 19.968 145.972 19.8187 145.694 19.52C145.47 19.2784 145.333 18.9531 145.283 18.544H145.214C144.969 18.832 144.729 19.088 144.494 19.312C144.26 19.536 144.004 19.7067 143.727 19.824C143.46 19.952 143.14 20.016 142.766 20.016ZM144.718 15.76C144.888 15.7067 145.059 15.6534 145.23 15.6001V17.9635C145.022 18.131 144.835 18.2765 144.671 18.4C144.425 18.5813 144.201 18.7147 143.999 18.8C143.807 18.8853 143.593 18.928 143.358 18.928C142.964 18.928 142.644 18.8267 142.398 18.624C142.153 18.4107 142.03 18.1013 142.03 17.696C142.03 17.504 142.068 17.3173 142.142 17.136C142.217 16.944 142.366 16.7627 142.59 16.592C142.814 16.4213 143.15 16.2667 143.598 16.128C143.972 16 144.345 15.8773 144.718 15.76Z" fill="#33383D"/>
<path d="M150.323 19.84C150.739 19.9467 151.198 20 151.699 20C152.392 20 152.974 19.8933 153.443 19.68C153.923 19.4667 154.286 19.184 154.531 18.832C154.776 18.4693 154.899 18.0693 154.899 17.632C154.899 17.2587 154.814 16.928 154.643 16.64C154.483 16.352 154.222 16.0907 153.859 15.856C153.496 15.6213 153.038 15.408 152.483 15.216L152.051 15.072C151.496 14.88 151.107 14.6933 150.883 14.512C150.659 14.32 150.547 14.0533 150.547 13.712C150.547 13.3813 150.675 13.1147 150.931 12.912C151.187 12.6987 151.576 12.592 152.099 12.592C152.419 12.592 152.718 12.64 152.995 12.736C153.084 12.7625 153.172 12.793 153.258 12.8277L153.523 14.176H154.419L154.467 12.416C154.147 12.2347 153.79 12.0907 153.395 11.984C153 11.8667 152.574 11.808 152.115 11.808C151.496 11.808 150.968 11.9147 150.531 12.128C150.094 12.3307 149.758 12.6027 149.523 12.944C149.288 13.2853 149.171 13.664 149.171 14.08C149.171 14.464 149.262 14.8 149.443 15.088C149.624 15.3653 149.88 15.6053 150.211 15.808C150.542 16.0107 150.936 16.192 151.395 16.352L151.987 16.56C152.52 16.7307 152.91 16.9227 153.155 17.136C153.4 17.3387 153.523 17.6107 153.523 17.952C153.523 18.1867 153.459 18.4053 153.331 18.608C153.203 18.8 153.006 18.9547 152.739 19.072C152.483 19.1787 152.147 19.232 151.731 19.232C151.326 19.232 150.952 19.184 150.611 19.088C150.513 19.0574 150.418 19.0238 150.327 18.9871L150.003 17.536H149.075L149.139 19.424C149.512 19.5947 149.907 19.7333 150.323 19.84Z" fill="#33383D"/>
<path fill-rule="evenodd" clip-rule="evenodd" d="M160.132 20C159.353 20 158.676 19.84 158.1 19.52C157.535 19.1893 157.097 18.7253 156.788 18.128C156.489 17.5307 156.34 16.8213 156.34 16C156.34 15.1787 156.5 14.4533 156.82 13.824C157.151 13.1947 157.599 12.704 158.164 12.352C158.729 11.9893 159.364 11.808 160.068 11.808C160.687 11.808 161.231 11.936 161.7 12.192C162.169 12.4373 162.537 12.7947 162.804 13.264C163.071 13.7227 163.204 14.2773 163.204 14.928C163.204 15.12 163.193 15.312 163.172 15.504C163.151 15.6853 163.124 15.8347 163.092 15.952H157.813C157.825 16.5551 157.931 17.0778 158.132 17.52C158.356 17.9787 158.665 18.3307 159.06 18.576C159.465 18.8107 159.94 18.928 160.484 18.928C161.028 18.928 161.487 18.832 161.86 18.64C162.244 18.448 162.585 18.176 162.884 17.824L163.332 18.192C163.108 18.544 162.852 18.8587 162.564 19.136C162.287 19.4027 161.951 19.616 161.556 19.776C161.172 19.9253 160.697 20 160.132 20ZM158.116 13.984C157.97 14.3224 157.877 14.7384 157.836 15.232H161.124C161.423 15.1787 161.615 15.0827 161.7 14.944C161.785 14.7947 161.828 14.6187 161.828 14.416C161.828 14.0213 161.759 13.6907 161.62 13.424C161.481 13.1573 161.279 12.9547 161.012 12.816C160.745 12.6773 160.431 12.608 160.068 12.608C159.673 12.608 159.3 12.72 158.948 12.944C158.607 13.168 158.329 13.5147 158.116 13.984Z" fill="#33383D"/>
<path d="M166.01 19.84C166.426 19.9467 166.885 20 167.386 20C168.08 20 168.661 19.8933 169.13 19.68C169.61 19.4667 169.973 19.184 170.218 18.832C170.464 18.4693 170.586 18.0693 170.586 17.632C170.586 17.2587 170.501 16.928 170.33 16.64C170.17 16.352 169.909 16.0907 169.546 15.856C169.184 15.6213 168.725 15.408 168.17 15.216L167.738 15.072C167.184 14.88 166.794 14.6933 166.57 14.512C166.346 14.32 166.234 14.0533 166.234 13.712C166.234 13.3813 166.362 13.1147 166.618 12.912C166.874 12.6987 167.264 12.592 167.786 12.592C168.106 12.592 168.405 12.64 168.682 12.736C168.772 12.7625 168.859 12.793 168.946 12.8277L169.21 14.176H170.106L170.154 12.416C169.834 12.2347 169.477 12.0907 169.082 11.984C168.688 11.8667 168.261 11.808 167.802 11.808C167.184 11.808 166.656 11.9147 166.218 12.128C165.781 12.3307 165.445 12.6027 165.21 12.944C164.976 13.2853 164.858 13.664 164.858 14.08C164.858 14.464 164.949 14.8 165.13 15.088C165.312 15.3653 165.568 15.6053 165.898 15.808C166.229 16.0107 166.624 16.192 167.082 16.352L167.674 16.56C168.208 16.7307 168.597 16.9227 168.842 17.136C169.088 17.3387 169.21 17.6107 169.21 17.952C169.21 18.1867 169.146 18.4053 169.018 18.608C168.89 18.8 168.693 18.9547 168.426 19.072C168.17 19.1787 167.834 19.232 167.418 19.232C167.013 19.232 166.64 19.184 166.298 19.088C166.201 19.0574 166.106 19.0238 166.014 18.9871L165.69 17.536H164.762L164.826 19.424C165.2 19.5947 165.594 19.7333 166.01 19.84Z" fill="#33383D"/>
<path d="M176.62 20V8.192H179.572C181.396 8.192 182.782 8.702 183.73 9.722C184.678 10.73 185.152 12.17 185.152 14.042C185.152 15.926 184.678 17.39 183.73 18.434C182.794 19.478 181.432 20 179.644 20H176.62ZM178.114 18.776H179.464C180.844 18.776 181.876 18.362 182.56 17.534C183.256 16.694 183.604 15.53 183.604 14.042C183.604 12.554 183.256 11.414 182.56 10.622C181.876 9.818 180.844 9.416 179.464 9.416H178.114V18.776Z" fill="#33383D"/>
<path d="M190.952 20.216C190.244 20.216 189.578 20.036 188.954 19.676C188.342 19.316 187.844 18.794 187.46 18.11C187.088 17.426 186.902 16.604 186.902 15.644C186.902 14.66 187.088 13.826 187.46 13.142C187.844 12.458 188.342 11.936 188.954 11.576C189.578 11.216 190.244 11.036 190.952 11.036C191.672 11.036 192.338 11.216 192.95 11.576C193.562 11.936 194.054 12.458 194.426 13.142C194.81 13.826 195.002 14.66 195.002 15.644C195.002 16.604 194.81 17.426 194.426 18.11C194.054 18.794 193.562 19.316 192.95 19.676C192.338 20.036 191.672 20.216 190.952 20.216ZM190.952 18.992C191.708 18.992 192.314 18.686 192.77 18.074C193.238 17.45 193.472 16.64 193.472 15.644C193.472 14.636 193.238 13.82 192.77 13.196C192.314 12.572 191.708 12.26 190.952 12.26C190.208 12.26 189.602 12.572 189.134 13.196C188.666 13.82 188.432 14.636 188.432 15.644C188.432 16.64 188.666 17.45 189.134 18.074C189.602 18.686 190.208 18.992 190.952 18.992Z" fill="#33383D"/>
<path d="M200.762 20.216C199.994 20.216 199.298 20.036 198.674 19.676C198.05 19.316 197.558 18.794 197.198 18.11C196.838 17.426 196.658 16.604 196.658 15.644C196.658 14.66 196.85 13.826 197.234 13.142C197.63 12.458 198.146 11.936 198.782 11.576C199.43 11.216 200.126 11.036 200.87 11.036C201.446 11.036 201.938 11.138 202.346 11.342C202.766 11.546 203.126 11.786 203.426 12.062L202.67 13.034C202.418 12.806 202.148 12.62 201.86 12.476C201.584 12.332 201.272 12.26 200.924 12.26C200.396 12.26 199.922 12.404 199.502 12.692C199.094 12.968 198.77 13.364 198.53 13.88C198.302 14.384 198.188 14.972 198.188 15.644C198.188 16.64 198.434 17.45 198.926 18.074C199.43 18.686 200.084 18.992 200.888 18.992C201.296 18.992 201.674 18.908 202.022 18.74C202.37 18.56 202.676 18.35 202.94 18.11L203.588 19.1C203.192 19.448 202.754 19.724 202.274 19.928C201.794 20.12 201.29 20.216 200.762 20.216Z" fill="#33383D"/>
<path d="M207.801 20.216C207.177 20.216 206.583 20.102 206.019 19.874C205.455 19.634 204.963 19.346 204.543 19.01L205.281 18.02C205.665 18.32 206.061 18.572 206.469 18.776C206.877 18.968 207.339 19.064 207.855 19.064C208.431 19.064 208.863 18.932 209.151 18.668C209.439 18.392 209.583 18.068 209.583 17.696C209.583 17.396 209.481 17.144 209.277 16.94C209.085 16.736 208.833 16.568 208.521 16.436C208.221 16.292 207.909 16.16 207.585 16.04C207.177 15.884 206.775 15.71 206.379 15.518C205.983 15.314 205.659 15.056 205.407 14.744C205.155 14.42 205.029 14.012 205.029 13.52C205.029 12.812 205.293 12.224 205.821 11.756C206.361 11.276 207.105 11.036 208.053 11.036C208.593 11.036 209.097 11.132 209.565 11.324C210.033 11.516 210.435 11.75 210.771 12.026L210.051 12.962C209.751 12.734 209.439 12.548 209.115 12.404C208.791 12.26 208.437 12.188 208.053 12.188C207.501 12.188 207.093 12.314 206.829 12.566C206.577 12.818 206.451 13.112 206.451 13.448C206.451 13.724 206.541 13.952 206.721 14.132C206.901 14.3 207.135 14.45 207.423 14.582C207.711 14.702 208.017 14.828 208.341 14.96C208.761 15.116 209.175 15.296 209.583 15.5C209.991 15.692 210.327 15.956 210.591 16.292C210.867 16.616 211.005 17.054 211.005 17.606C211.005 18.074 210.879 18.506 210.627 18.902C210.387 19.298 210.027 19.616 209.547 19.856C209.079 20.096 208.497 20.216 207.801 20.216Z" fill="#33383D"/>
</svg>
