<svg width="200" height="27" viewBox="0 0 200 27" fill="none" xmlns="http://www.w3.org/2000/svg">
<g clip-path="url(#clip0_443_7363)">
<path d="M2.75622 3.44533C1.80482 3.44533 1.03356 2.67407 1.03356 1.72267C1.03356 0.771264 1.80482 0 2.75622 0C3.70763 0 4.47889 0.771264 4.47889 1.72267C4.47889 2.67407 3.70763 3.44533 2.75622 3.44533Z" fill="#FCB119"/>
<path d="M2.75622 11.3696C1.234 11.3696 0 10.1356 0 8.61334C0 7.09112 1.234 5.85712 2.75622 5.85712C4.27844 5.85712 5.51244 7.09112 5.51244 8.61334C5.51244 10.1356 4.27844 11.3696 2.75622 11.3696Z" fill="#FCB119"/>
<path d="M2.75622 25.1506C1.234 25.1506 0 23.9166 0 22.3944C0 20.8722 1.234 19.6382 2.75622 19.6382C4.27844 19.6382 5.51244 20.8722 5.51244 22.3944C5.51244 23.9166 4.27844 25.1506 2.75622 25.1506Z" fill="#FCB119"/>
<path d="M1.03356 15.504C1.03356 16.4554 1.80482 17.2267 2.75622 17.2267C3.70763 17.2267 4.47889 16.4554 4.47889 15.504C4.47889 14.5526 3.70763 13.7814 2.75622 13.7814C1.80482 13.7814 1.03356 14.5526 1.03356 15.504Z" fill="#FCB119"/>
<path d="M10.5771 18.0533C10.5771 19.5756 11.8111 20.8096 13.3333 20.8096C14.8555 20.8096 16.0895 19.5756 16.0895 18.0533C16.0895 16.5311 14.8555 15.2971 13.3333 15.2971C11.8111 15.2971 10.5771 16.5311 10.5771 18.0533Z" fill="#FCB119"/>
<path d="M13.3333 26.6667C12.3819 26.6667 11.6106 25.8954 11.6106 24.944C11.6106 23.9926 12.3819 23.2214 13.3333 23.2214C14.2847 23.2214 15.056 23.9926 15.056 24.944C15.056 25.8954 14.2847 26.6667 13.3333 26.6667Z" fill="#FCB119"/>
<path d="M11.6106 11.1629C11.6106 12.1143 12.3819 12.8855 13.3333 12.8855C14.2847 12.8855 15.056 12.1143 15.056 11.1629C15.056 10.2115 14.2847 9.44022 13.3333 9.44022C12.3819 9.44022 11.6106 10.2115 11.6106 11.1629Z" fill="#FCB119"/>
<path d="M13.3333 5.99488C12.3819 5.99488 11.6106 5.22361 11.6106 4.27221C11.6106 3.32081 12.3819 2.54955 13.3333 2.54955C14.2847 2.54955 15.056 3.32081 15.056 4.27221C15.056 5.22361 14.2847 5.99488 13.3333 5.99488Z" fill="#FCB119"/>
<path d="M21.1542 8.61334C21.1542 10.1356 22.3882 11.3696 23.9104 11.3696C25.4326 11.3696 26.6666 10.1356 26.6666 8.61334C26.6666 7.09112 25.4326 5.85712 23.9104 5.85712C22.3882 5.85712 21.1542 7.09112 21.1542 8.61334Z" fill="#FCB119"/>
<path d="M23.9105 3.44533C22.9591 3.44533 22.1878 2.67407 22.1878 1.72267C22.1878 0.771264 22.9591 0 23.9105 0C24.8619 0 25.6331 0.771264 25.6331 1.72267C25.6331 2.67407 24.8619 3.44533 23.9105 3.44533Z" fill="#FCB119"/>
<path d="M22.1878 15.504C22.1878 16.4554 22.9591 17.2267 23.9105 17.2267C24.8619 17.2267 25.6331 16.4554 25.6331 15.504C25.6331 14.5526 24.8619 13.7814 23.9105 13.7814C22.9591 13.7814 22.1878 14.5526 22.1878 15.504Z" fill="#FCB119"/>
<path d="M23.9105 24.1171C22.9591 24.1171 22.1878 23.3459 22.1878 22.3945C22.1878 21.4431 22.9591 20.6718 23.9105 20.6718C24.8619 20.6718 25.6331 21.4431 25.6331 22.3945C25.6331 23.3459 24.8619 24.1171 23.9105 24.1171Z" fill="#FCB119"/>
<path d="M73.0864 19.792V19.088L74.3339 18.9419C74.3342 18.8799 74.3344 18.8166 74.3344 18.752C74.345 18.3573 74.3504 17.952 74.3504 17.536V9.472L72.9904 9.248V8.608L75.4064 8L75.7744 8.096L75.7264 10.208V13.472H75.8064C76.0304 13.1627 76.2917 12.8853 76.5904 12.64C76.8997 12.384 77.2304 12.1813 77.5824 12.032C77.9344 11.8827 78.3024 11.808 78.6864 11.808C79.4224 11.808 79.9717 12.0427 80.3344 12.512C80.697 12.9707 80.8784 13.696 80.8784 14.688V17.552C80.889 17.968 80.8944 18.3733 80.8944 18.768L80.8989 18.94L82.0944 19.088V19.792H78.2384V19.088L79.4384 18.9462V18.768C79.449 18.3733 79.4544 17.968 79.4544 17.552C79.465 17.1253 79.4704 16.736 79.4704 16.384V14.896C79.4704 14.2027 79.3637 13.7173 79.1504 13.44C78.937 13.1627 78.585 13.024 78.0944 13.024C77.8277 13.024 77.561 13.0667 77.2944 13.152C77.0277 13.2267 76.7557 13.3493 76.4784 13.52C76.2501 13.657 76.0101 13.8291 75.7584 14.0364V17.536C75.769 17.952 75.7744 18.3573 75.7744 18.752L75.7772 18.8589L75.7792 18.9414L76.9744 19.088V19.792H73.0864Z" fill="#33383D"/>
<path d="M59.525 19.792V19.088L60.7726 18.9432C60.7728 18.8808 60.773 18.817 60.773 18.752V17.536C60.7837 17.1093 60.789 16.7253 60.789 16.384V15.584C60.789 15.168 60.7837 14.8 60.773 14.48C60.773 14.16 60.7677 13.8293 60.757 13.488L59.445 13.392V12.736L61.861 11.872L62.245 11.984L62.213 14.016V18.752L62.2182 18.9401L63.413 19.088V19.792H59.525Z" fill="#33383D"/>
<path d="M61.445 10.272C61.1463 10.272 60.8903 10.1707 60.677 9.968C60.4637 9.76534 60.357 9.51467 60.357 9.216C60.357 8.91734 60.4637 8.672 60.677 8.48C60.8903 8.27733 61.1463 8.176 61.445 8.176C61.7437 8.176 61.9943 8.27733 62.197 8.48C62.4103 8.672 62.517 8.91734 62.517 9.216C62.517 9.51467 62.4103 9.76534 62.197 9.968C61.9943 10.1707 61.7437 10.272 61.445 10.272Z" fill="#33383D"/>
<path d="M37.3292 9.96676L40.176 19.872H41.216L43.504 12.368L43.7696 11.2297L46.336 19.872H47.344L50.1269 9.98533L51.472 9.856V9.072H47.744V9.856L49.1851 9.99456L47.424 16.368L47.1379 17.8665L44.7854 9.98764L46.352 9.856V9.072H41.872V9.856L43.3282 9.97536L41.312 16.304L41.0356 17.7652L38.948 9.98176L40.432 9.856V9.072H36V9.856L37.3292 9.96676Z" fill="#33383D"/>
<path fill-rule="evenodd" clip-rule="evenodd" d="M52.9907 19.52C53.5667 19.84 54.2441 20 55.0227 20C55.5881 20 56.0627 19.9253 56.4467 19.776C56.8414 19.616 57.1774 19.4027 57.4547 19.136C57.7427 18.8587 57.9987 18.544 58.2227 18.192L57.7747 17.824C57.4761 18.176 57.1347 18.448 56.7507 18.64C56.3774 18.832 55.9187 18.928 55.3747 18.928C54.8307 18.928 54.3561 18.8107 53.9507 18.576C53.5561 18.3307 53.2467 17.9787 53.0227 17.52C52.8218 17.0778 52.7154 16.5551 52.7038 15.952H57.9827C58.0147 15.8347 58.0414 15.6853 58.0627 15.504C58.0841 15.312 58.0947 15.12 58.0947 14.928C58.0947 14.2773 57.9614 13.7227 57.6947 13.264C57.4281 12.7947 57.0601 12.4373 56.5907 12.192C56.1214 11.936 55.5774 11.808 54.9587 11.808C54.2547 11.808 53.6201 11.9893 53.0547 12.352C52.4894 12.704 52.0414 13.1947 51.7107 13.824C51.3907 14.4533 51.2307 15.1787 51.2307 16C51.2307 16.8213 51.3801 17.5307 51.6787 18.128C51.9881 18.7253 52.4254 19.1893 52.9907 19.52ZM52.7264 15.232C52.7672 14.7384 52.8606 14.3224 53.0067 13.984C53.2201 13.5147 53.4974 13.168 53.8387 12.944C54.1907 12.72 54.5641 12.608 54.9587 12.608C55.3214 12.608 55.6361 12.6773 55.9027 12.816C56.1694 12.9547 56.3721 13.1573 56.5107 13.424C56.6494 13.6907 56.7187 14.0213 56.7187 14.416C56.7187 14.6187 56.6761 14.7947 56.5907 14.944C56.5054 15.0827 56.3134 15.1787 56.0147 15.232H52.7264Z" fill="#33383D"/>
<path fill-rule="evenodd" clip-rule="evenodd" d="M66.0584 23.328C66.5597 23.4987 67.1784 23.584 67.9144 23.584C68.565 23.584 69.1464 23.5093 69.6584 23.36C70.181 23.2107 70.6237 23.0027 70.9864 22.736C71.349 22.48 71.6264 22.1813 71.8184 21.84C72.021 21.5093 72.1224 21.1573 72.1224 20.784C72.1224 20.368 72.021 20.0053 71.8184 19.696C71.6264 19.3867 71.333 19.1467 70.9384 18.976C70.5544 18.8053 70.069 18.72 69.4824 18.72H67.4664C67.0504 18.72 66.7517 18.6507 66.5704 18.512C66.389 18.3627 66.2984 18.1547 66.2984 17.888C66.2984 17.6747 66.357 17.4773 66.4744 17.296C66.5419 17.2004 66.6301 17.0959 66.7391 16.9825C67.1058 17.0955 67.5083 17.152 67.9464 17.152C68.533 17.152 69.0504 17.0453 69.4984 16.832C69.957 16.608 70.3144 16.2987 70.5704 15.904C70.837 15.4987 70.9704 15.0187 70.9704 14.464C70.9704 14.1227 70.9224 13.824 70.8264 13.568C70.7729 13.4194 70.7078 13.2807 70.6311 13.152H72.2824V11.872L71.8664 11.776L70.1995 12.6558C70.0772 12.5255 69.9342 12.4083 69.7704 12.304C69.5357 12.144 69.2637 12.0213 68.9544 11.936C68.6557 11.8507 68.325 11.808 67.9624 11.808C67.3757 11.808 66.853 11.9147 66.3944 12.128C65.9464 12.3413 65.589 12.6507 65.3224 13.056C65.0664 13.4507 64.9384 13.9307 64.9384 14.496C64.9384 15.0613 65.0664 15.5413 65.3224 15.936C65.5659 16.3114 65.8962 16.6048 66.3134 16.8161C65.8797 17.1029 65.56 17.3749 65.3544 17.632C65.141 17.888 65.0344 18.1707 65.0344 18.48C65.0344 18.832 65.1464 19.1093 65.3704 19.312C65.605 19.504 65.925 19.6373 66.3304 19.712V19.7739C65.9906 19.9078 65.7026 20.0472 65.4664 20.192C65.1464 20.3947 64.917 20.608 64.7784 20.832C64.6397 21.0667 64.5704 21.328 64.5704 21.616C64.5704 22 64.693 22.3413 64.9384 22.64C65.1837 22.9387 65.557 23.168 66.0584 23.328ZM66.6514 19.9188C66.6929 19.9196 66.7353 19.92 66.7784 19.92C66.9384 19.9307 67.0984 19.936 67.2584 19.936H69.2424C69.797 19.936 70.197 20.048 70.4424 20.272C70.6984 20.496 70.8264 20.7893 70.8264 21.152C70.8264 21.44 70.725 21.7067 70.5224 21.952C70.3197 22.208 70.0157 22.4107 69.6104 22.56C69.205 22.7093 68.7037 22.784 68.1064 22.784C67.6264 22.784 67.2264 22.7307 66.9064 22.624C66.5864 22.5173 66.3464 22.352 66.1864 22.128C66.0264 21.9147 65.9464 21.6587 65.9464 21.36C65.9464 21.1467 65.9784 20.9493 66.0424 20.768C66.117 20.5867 66.2184 20.4107 66.3464 20.24C66.4333 20.1329 66.535 20.0259 66.6514 19.9188ZM68.8104 16.176C68.565 16.336 68.2717 16.416 67.9304 16.416C67.589 16.416 67.2957 16.336 67.0504 16.176C66.8157 16.016 66.6344 15.792 66.5064 15.504C66.3784 15.216 66.3144 14.88 66.3144 14.496C66.3144 14.1013 66.3784 13.76 66.5064 13.472C66.645 13.184 66.837 12.96 67.0824 12.8C67.3384 12.6293 67.6317 12.544 67.9624 12.544C68.3037 12.544 68.5917 12.624 68.8264 12.784C69.0717 12.944 69.2584 13.168 69.3864 13.456C69.525 13.7333 69.5944 14.064 69.5944 14.448C69.5944 14.8427 69.525 15.1893 69.3864 15.488C69.2584 15.776 69.0664 16.0053 68.8104 16.176Z" fill="#33383D"/>
<path d="M85.5035 12.912V17.856C85.5035 18.272 85.5888 18.576 85.7595 18.768C85.9302 18.9493 86.1648 19.04 86.4635 19.04C86.6555 19.04 86.8368 19.008 87.0075 18.944C87.1782 18.8693 87.3488 18.7787 87.5195 18.672L87.8875 19.216C87.7702 19.3547 87.6155 19.4827 87.4235 19.6C87.2422 19.7173 87.0342 19.808 86.7995 19.872C86.5648 19.936 86.3035 19.968 86.0155 19.968C85.4288 19.968 84.9595 19.808 84.6075 19.488C84.2555 19.168 84.0795 18.6773 84.0795 18.016V12.912H82.7035V12.176L84.2127 11.9977L84.6395 9.824H85.6155L85.4834 12.016H87.7275V12.912H85.5035Z" fill="#33383D"/>
<path d="M91.3864 20C90.885 20 90.4264 19.9467 90.0104 19.84C89.5944 19.7333 89.1997 19.5947 88.8264 19.424L88.7624 17.536H89.6904L90.0142 18.9871C90.1058 19.0238 90.2006 19.0574 90.2984 19.088C90.6397 19.184 91.013 19.232 91.4184 19.232C91.8344 19.232 92.1704 19.1787 92.4264 19.072C92.693 18.9547 92.8904 18.8 93.0184 18.608C93.1464 18.4053 93.2104 18.1867 93.2104 17.952C93.2104 17.6107 93.0877 17.3387 92.8424 17.136C92.597 16.9227 92.2077 16.7307 91.6744 16.56L91.0824 16.352C90.6237 16.192 90.229 16.0107 89.8984 15.808C89.5677 15.6053 89.3117 15.3653 89.1304 15.088C88.949 14.8 88.8584 14.464 88.8584 14.08C88.8584 13.664 88.9757 13.2853 89.2104 12.944C89.445 12.6027 89.781 12.3307 90.2184 12.128C90.6557 11.9147 91.1837 11.808 91.8024 11.808C92.261 11.808 92.6877 11.8667 93.0824 11.984C93.477 12.0907 93.8344 12.2347 94.1544 12.416L94.1064 14.176H93.2104L92.9458 12.8277C92.8595 12.793 92.7717 12.7625 92.6824 12.736C92.405 12.64 92.1064 12.592 91.7864 12.592C91.2637 12.592 90.8744 12.6987 90.6184 12.912C90.3624 13.1147 90.2344 13.3813 90.2344 13.712C90.2344 14.0533 90.3464 14.32 90.5704 14.512C90.7944 14.6933 91.1837 14.88 91.7384 15.072L92.1704 15.216C92.725 15.408 93.1837 15.6213 93.5464 15.856C93.909 16.0907 94.1704 16.352 94.3304 16.64C94.501 16.928 94.5864 17.2587 94.5864 17.632C94.5864 18.0693 94.4637 18.4693 94.2184 18.832C93.973 19.184 93.6104 19.4667 93.1304 19.68C92.661 19.8933 92.0797 20 91.3864 20Z" fill="#33383D"/>
<path fill-rule="evenodd" clip-rule="evenodd" d="M101.105 19.616C101.628 19.872 102.22 20 102.881 20C103.479 20 103.996 19.92 104.433 19.76C104.881 19.6 105.26 19.392 105.569 19.136C105.767 18.9657 105.945 18.7889 106.103 18.6055C106.278 18.7986 106.458 18.9968 106.641 19.2C106.823 19.392 107.009 19.5467 107.201 19.664C107.393 19.7707 107.601 19.8453 107.825 19.888C108.049 19.9413 108.3 19.968 108.577 19.968C108.823 19.968 109.047 19.952 109.249 19.92C109.463 19.8987 109.676 19.8667 109.889 19.824L109.937 19.056L108.225 18.8835C107.967 18.6055 107.716 18.3377 107.473 18.08C107.327 17.9204 107.183 17.7644 107.043 17.6121C107.295 17.286 107.518 16.9513 107.713 16.608C107.98 16.128 108.209 15.6053 108.401 15.04C108.527 14.6692 108.642 14.2664 108.745 13.8314L109.969 13.68V12.912H106.593V13.68L107.871 13.8206C107.795 14.1911 107.71 14.5389 107.617 14.864C107.468 15.376 107.297 15.8507 107.105 16.288C106.967 16.5942 106.816 16.895 106.651 17.1902C106.588 17.1234 106.526 17.0573 106.465 16.992C106.145 16.64 105.836 16.304 105.537 15.984C105.249 15.664 104.961 15.3547 104.673 15.056C104.396 14.7467 104.151 14.4747 103.937 14.24C103.748 14.0317 103.567 13.8319 103.394 13.6404C104.207 13.2573 104.804 12.8651 105.185 12.464C105.612 12.016 105.825 11.4933 105.825 10.896C105.825 10.2773 105.607 9.78133 105.169 9.408C104.732 9.024 104.129 8.832 103.361 8.832C102.849 8.832 102.391 8.92267 101.985 9.104C101.591 9.28533 101.276 9.552 101.041 9.904C100.807 10.2453 100.689 10.6613 100.689 11.152C100.689 11.4933 100.737 11.8187 100.833 12.128C100.94 12.4373 101.089 12.7413 101.281 13.04C101.452 13.2955 101.655 13.5593 101.893 13.8316C101.425 14.0343 101.018 14.2718 100.673 14.544C100.279 14.8533 99.9746 15.216 99.7612 15.632C99.5586 16.0373 99.4572 16.5013 99.4572 17.024C99.4572 17.6 99.6012 18.112 99.8892 18.56C100.188 19.008 100.593 19.36 101.105 19.616ZM103.062 13.2546C102.966 13.1418 102.868 13.0276 102.769 12.912C102.545 12.6453 102.369 12.4053 102.241 12.192C102.113 11.9787 102.023 11.776 101.969 11.584C101.916 11.3813 101.889 11.1733 101.889 10.96C101.889 10.512 102.028 10.1547 102.305 9.888C102.583 9.61067 102.929 9.472 103.345 9.472C103.751 9.472 104.081 9.6 104.337 9.856C104.593 10.1013 104.721 10.4533 104.721 10.912C104.721 11.424 104.535 11.8827 104.161 12.288C103.863 12.621 103.497 12.9432 103.062 13.2546ZM105.691 18.1512C105.454 18.3365 105.19 18.4941 104.897 18.624C104.428 18.8373 103.905 18.944 103.329 18.944C102.807 18.944 102.364 18.8427 102.001 18.64C101.639 18.4267 101.367 18.144 101.185 17.792C101.004 17.44 100.913 17.0613 100.913 16.656C100.913 16.3253 100.972 16 101.089 15.68C101.207 15.3493 101.393 15.04 101.649 14.752C101.819 14.5622 102.016 14.3896 102.242 14.2343C102.363 14.3767 102.48 14.5173 102.593 14.656C102.796 14.88 103.004 15.1147 103.217 15.36C103.431 15.6053 103.671 15.8827 103.937 16.192C104.364 16.6827 104.796 17.168 105.233 17.648C105.382 17.8114 105.535 17.9792 105.691 18.1512Z" fill="#33383D"/>
<path fill-rule="evenodd" clip-rule="evenodd" d="M115.057 19.792V19.008L116.602 18.8863C116.607 18.6442 116.609 18.4021 116.609 18.16V10.72C116.609 10.4715 116.606 10.2241 116.602 9.9777L115.057 9.856V9.072H119.809C120.566 9.072 121.217 9.17867 121.761 9.392C122.315 9.60533 122.742 9.90933 123.041 10.304C123.339 10.688 123.489 11.1467 123.489 11.68C123.489 12.16 123.361 12.5813 123.105 12.944C122.859 13.296 122.497 13.584 122.017 13.808C121.547 14.0213 120.971 14.1547 120.289 14.208V14.224C121.11 14.2667 121.798 14.4 122.353 14.624C122.907 14.8373 123.323 15.1307 123.601 15.504C123.889 15.8667 124.033 16.304 124.033 16.816C124.033 17.2213 123.942 17.6053 123.761 17.968C123.59 18.32 123.323 18.6347 122.961 18.912C122.609 19.1893 122.155 19.408 121.601 19.568C121.046 19.7173 120.395 19.792 119.649 19.792H115.057ZM118.209 10.72L118.225 9.888H119.409C119.953 9.888 120.411 9.952 120.785 10.08C121.158 10.208 121.435 10.4107 121.617 10.688C121.809 10.9653 121.905 11.3387 121.905 11.808C121.905 12.2773 121.809 12.6613 121.617 12.96C121.425 13.2587 121.126 13.4827 120.721 13.632C120.326 13.7707 119.819 13.84 119.201 13.84H118.209V10.72ZM118.209 14.656H119.281C120.358 14.656 121.142 14.8373 121.633 15.2C122.134 15.5627 122.385 16.1067 122.385 16.832C122.385 17.5147 122.134 18.0427 121.633 18.416C121.142 18.7787 120.374 18.96 119.329 18.96H118.225L118.209 18.128V14.656Z" fill="#33383D"/>
<path d="M125.353 19.088V19.792H129.241V19.088L128.046 18.9401L128.041 18.752V14.016L128.073 11.984L127.689 11.872L125.273 12.736V13.392L126.585 13.488C126.596 13.8293 126.601 14.16 126.601 14.48C126.612 14.8 126.617 15.168 126.617 15.584V16.384C126.617 16.7253 126.612 17.1093 126.601 17.536V18.752C126.601 18.817 126.601 18.8808 126.601 18.9432L125.353 19.088Z" fill="#33383D"/>
<path d="M126.505 9.968C126.718 10.1707 126.974 10.272 127.273 10.272C127.572 10.272 127.822 10.1707 128.025 9.968C128.238 9.76534 128.345 9.51467 128.345 9.216C128.345 8.91734 128.238 8.672 128.025 8.48C127.822 8.27733 127.572 8.176 127.273 8.176C126.974 8.176 126.718 8.27733 126.505 8.48C126.292 8.672 126.185 8.91734 126.185 9.216C126.185 9.51467 126.292 9.76534 126.505 9.968Z" fill="#33383D"/>
<path fill-rule="evenodd" clip-rule="evenodd" d="M132.766 20.016C132.169 20.016 131.652 19.8453 131.214 19.504C130.788 19.152 130.574 18.6347 130.574 17.952C130.574 17.5893 130.649 17.264 130.798 16.976C130.958 16.6773 131.23 16.4107 131.615 16.176C131.999 15.9307 132.526 15.712 133.198 15.52C133.497 15.4347 133.79 15.3547 134.078 15.28C134.377 15.1947 134.67 15.1093 134.958 15.024C135.049 14.9981 135.14 14.9727 135.23 14.9478V14.56C135.23 14.048 135.172 13.6533 135.055 13.376C134.948 13.088 134.772 12.8907 134.526 12.784C134.292 12.6667 133.988 12.608 133.615 12.608C133.38 12.608 133.14 12.6293 132.895 12.672C132.822 12.6846 132.749 12.6999 132.673 12.7181L132.447 13.728C132.393 14.016 132.292 14.2347 132.142 14.384C132.004 14.5227 131.817 14.592 131.582 14.592C131.337 14.592 131.145 14.528 131.007 14.4C130.879 14.272 130.804 14.112 130.783 13.92C130.921 13.28 131.278 12.768 131.854 12.384C132.43 12 133.15 11.808 134.014 11.808C134.569 11.808 135.038 11.904 135.422 12.096C135.817 12.2773 136.116 12.5707 136.318 12.976C136.532 13.3707 136.638 13.9093 136.638 14.592V18.096C136.638 18.4267 136.697 18.6667 136.814 18.816C136.932 18.9547 137.087 19.024 137.279 19.024C137.417 19.024 137.534 18.9973 137.63 18.944C137.737 18.8907 137.833 18.8267 137.918 18.752L138.19 19.232C138.02 19.4773 137.817 19.664 137.582 19.792C137.358 19.9093 137.097 19.968 136.798 19.968C136.34 19.968 135.972 19.8187 135.694 19.52C135.47 19.2784 135.333 18.9531 135.283 18.544H135.214C134.969 18.832 134.729 19.088 134.494 19.312C134.26 19.536 134.004 19.7067 133.727 19.824C133.46 19.952 133.14 20.016 132.766 20.016ZM134.718 15.76C134.888 15.7067 135.059 15.6534 135.23 15.6001V17.9635C135.022 18.131 134.835 18.2765 134.671 18.4C134.425 18.5813 134.201 18.7147 133.999 18.8C133.807 18.8853 133.593 18.928 133.358 18.928C132.964 18.928 132.644 18.8267 132.398 18.624C132.153 18.4107 132.03 18.1013 132.03 17.696C132.03 17.504 132.068 17.3173 132.142 17.136C132.217 16.944 132.366 16.7627 132.59 16.592C132.814 16.4213 133.15 16.2667 133.598 16.128C133.972 16 134.345 15.8773 134.718 15.76Z" fill="#33383D"/>
<path d="M140.323 19.84C140.739 19.9467 141.198 20 141.699 20C142.392 20 142.974 19.8933 143.443 19.68C143.923 19.4667 144.286 19.184 144.531 18.832C144.776 18.4693 144.899 18.0693 144.899 17.632C144.899 17.2587 144.814 16.928 144.643 16.64C144.483 16.352 144.222 16.0907 143.859 15.856C143.496 15.6213 143.038 15.408 142.483 15.216L142.051 15.072C141.496 14.88 141.107 14.6933 140.883 14.512C140.659 14.32 140.547 14.0533 140.547 13.712C140.547 13.3813 140.675 13.1147 140.931 12.912C141.187 12.6987 141.576 12.592 142.099 12.592C142.419 12.592 142.718 12.64 142.995 12.736C143.084 12.7625 143.172 12.793 143.258 12.8277L143.523 14.176H144.419L144.467 12.416C144.147 12.2347 143.79 12.0907 143.395 11.984C143 11.8667 142.574 11.808 142.115 11.808C141.496 11.808 140.968 11.9147 140.531 12.128C140.094 12.3307 139.758 12.6027 139.523 12.944C139.288 13.2853 139.171 13.664 139.171 14.08C139.171 14.464 139.262 14.8 139.443 15.088C139.624 15.3653 139.88 15.6053 140.211 15.808C140.542 16.0107 140.936 16.192 141.395 16.352L141.987 16.56C142.52 16.7307 142.91 16.9227 143.155 17.136C143.4 17.3387 143.523 17.6107 143.523 17.952C143.523 18.1867 143.459 18.4053 143.331 18.608C143.203 18.8 143.006 18.9547 142.739 19.072C142.483 19.1787 142.147 19.232 141.731 19.232C141.326 19.232 140.952 19.184 140.611 19.088C140.513 19.0574 140.418 19.0238 140.327 18.9871L140.003 17.536H139.075L139.139 19.424C139.512 19.5947 139.907 19.7333 140.323 19.84Z" fill="#33383D"/>
<path fill-rule="evenodd" clip-rule="evenodd" d="M150.132 20C149.353 20 148.676 19.84 148.1 19.52C147.535 19.1893 147.097 18.7253 146.788 18.128C146.489 17.5307 146.34 16.8213 146.34 16C146.34 15.1787 146.5 14.4533 146.82 13.824C147.151 13.1947 147.599 12.704 148.164 12.352C148.729 11.9893 149.364 11.808 150.068 11.808C150.687 11.808 151.231 11.936 151.7 12.192C152.169 12.4373 152.537 12.7947 152.804 13.264C153.071 13.7227 153.204 14.2773 153.204 14.928C153.204 15.12 153.193 15.312 153.172 15.504C153.151 15.6853 153.124 15.8347 153.092 15.952H147.813C147.825 16.5551 147.931 17.0778 148.132 17.52C148.356 17.9787 148.665 18.3307 149.06 18.576C149.465 18.8107 149.94 18.928 150.484 18.928C151.028 18.928 151.487 18.832 151.86 18.64C152.244 18.448 152.585 18.176 152.884 17.824L153.332 18.192C153.108 18.544 152.852 18.8587 152.564 19.136C152.287 19.4027 151.951 19.616 151.556 19.776C151.172 19.9253 150.697 20 150.132 20ZM148.116 13.984C147.97 14.3224 147.877 14.7384 147.836 15.232H151.124C151.423 15.1787 151.615 15.0827 151.7 14.944C151.785 14.7947 151.828 14.6187 151.828 14.416C151.828 14.0213 151.759 13.6907 151.62 13.424C151.481 13.1573 151.279 12.9547 151.012 12.816C150.745 12.6773 150.431 12.608 150.068 12.608C149.673 12.608 149.3 12.72 148.948 12.944C148.607 13.168 148.329 13.5147 148.116 13.984Z" fill="#33383D"/>
<path d="M156.01 19.84C156.426 19.9467 156.885 20 157.386 20C158.08 20 158.661 19.8933 159.13 19.68C159.61 19.4667 159.973 19.184 160.218 18.832C160.464 18.4693 160.586 18.0693 160.586 17.632C160.586 17.2587 160.501 16.928 160.33 16.64C160.17 16.352 159.909 16.0907 159.546 15.856C159.184 15.6213 158.725 15.408 158.17 15.216L157.738 15.072C157.184 14.88 156.794 14.6933 156.57 14.512C156.346 14.32 156.234 14.0533 156.234 13.712C156.234 13.3813 156.362 13.1147 156.618 12.912C156.874 12.6987 157.264 12.592 157.786 12.592C158.106 12.592 158.405 12.64 158.682 12.736C158.772 12.7625 158.859 12.793 158.946 12.8277L159.21 14.176H160.106L160.154 12.416C159.834 12.2347 159.477 12.0907 159.082 11.984C158.688 11.8667 158.261 11.808 157.802 11.808C157.184 11.808 156.656 11.9147 156.218 12.128C155.781 12.3307 155.445 12.6027 155.21 12.944C154.976 13.2853 154.858 13.664 154.858 14.08C154.858 14.464 154.949 14.8 155.13 15.088C155.312 15.3653 155.568 15.6053 155.898 15.808C156.229 16.0107 156.624 16.192 157.082 16.352L157.674 16.56C158.208 16.7307 158.597 16.9227 158.842 17.136C159.088 17.3387 159.21 17.6107 159.21 17.952C159.21 18.1867 159.146 18.4053 159.018 18.608C158.89 18.8 158.693 18.9547 158.426 19.072C158.17 19.1787 157.834 19.232 157.418 19.232C157.013 19.232 156.64 19.184 156.298 19.088C156.201 19.0574 156.106 19.0238 156.014 18.9871L155.69 17.536H154.762L154.826 19.424C155.2 19.5947 155.594 19.7333 156.01 19.84Z" fill="#33383D"/>
<path d="M168.844 14.687C168.844 15.49 168.844 16.2655 168.844 17.0135C168.855 17.7615 168.866 18.4985 168.877 19.2245H170.181C171.457 19.2245 172.436 18.812 173.118 17.987C173.8 17.151 174.141 15.985 174.141 14.489C174.141 12.938 173.805 11.7555 173.134 10.9415C172.463 10.1275 171.528 9.7205 170.329 9.7205H168.877C168.866 10.4245 168.855 11.145 168.844 11.882C168.844 12.608 168.844 13.3395 168.844 14.0765V14.687ZM165.726 9.638V8.9615H170.593C171.649 8.9615 172.579 9.176 173.382 9.605C174.185 10.023 174.812 10.6445 175.263 11.4695C175.714 12.2835 175.939 13.29 175.939 14.489C175.939 15.677 175.692 16.6835 175.197 17.5085C174.702 18.3225 174.025 18.944 173.167 19.373C172.32 19.791 171.358 20 170.28 20H165.726V19.3235L167.244 19.142C167.266 18.438 167.277 17.723 167.277 16.997C167.277 16.26 167.277 15.49 167.277 14.687V14.0765C167.277 13.3615 167.277 12.652 167.277 11.948C167.277 11.233 167.266 10.5235 167.244 9.8195L165.726 9.638Z" fill="#0096AD"/>
<path d="M181.235 20.2145C180.597 20.2145 179.987 20.066 179.404 19.769C178.832 19.461 178.364 19.0045 178.001 18.3995C177.638 17.7835 177.457 17.0245 177.457 16.1225C177.457 15.2095 177.638 14.445 178.001 13.829C178.364 13.202 178.832 12.7345 179.404 12.4265C179.987 12.1075 180.597 11.948 181.235 11.948C181.873 11.948 182.478 12.1075 183.05 12.4265C183.633 12.7345 184.106 13.202 184.469 13.829C184.843 14.445 185.03 15.2095 185.03 16.1225C185.03 17.0245 184.843 17.7835 184.469 18.3995C184.106 19.0045 183.633 19.461 183.05 19.769C182.478 20.066 181.873 20.2145 181.235 20.2145ZM181.235 19.472C181.95 19.472 182.5 19.1915 182.885 18.6305C183.27 18.0585 183.463 17.2225 183.463 16.1225C183.463 15.0115 183.27 14.1645 182.885 13.5815C182.5 12.9985 181.95 12.707 181.235 12.707C180.52 12.707 179.97 12.9985 179.585 13.5815C179.211 14.1645 179.024 15.0115 179.024 16.1225C179.024 17.2225 179.211 18.0585 179.585 18.6305C179.97 19.1915 180.52 19.472 181.235 19.472Z" fill="#0096AD"/>
<path d="M190.176 20.2145C189.043 20.2145 188.141 19.846 187.47 19.109C186.799 18.372 186.463 17.371 186.463 16.106C186.463 15.237 186.639 14.4945 186.991 13.8785C187.354 13.2515 187.827 12.773 188.41 12.443C188.993 12.113 189.615 11.948 190.275 11.948C190.77 11.948 191.226 12.0415 191.644 12.2285C192.062 12.4155 192.409 12.674 192.684 13.004C192.959 13.323 193.129 13.686 193.195 14.093C193.118 14.511 192.865 14.72 192.436 14.72C192.161 14.72 191.952 14.6485 191.809 14.5055C191.677 14.3515 191.584 14.159 191.529 13.928L191.232 12.839C191.078 12.784 190.924 12.751 190.77 12.74C190.627 12.718 190.484 12.707 190.341 12.707C189.637 12.707 189.054 12.982 188.592 13.532C188.141 14.082 187.915 14.885 187.915 15.941C187.915 16.975 188.163 17.767 188.658 18.317C189.153 18.867 189.785 19.142 190.555 19.142C191.028 19.142 191.463 19.0375 191.859 18.8285C192.255 18.6085 192.579 18.295 192.832 17.888L193.245 18.1025C193.014 18.7845 192.64 19.307 192.123 19.67C191.606 20.033 190.957 20.2145 190.176 20.2145Z" fill="#0096AD"/>
<path d="M197.127 20.2145C196.665 20.2145 196.241 20.1595 195.856 20.0495C195.471 19.9505 195.075 19.7965 194.668 19.5875L194.602 17.7725H195.51L195.823 19.208C196.208 19.384 196.654 19.472 197.16 19.472C197.787 19.472 198.249 19.3565 198.546 19.1255C198.854 18.8945 199.008 18.592 199.008 18.218C199.008 17.866 198.881 17.5855 198.628 17.3765C198.375 17.1565 197.99 16.9585 197.473 16.7825L196.714 16.502C196.109 16.282 195.625 15.996 195.262 15.644C194.899 15.292 194.718 14.8355 194.718 14.2745C194.718 13.8675 194.828 13.488 195.048 13.136C195.268 12.784 195.592 12.498 196.021 12.278C196.45 12.058 196.973 11.948 197.589 11.948C198.04 11.948 198.447 12.0085 198.81 12.1295C199.184 12.2395 199.547 12.4045 199.899 12.6245L199.833 14.3075H198.975L198.711 12.9875C198.337 12.8005 197.957 12.707 197.572 12.707C197.066 12.707 196.681 12.8115 196.417 13.0205C196.164 13.2185 196.038 13.488 196.038 13.829C196.038 14.192 196.148 14.467 196.368 14.654C196.599 14.841 196.995 15.039 197.556 15.248L198.067 15.4295C198.892 15.7375 199.475 16.0895 199.816 16.4855C200.168 16.8815 200.344 17.338 200.344 17.855C200.344 18.273 200.223 18.6635 199.981 19.0265C199.739 19.3785 199.382 19.6645 198.909 19.8845C198.436 20.1045 197.842 20.2145 197.127 20.2145Z" fill="#0096AD"/>
</g>
<defs>
<clipPath id="clip0_443_7363">
<rect width="200" height="27" fill="white"/>
</clipPath>
</defs>
</svg>
