<svg fill="none" height="24" viewBox="0 0 24 24" width="24" xmlns="http://www.w3.org/2000/svg"><g fill="#fff"><path d="m15 8.24995c-.4142 0-.75.33579-.75.75 0 .41422.3358.75.75.75h3c.4142 0 .75-.33578.75-.75 0-.41421-.3358-.75-.75-.75z"/><path d="m14.25 12.5c0-.4143.3358-.75.75-.75h3c.4142 0 .75.3357.75.75 0 .4142-.3358.75-.75.75h-3c-.4142 0-.75-.3358-.75-.75z"/><path d="m15 15.25c-.4142 0-.75.3357-.75.75 0 .4142.3358.75.75.75h3c.4142 0 .75-.3358.75-.75 0-.4143-.3358-.75-.75-.75z"/><path clip-rule="evenodd" d="m9.08402 2.45113c1.56228.45997 2.66418 1.26174 3.28918 1.79882h6.8168c1.5686 0 2.81 1.31959 2.81 2.88689v10.71576c0 1.5625-1.2367 2.8974-2.81 2.8974h-14.38c-1.54422 0-2.81-1.2658-2.81-2.81v-10.97008c0-1.54421 1.26578-2.80999 2.81-2.80999h.28v-.28997c0-.98904.80663-1.81467 1.82586-1.77952.62625.02197 1.37044.12053 2.16816.36069zm-2.49402 1.41883c0-.17096.1334-.28527.27417-.28041.51303.01803 1.12823.09924 1.78941.2985l.00479.00142c1.18193.34763 2.04983.93337 2.59163 1.37614v12.70579c-.5104-.4473-1.1624-.8919-1.97543-1.2254l-.00161-.0006c-.90938-.3705-1.76756-.4916-2.42551-.5245l-.0102-.0004c-.12848-.0047-.24725-.1157-.24725-.2705zm6.16 15.38004v-13.50005h6.44c.6914 0 1.31.59839 1.31 1.38689v10.71576c0 .7934-.6233 1.3974-1.31 1.3974zm-2.3236 0c-.4247-.4023-.99096-.8166-1.72009-1.1158-.70848-.2885-1.38828-.3875-1.92945-.4149-.96855-.0384-1.68686-.846-1.68686-1.7693v-10.29007h-.28c-.71579 0-1.31.59421-1.31 1.30999v10.97008c0 .7157.59421 1.31 1.31 1.31z" fill-rule="evenodd"/></g></svg>