<svg fill="none" height="18" viewBox="0 0 18 18" width="18" xmlns="http://www.w3.org/2000/svg"><path d="m15.1867 9c0-.08186-.0175-.15964-.0489-.22982l-.0919-.14273c-.0077-.00878-.0158-.01738-.0242-.02578l-5.43669-5.43667c-.22-.22-.57668-.22-.79667 0-.21999.21999-.21999.57667 0 .79666l4.47496 4.47501h-9.69997c-.31112 0-.56333.25221-.56333.56333s.25221.56333.56333.56333h9.70007l-4.47506 4.47497c-.21999.22-.21999.5767 0 .7967s.57668.22.79667 0l5.43669-5.43666.0012-.0012c.0518-.05218.0914-.11198.1186-.17578.0291-.06796.0452-.14278.0452-.22136z" fill="#038899"/></svg>