<svg fill="none" height="24" viewBox="0 0 24 24" width="24" xmlns="http://www.w3.org/2000/svg"><path d="m20.2489 12c0-.1091-.0233-.2129-.0651-.3064l-.1226-.1903c-.0103-.0117-.0211-.0232-.0323-.0344l-7.2489-7.2489c-.2933-.29333-.7689-.29333-1.0622-.00001-.2933.29333-.2933.7689 0 1.06223l5.9667 5.96668h-12.93339c-.41483 0-.75111.3363-.75111.7511s.33628.7511.75111.7511h12.93339l-5.9667 5.9667c-.2933.2933-.2933.7689 0 1.0622s.7689.2933 1.0622 0l7.2489-7.2489.0016-.0016c.0692-.0696.1219-.1493.1582-.2344.0388-.0906.0602-.1903.0602-.2951z" fill="#33373d"/></svg>