<svg fill="none" height="24" viewBox="0 0 24 24" width="24" xmlns="http://www.w3.org/2000/svg"><g fill="#33373d"><path clip-rule="evenodd" d="m19.5207 12.8021c1.4399-.0607 2.2605-1.6717 1.463-2.87215l-1.1455-1.72408c-.0563-.08473-.0729-.18975-.0456-.28773l.5561-1.9938c.3873-1.3882-.8913-2.66646-2.2794-2.27891l-1.9937.55663c-.098.02735-.203.01073-.2877-.04554l-1.7244-1.14504c-1.2006-.79724-2.8114.02376-2.8718 1.46368l-.0866 2.0681c-.0043.10163-.0526.19638-.1323.25958l-1.62182 1.28613c-1.12923.89548-.84618 2.68113.50461 3.18353l1.32021.491-7.70613 7.7061c-.29289.2929-.29289.7678 0 1.0607s.76777.2929 1.06066 0l7.70437-7.7044.489 1.314c.5027 1.3507 2.2884 1.6333 3.1836.5038l1.2858-1.6221c.0632-.0798.1579-.128.2595-.1323zm-6.8355-2.029c-.114-.0745-.2368-.1367-.3666-.185l-1.9401-.72154c-.2556-.09504-.3091-.43287-.0955-.60228l1.6218-1.28613c.4213-.33407.6764-.83488.6989-1.37206l.0867-2.0681c.0115-.27242.3162-.42774.5433-.27691l1.7244 1.14503c.4479.29742 1.003.38528 1.5209.2407l1.9936-.55663c.2627-.07332.5046.16851.4313.43115l-.5561 1.9938c-.1445.51788-.0565 1.07299.241 1.52082l1.1455 1.72405c.1509.2271-.0044.5319-.2768.5434l-2.0681.0872c-.5372.0227-1.0379.2779-1.3719.6992l-1.2857 1.6222c-.1694.2137-.5072.1602-.6023-.0953l-.722-1.9399c-.0472-.1267-.1076-.2467-.1797-.3583-.0317-.1279-.0975-.249-.1975-.3489-.0989-.0989-.2187-.1645-.3451-.1965z" fill-rule="evenodd"/><path d="m5.5 3.24995c.41421 0 .75.33579.75.75v.75h.75c.41421 0 .75.33579.75.75 0 .41422-.33579.75-.75.75h-.75v.75c0 .41422-.33579.75-.75.75s-.75-.33578-.75-.75v-.75h-.75c-.41421 0-.75-.33578-.75-.75 0-.41421.33579-.75.75-.75h.75v-.75c0-.41421.33579-.75.75-.75z"/><path d="m19.25 17c0-.4143-.3358-.75-.75-.75s-.75.3357-.75.75v.75h-.75c-.4142 0-.75.3357-.75.75 0 .4142.3358.75.75.75h.75v.75c0 .4142.3358.75.75.75s.75-.3358.75-.75v-.75h.75c.4142 0 .75-.3358.75-.75 0-.4143-.3358-.75-.75-.75h-.75z"/></g></svg>