<svg fill="none" height="24" viewBox="0 0 24 24" width="24" xmlns="http://www.w3.org/2000/svg"><g fill="#33373d"><path d="m13.6571 4.26656c.4051.08679.663.48548.5763.8905l-3 14.00004c-.0868.405-.4855.663-.8905.5762-.40506-.0868-.66304-.4855-.57625-.8905l3.00005-14.00004c.0867-.40501.4854-.66299.8904-.5762z"/><path d="m7.53033 7.46961c.29289.29289.29289.76777 0 1.06066l-3.46967 3.46963 3.46967 3.4697c.29289.2929.29289.7678 0 1.0607s-.76777.2929-1.06066 0l-4-4c-.29289-.2929-.29289-.7678 0-1.0607l4-3.99999c.29289-.29289.76777-.29289 1.06066 0z"/><path d="m16.4697 8.53027c-.2929-.29289-.2929-.76777 0-1.06066s.7677-.29289 1.0606 0l4 3.99999c.2929.2929.2929.7678 0 1.0607l-4 4c-.2929.2929-.7677.2929-1.0606 0s-.2929-.7678 0-1.0607l3.4696-3.4697z"/></g></svg>