<svg fill="none" height="24" viewBox="0 0 24 24" width="24" xmlns="http://www.w3.org/2000/svg"><g fill="#33373d"><path d="m8 6.50003c0 .55229-.44771.99997-1 .99997s-1-.44768-1-.99997.44771-1.00003 1-1.00003 1 .44774 1 1.00003z"/><path d="m12.8458 10.7685c.4039.0916.6572.4933.5656.8973l-1.36 6c-.0915.4039-.4932.6572-.8972.5656-.404-.0915-.6572-.4932-.5656-.8972l1.3599-6c.0916-.404.4933-.6572.8973-.5657z"/><path d="m9.53033 13.0303c.29289-.2929.29289-.7677 0-1.0606s-.76777-.2929-1.06066 0l-2 2c-.29289.2929-.29289.7677 0 1.0606l2 2c.29289.2929.76777.2929 1.06066 0s.29289-.7677 0-1.0606l-1.46967-1.4697z"/><path d="m14.4697 13.0303c-.2929-.2929-.2929-.7677 0-1.0606s.7677-.2929 1.0606 0l2 2c.2929.2929.2929.7677 0 1.0606l-2 2c-.2929.2929-.7677.2929-1.0606 0s-.2929-.7677 0-1.0606l1.4696-1.4697z"/><path clip-rule="evenodd" d="m6.5 2.75c-2.07107 0-3.75 1.67893-3.75 3.75v11c0 2.0711 1.67893 3.75 3.75 3.75h11c2.0711 0 3.75-1.6789 3.75-3.75v-11c0-2.07107-1.6789-3.75-3.75-3.75zm-2.25 3.75c0-1.24264 1.00736-2.25 2.25-2.25h11c1.2426 0 2.25 1.00736 2.25 2.25v1.55c0 .11046-.0895.2-.2.2h-15.1c-.11046 0-.2-.08954-.2-.2zm15.3 3.25c.1105 0 .2.08954.2.2v7.55c0 1.2426-1.0074 2.25-2.25 2.25h-11c-1.24264 0-2.25-1.0074-2.25-2.25v-7.55c0-.11046.08954-.2.2-.2z" fill-rule="evenodd"/></g></svg>