<svg fill="none" height="18" viewBox="0 0 18 18" width="18" xmlns="http://www.w3.org/2000/svg"><path clip-rule="evenodd" d="m8.25 1.6875c-3.62437 0-6.5625 2.93813-6.5625 6.5625 0 3.6244 2.93813 6.5625 6.5625 6.5625 1.60967 0 3.084-.5795 4.2257-1.5413l2.5016 2.5015c.2196.2197.5758.2197.7954 0 .2197-.2196.2197-.5758 0-.7954l-2.5015-2.5016c.9618-1.1417 1.5413-2.61603 1.5413-4.2257 0-3.62437-2.9381-6.5625-6.5625-6.5625zm-5.4375 6.5625c0-3.00305 2.43445-5.4375 5.4375-5.4375 3.003 0 5.4375 2.43445 5.4375 5.4375 0 3.003-2.4345 5.4375-5.4375 5.4375-3.00305 0-5.4375-2.4345-5.4375-5.4375z" fill="#a9aaab" fill-rule="evenodd"/></svg>