<?xml version="1.0" encoding="UTF-8" standalone="no"?>
<!DOCTYPE svg PUBLIC "-//W3C//DTD SVG 1.1//EN" "http://www.w3.org/Graphics/SVG/1.1/DTD/svg11.dtd">
<svg width="100%" height="100%" viewBox="0 0 48 35" version="1.1" xmlns="http://www.w3.org/2000/svg" xmlns:xlink="http://www.w3.org/1999/xlink" xml:space="preserve" xmlns:serif="http://www.serif.com/" style="fill-rule:evenodd;clip-rule:evenodd;stroke-linejoin:round;stroke-miterlimit:2;">
    <g transform="matrix(1,0,0,1,-13,-18)">
        <path d="M16.85,33.78L14.9,33.78C14.15,33.78 13.54,34.39 13.54,35.14L13.54,37.86C13.54,38.61 14.15,39.22 14.9,39.22L16.85,39.22L16.85,33.78Z" style="fill:url(#_Linear1);fill-rule:nonzero;"/>
        <path d="M20.68,27.36L18.88,27.36C18.13,27.36 17.52,27.97 17.52,28.72L17.52,44.29C17.52,45.04 18.13,45.65 18.88,45.65L20.68,45.65L20.68,27.36Z" style="fill:url(#_Linear2);fill-rule:nonzero;"/>
        <path d="M26.62,26.89C26.62,26.14 26.01,25.53 25.26,25.53L22.73,25.53C21.98,25.53 21.37,26.14 21.37,26.89L21.37,46.1C21.37,46.85 21.98,47.46 22.73,47.46L25.26,47.46C26.01,47.46 26.62,46.85 26.62,46.1L26.62,26.89Z" style="fill:url(#_Linear3);fill-rule:nonzero;"/>
        <rect x="27.3" y="33.78" width="19.06" height="5.44" style="fill:url(#_Linear4);"/>
        <path d="M56.81,33.78L58.76,33.78C59.51,33.78 60.12,34.39 60.12,35.14L60.12,37.86C60.12,38.61 59.51,39.22 58.76,39.22L56.81,39.22L56.81,33.78Z" style="fill:url(#_Linear5);fill-rule:nonzero;"/>
        <path d="M52.98,27.36L54.78,27.36C55.53,27.36 56.14,27.97 56.14,28.72L56.14,44.29C56.14,45.04 55.53,45.65 54.78,45.65L52.98,45.65L52.98,27.36Z" style="fill:url(#_Linear6);fill-rule:nonzero;"/>
        <path d="M47.04,26.89C47.04,26.14 47.65,25.53 48.4,25.53L50.93,25.53C51.68,25.53 52.29,26.14 52.29,26.89L52.29,46.1C52.29,46.85 51.68,47.46 50.93,47.46L48.4,47.46C47.65,47.46 47.04,46.85 47.04,46.1L47.04,26.89Z" style="fill:url(#_Linear7);fill-rule:nonzero;"/>
    </g>
    <defs>
        <linearGradient id="_Linear1" x1="0" y1="0" x2="1" y2="0" gradientUnits="userSpaceOnUse" gradientTransform="matrix(1.26322e-15,20.63,-20.63,1.26322e-15,15.19,25.39)"><stop offset="0" style="stop-color:rgb(255,204,51);stop-opacity:1"/><stop offset="0.39" style="stop-color:rgb(255,204,51);stop-opacity:1"/><stop offset="0.72" style="stop-color:rgb(255,173,51);stop-opacity:1"/><stop offset="1" style="stop-color:rgb(255,173,51);stop-opacity:1"/></linearGradient>
        <linearGradient id="_Linear2" x1="0" y1="0" x2="1" y2="0" gradientUnits="userSpaceOnUse" gradientTransform="matrix(2.31044e-14,377.323,-377.323,2.31044e-14,77.9076,491.743)"><stop offset="0" style="stop-color:rgb(255,204,51);stop-opacity:1"/><stop offset="0.39" style="stop-color:rgb(255,204,51);stop-opacity:1"/><stop offset="0.72" style="stop-color:rgb(255,173,51);stop-opacity:1"/><stop offset="1" style="stop-color:rgb(255,173,51);stop-opacity:1"/></linearGradient>
        <linearGradient id="_Linear3" x1="0" y1="0" x2="1" y2="0" gradientUnits="userSpaceOnUse" gradientTransform="matrix(2.77025e-14,452.416,-452.416,2.77025e-14,147.317,582.333)"><stop offset="0" style="stop-color:rgb(255,204,51);stop-opacity:1"/><stop offset="0.39" style="stop-color:rgb(255,204,51);stop-opacity:1"/><stop offset="0.72" style="stop-color:rgb(255,173,51);stop-opacity:1"/><stop offset="1" style="stop-color:rgb(255,173,51);stop-opacity:1"/></linearGradient>
        <linearGradient id="_Linear4" x1="0" y1="0" x2="1" y2="0" gradientUnits="userSpaceOnUse" gradientTransform="matrix(6.87193e-15,112.227,-112.227,6.87193e-15,729.28,171.902)"><stop offset="0" style="stop-color:rgb(255,204,51);stop-opacity:1"/><stop offset="0.39" style="stop-color:rgb(255,204,51);stop-opacity:1"/><stop offset="0.72" style="stop-color:rgb(255,173,51);stop-opacity:1"/><stop offset="1" style="stop-color:rgb(255,173,51);stop-opacity:1"/></linearGradient>
        <linearGradient id="_Linear5" x1="0" y1="0" x2="1" y2="0" gradientUnits="userSpaceOnUse" gradientTransform="matrix(6.87193e-15,112.227,-112.227,6.87193e-15,250.346,171.902)"><stop offset="0" style="stop-color:rgb(255,204,51);stop-opacity:1"/><stop offset="0.39" style="stop-color:rgb(255,204,51);stop-opacity:1"/><stop offset="0.72" style="stop-color:rgb(255,173,51);stop-opacity:1"/><stop offset="1" style="stop-color:rgb(255,173,51);stop-opacity:1"/></linearGradient>
        <linearGradient id="_Linear6" x1="0" y1="0" x2="1" y2="0" gradientUnits="userSpaceOnUse" gradientTransform="matrix(2.31044e-14,377.323,-377.323,2.31044e-14,225.358,491.743)"><stop offset="0" style="stop-color:rgb(255,204,51);stop-opacity:1"/><stop offset="0.39" style="stop-color:rgb(255,204,51);stop-opacity:1"/><stop offset="0.72" style="stop-color:rgb(255,173,51);stop-opacity:1"/><stop offset="1" style="stop-color:rgb(255,173,51);stop-opacity:1"/></linearGradient>
        <linearGradient id="_Linear7" x1="0" y1="0" x2="1" y2="0" gradientUnits="userSpaceOnUse" gradientTransform="matrix(2.77025e-14,452.416,-452.416,2.77025e-14,307.808,582.333)"><stop offset="0" style="stop-color:rgb(255,204,51);stop-opacity:1"/><stop offset="0.39" style="stop-color:rgb(255,204,51);stop-opacity:1"/><stop offset="0.72" style="stop-color:rgb(255,173,51);stop-opacity:1"/><stop offset="1" style="stop-color:rgb(255,173,51);stop-opacity:1"/></linearGradient>
    </defs>
</svg>
