<?xml version="1.0" encoding="UTF-8" standalone="no"?>
<!DOCTYPE svg PUBLIC "-//W3C//DTD SVG 1.1//EN" "http://www.w3.org/Graphics/SVG/1.1/DTD/svg11.dtd">
<svg width="100%" height="100%" viewBox="0 0 30 36" version="1.1" xmlns="http://www.w3.org/2000/svg" xmlns:xlink="http://www.w3.org/1999/xlink" xml:space="preserve" xmlns:serif="http://www.serif.com/" style="fill-rule:evenodd;clip-rule:evenodd;stroke-linejoin:round;stroke-miterlimit:2;">
    <g transform="matrix(1,0,0,1,-21,-19)">
        <path d="M41.761,26.141L41.761,23.333C41.761,22.8 41.329,22.369 40.797,22.369L31.725,22.369C31.193,22.369 30.761,22.8 30.761,23.333L30.761,26.141C30.761,26.679 31.209,27.115 31.761,27.115L40.761,27.115C41.313,27.115 41.761,26.679 41.761,26.141Z" style="fill:url(#_Linear1);fill-rule:nonzero;"/>
    </g>
    <g transform="matrix(1,0,0,1,-21,-19)">
        <path d="M29.511,26.141L29.511,24.521C29.511,24.387 29.399,24.278 29.261,24.278L27.274,24.278C25.894,24.278 24.774,25.368 24.774,26.714L24.774,47.933C24.774,49.278 25.894,50.369 27.275,50.369L45.274,50.369C46.655,50.369 47.774,49.278 47.774,47.933L47.774,26.714C47.774,25.368 46.655,24.278 45.274,24.278L43.261,24.278C43.123,24.278 43.011,24.387 43.011,24.521L43.011,26.141C43.011,27.351 42.004,28.333 40.761,28.333L31.761,28.333C30.518,28.333 29.511,27.351 29.511,26.141ZM37.524,36.062L37.524,37.524L29.456,37.524L29.456,36.062L37.524,36.062ZM43.093,39.797L43.093,41.258L29.456,41.258L29.456,39.797L43.093,39.797Z" style="fill:url(#_Linear2);"/>
    </g>
    <defs>
        <linearGradient id="_Linear1" x1="0" y1="0" x2="1" y2="0" gradientUnits="userSpaceOnUse" gradientTransform="matrix(1.93984e-15,31.68,-31.68,1.93984e-15,36.0397,22.3687)"><stop offset="0" style="stop-color:rgb(255,204,51);stop-opacity:1"/><stop offset="0.39" style="stop-color:rgb(255,204,51);stop-opacity:1"/><stop offset="0.72" style="stop-color:rgb(255,173,51);stop-opacity:1"/><stop offset="1" style="stop-color:rgb(255,173,51);stop-opacity:1"/></linearGradient>
        <linearGradient id="_Linear2" x1="0" y1="0" x2="1" y2="0" gradientUnits="userSpaceOnUse" gradientTransform="matrix(1.93984e-15,31.68,-31.68,1.93984e-15,36.0397,22.3687)"><stop offset="0" style="stop-color:rgb(255,204,51);stop-opacity:1"/><stop offset="0.39" style="stop-color:rgb(255,204,51);stop-opacity:1"/><stop offset="0.72" style="stop-color:rgb(255,173,51);stop-opacity:1"/><stop offset="1" style="stop-color:rgb(255,173,51);stop-opacity:1"/></linearGradient>
    </defs>
</svg>
