<svg width="579" height="154" viewBox="0 0 579 154" fill="none" xmlns="http://www.w3.org/2000/svg">
<path d="M544.137 75.3309C542.338 75.3309 540.63 75.1511 539.101 74.7015C537.572 74.3417 536.133 73.7122 534.605 72.9029L534.515 65.9786H538.471L539.55 71.4641C540.989 72.0936 542.518 72.3634 544.227 72.3634C546.205 72.3634 547.734 72.0036 548.723 71.2842C549.712 70.5648 550.252 69.5756 550.252 68.3167C550.252 67.2376 549.892 66.3383 549.083 65.6189C548.273 64.8995 546.924 64.27 545.036 63.6405L542.068 62.6513C539.82 61.9319 538.112 60.8528 536.763 59.5039C535.504 58.155 534.874 56.3565 534.874 54.2882C534.874 52.5796 535.324 51.1408 536.223 49.7919C537.122 48.443 538.381 47.274 540 46.5546C541.709 45.7452 543.777 45.2956 546.205 45.2956C547.914 45.2956 549.442 45.4754 550.881 45.9251C552.32 46.2848 553.669 46.9143 555.108 47.7236L554.838 53.9285H550.881L549.802 48.9826C548.723 48.533 547.464 48.2632 546.115 48.2632C544.496 48.2632 543.327 48.6229 542.428 49.2523C541.529 49.8818 541.079 50.871 541.079 51.9501C541.079 53.0292 541.439 53.9285 542.158 54.558C542.878 55.1875 544.317 55.817 546.295 56.5364L548.633 57.2558C551.511 58.245 553.579 59.5039 554.838 60.9427C556.097 62.3816 556.636 64.1801 556.636 66.2484C556.636 68.9462 555.557 71.1044 553.399 72.813C551.151 74.5216 548.093 75.3309 544.137 75.3309Z" fill="white"/>
<path d="M517.788 48.0763C516.799 48.0763 515.9 48.436 514.911 49.0655C514.012 49.695 513.202 50.6841 512.573 52.033C511.943 53.3819 511.584 55.2704 511.404 57.6984H519.587C521.026 57.6984 521.925 57.4286 522.465 56.7991C522.914 56.1696 523.184 55.3603 523.184 54.2812C523.184 52.4826 522.644 50.9539 521.655 49.7849C520.486 48.6158 519.227 48.0763 517.788 48.0763ZM517.788 75.3239C515.001 75.3239 512.573 74.6944 510.504 73.5254C508.436 72.3563 506.728 70.6477 505.558 68.3996C504.389 66.1514 503.76 63.4536 503.76 60.3962C503.76 57.2487 504.389 54.551 505.738 52.2129C507.087 49.8748 508.886 48.1662 511.044 46.9971C513.292 45.7382 515.63 45.1986 518.148 45.1986C520.486 45.1986 522.554 45.6483 524.263 46.7274C525.972 47.7166 527.321 49.0655 528.31 50.864C529.299 52.6625 529.839 54.7308 529.839 57.1588C529.839 58.4178 529.749 59.4969 529.479 60.3962H511.314C511.494 63.8133 512.393 66.3313 514.012 68.0399C515.72 69.7485 517.788 70.5578 520.216 70.5578C521.925 70.5578 523.454 70.1981 524.623 69.5686C525.882 68.8492 526.961 67.9499 527.95 66.8708L529.659 68.3996C528.49 70.5578 526.961 72.2664 524.893 73.5254C522.914 74.7843 520.576 75.3239 517.788 75.3239Z" fill="white"/>
<path d="M487.123 75.3165C485.325 75.3165 483.616 75.1367 482.088 74.687C480.559 74.3273 479.12 73.6979 477.591 72.8885L477.501 65.9642H481.458L482.537 71.4497C483.976 72.0792 485.505 72.349 487.213 72.349C489.192 72.349 490.72 71.9892 491.71 71.2698C492.699 70.5504 493.238 69.5613 493.238 68.3023C493.238 67.2232 492.879 66.3239 492.069 65.6045C491.26 64.8851 489.911 64.2556 488.023 63.6261L485.055 62.6369C482.807 61.9175 481.098 60.8384 479.749 59.4895C478.491 58.1406 477.861 56.3421 477.861 54.2738C477.861 52.5652 478.311 51.1264 479.21 49.7775C480.109 48.4286 481.368 47.2596 482.987 46.5402C484.695 45.7308 486.764 45.2812 489.192 45.2812C490.9 45.2812 492.429 45.461 493.868 45.9107C495.307 46.2704 496.656 46.8999 498.094 47.7092L497.825 53.9141H493.778L492.699 48.9682C491.62 48.5186 490.361 48.2488 489.012 48.2488C487.393 48.2488 486.224 48.6085 485.325 49.2379C484.426 49.8674 483.976 50.8566 483.976 51.9357C483.976 53.0148 484.336 53.9141 485.055 54.5436C485.775 55.1731 487.213 55.8026 489.192 56.522L491.53 57.2414C494.407 58.2306 496.476 59.4895 497.735 60.9283C498.994 62.3672 499.533 64.1657 499.533 66.234C499.533 68.9318 498.454 71.09 496.296 72.7986C494.228 74.5072 491.17 75.3165 487.123 75.3165Z" fill="white"/>
<path d="M468.958 75.1575C467.34 75.1575 466.081 74.7978 465.092 73.9884C464.102 73.1791 463.473 72.1 463.113 70.7511C461.674 72.2798 460.326 73.4489 459.156 74.1683C457.987 74.8877 456.459 75.3373 454.48 75.3373C452.232 75.3373 450.344 74.7078 448.815 73.4489C447.286 72.1 446.567 70.3015 446.567 67.8735C446.567 66.6145 446.837 65.4455 447.466 64.3663C448.096 63.2872 449.085 62.2081 450.613 61.3089C452.142 60.3197 454.39 59.4204 457.178 58.5211C457.987 58.2514 458.887 57.9816 459.876 57.7118C460.865 57.442 461.854 57.1723 462.933 56.9025V55.2838C462.933 52.4961 462.574 50.6076 461.764 49.7084C461.045 48.7192 459.696 48.1796 457.718 48.1796C457.358 48.1796 456.998 48.1796 456.549 48.2696C456.189 48.2696 455.739 48.3595 455.29 48.4494L454.57 51.6867C454.39 53.1256 454.031 54.2047 453.311 54.8342C452.682 55.4636 451.783 55.8234 450.793 55.8234C448.905 55.8234 447.826 54.9241 447.466 53.1256C447.826 50.7875 449.085 48.8091 451.243 47.4602C453.491 46.0214 456.369 45.302 459.966 45.302C463.383 45.302 465.901 46.1113 467.52 47.8199C469.138 49.4386 469.858 52.2263 469.858 56.0931V69.0425C469.858 70.841 470.397 71.7403 471.566 71.7403C472.286 71.7403 473.005 71.2907 473.635 70.3914L474.983 71.6297C474.264 72.9785 473.455 73.8985 472.466 74.4381C471.566 74.8877 470.397 75.1575 468.958 75.1575ZM453.491 66.5246C453.491 68.0533 453.851 69.2223 454.66 69.9418C455.469 70.5712 456.459 70.931 457.718 70.931C458.347 70.931 459.067 70.7511 459.696 70.4813C460.325 70.1216 461.405 69.4921 462.843 68.5029V59.1506C462.034 59.4204 461.225 59.6902 460.505 59.96C459.786 60.2297 459.156 60.4096 458.707 60.5894C456.728 61.3988 455.38 62.2981 454.57 63.2872C453.851 64.2764 453.491 65.3555 453.491 66.5246Z" fill="white"/>
<path d="M427.973 75.32V72.892L431.93 72.0826C431.93 70.6438 432.02 69.0252 432.02 67.3166C432.02 65.608 432.02 64.0792 432.02 62.8203V60.0325C432.02 58.4139 432.02 57.065 431.93 55.9859C431.93 54.9068 431.93 53.7377 431.84 52.5687L427.614 52.0291V49.781L438.315 46.0041L439.304 46.6336L439.124 54.9967V62.8203C439.124 64.0792 439.124 65.608 439.124 67.3166C439.124 69.0252 439.124 70.6438 439.214 72.1726L442.811 72.892V75.32H427.973ZM435.437 40.5186C434.178 40.5186 433.099 40.1589 432.2 39.3495C431.301 38.5402 430.851 37.551 430.851 36.292C430.851 35.0331 431.301 33.954 432.2 33.2346C433.099 32.4252 434.178 32.0655 435.437 32.0655C436.696 32.0655 437.775 32.4252 438.585 33.2346C439.484 34.0439 439.934 35.0331 439.934 36.292C439.934 37.551 439.484 38.5402 438.585 39.3495C437.775 40.0689 436.696 40.5186 435.437 40.5186Z" fill="white"/>
<path d="M405.74 56.4329H403.043C403.043 59.4005 403.043 62.0983 403.043 64.7062C403.043 67.314 403.132 69.832 403.132 72.3499H405.92C412.575 72.3499 415.992 69.742 415.992 64.5263C415.992 61.8285 415.183 59.7602 413.474 58.5013C411.855 57.0625 409.247 56.4329 405.74 56.4329ZM406.37 39.0772H403.222C403.222 41.5952 403.132 44.1131 403.132 46.631C403.132 49.1489 403.132 51.3971 403.132 53.5553H405.56C408.618 53.5553 410.866 52.9258 412.305 51.7568C413.744 50.4978 414.463 48.6094 414.463 46.0915C414.463 43.6635 413.834 41.8649 412.485 40.7858C411.046 39.6168 409.068 39.0772 406.37 39.0772ZM390.363 38.8075V36.0197H408.528C413.114 36.0197 416.442 36.919 418.6 38.7175C420.758 40.516 421.837 42.7642 421.837 45.462C421.837 47.5303 421.118 49.4187 419.679 51.1273C418.24 52.746 415.722 53.915 412.215 54.6344C416.442 55.174 419.409 56.343 421.208 58.0516C423.006 59.7602 423.905 61.6161 423.905 64.0441C423.905 65.393 423.636 67.0443 423.006 68.3932C422.467 69.6521 421.477 70.8211 420.218 71.9002C418.959 72.9794 417.251 73.7887 415.003 74.4182C412.844 75.0477 410.057 75.4073 406.819 75.4073H390.363V72.6197L395.309 72.0801C395.399 69.5622 395.399 67.0443 395.399 64.5263C395.399 62.0084 395.399 59.4005 395.399 56.8826V54.5445C395.399 52.0266 395.399 49.5086 395.399 46.9008C395.399 44.3829 395.399 41.865 395.309 39.2571L390.363 38.8075Z" fill="white"/>
<path d="M352.864 47.7301C353.223 48.0898 353.493 48.5394 353.763 48.8991C354.033 49.2588 354.303 49.5286 354.662 49.9783C356.281 48.6294 357.54 47.1905 358.439 45.7517C359.338 44.3129 359.788 42.8741 359.788 41.4353C359.788 39.9065 359.338 38.6476 358.439 37.8382C357.63 36.939 356.551 36.4893 355.202 36.4893C353.853 36.4893 352.684 36.939 351.785 37.9281C350.885 38.9173 350.436 40.0864 350.436 41.5252C350.436 42.5144 350.616 43.4136 350.885 44.4028C351.335 45.392 351.964 46.4711 352.864 47.7301ZM378.763 74.5281C377.683 74.7979 376.694 74.9777 375.975 75.0676C375.255 75.1576 374.446 75.2475 373.637 75.2475C372.018 75.2475 370.579 75.0676 369.32 74.618C368.151 74.2583 366.982 73.449 365.813 72.3699C365.543 72.0102 365.274 71.7404 364.914 71.4706C364.644 71.1109 364.374 70.8411 364.105 70.5713C362.846 71.9202 361.317 72.9994 359.428 73.8986C357.54 74.7979 355.202 75.2475 352.324 75.2475C349.806 75.2475 347.558 74.7979 345.76 73.8087C343.871 72.8195 342.432 71.5605 341.443 69.9419C340.544 68.3232 340.004 66.5247 340.004 64.5463C340.004 62.0284 340.724 59.8701 342.163 57.9817C343.601 56.0033 345.939 54.2947 348.997 52.8559C348.997 52.766 348.907 52.676 348.907 52.676C348.907 52.5861 348.817 52.4962 348.727 52.4962C347.288 50.7876 346.299 49.1689 345.76 47.6402C345.22 46.1114 344.95 44.5827 344.95 43.0539C344.95 40.2662 345.939 38.108 347.828 36.4893C349.806 34.8707 352.234 34.1512 355.292 34.1512C358.439 34.1512 360.777 34.8707 362.486 36.3095C364.105 37.6584 365.004 39.5468 365.004 41.795C365.004 43.8633 364.284 45.6618 362.846 47.1905C361.407 48.7193 359.159 50.1581 356.101 51.6868C356.641 52.3163 357.27 53.0357 358.079 53.8451C358.889 54.6544 359.788 55.5537 360.777 56.7227C361.946 57.9817 363.025 59.1507 364.015 60.2298C365.004 61.309 365.993 62.3881 366.982 63.3773C367.971 61.6687 368.871 59.8701 369.5 58.1615C370.22 56.363 370.759 54.3846 371.209 52.3163L366.533 51.507V48.9891H379.122V51.507L374.806 52.2264C374.086 54.8343 373.187 57.0824 372.198 59.1507C371.209 61.219 370.04 63.2873 368.691 65.2657C369.41 65.9851 370.13 66.7944 370.849 67.6038C371.568 68.4131 372.378 69.2224 373.277 70.1217L379.032 71.1109L378.763 74.5281ZM356.641 62.0283C355.292 60.4097 354.033 58.9709 353.044 57.8018C352.054 56.6328 351.245 55.5537 350.436 54.5645C348.997 55.6436 347.918 56.9026 347.378 58.3414C346.839 59.6903 346.569 61.1291 346.569 62.478C346.569 64.0067 346.929 65.3556 347.648 66.6146C348.367 67.8736 349.357 68.8627 350.616 69.6721C351.964 70.3915 353.403 70.8411 355.112 70.8411C357.81 70.8411 360.238 70.1217 362.216 68.593C361.227 67.4239 360.238 66.3448 359.249 65.2657C358.439 64.0967 357.54 63.0175 356.641 62.0283Z" fill="white"/>
<path d="M348.34 125.392C347.045 125.392 345.86 125.103 344.784 124.525C343.729 123.948 342.912 123.131 342.334 122.075L342.723 121.597V125.033H340.004V102.416H342.783V112.395L342.364 111.708C342.962 110.752 343.779 109.995 344.814 109.437C345.85 108.86 347.035 108.571 348.369 108.571C349.883 108.571 351.238 108.939 352.433 109.676C353.648 110.414 354.604 111.419 355.301 112.694C355.998 113.949 356.347 115.383 356.347 116.996C356.347 118.57 355.998 119.994 355.301 121.269C354.604 122.544 353.648 123.549 352.433 124.286C351.238 125.023 349.874 125.392 348.34 125.392ZM348.13 122.703C349.146 122.703 350.053 122.454 350.849 121.956C351.646 121.458 352.264 120.781 352.702 119.924C353.16 119.048 353.389 118.072 353.389 116.996C353.389 115.881 353.16 114.905 352.702 114.068C352.264 113.212 351.646 112.535 350.849 112.037C350.053 111.519 349.146 111.26 348.13 111.26C347.115 111.26 346.199 111.509 345.382 112.007C344.585 112.505 343.948 113.192 343.47 114.068C343.012 114.925 342.783 115.901 342.783 116.996C342.783 118.072 343.012 119.048 343.47 119.924C343.948 120.781 344.585 121.458 345.382 121.956C346.199 122.454 347.115 122.703 348.13 122.703ZM361.461 131.606C361.103 131.606 360.744 131.576 360.386 131.517C360.027 131.457 359.689 131.357 359.37 131.218V128.738C359.589 128.778 359.858 128.818 360.176 128.858C360.515 128.917 360.844 128.947 361.162 128.947C362.098 128.947 362.806 128.738 363.284 128.32C363.782 127.922 364.25 127.224 364.688 126.228L365.704 123.808L365.644 126.228L358.772 108.93H361.79L367.138 122.673H366.242L371.56 108.93H374.637L367.377 126.945C367.038 127.802 366.6 128.579 366.062 129.276C365.545 129.993 364.907 130.561 364.15 130.979C363.393 131.397 362.497 131.606 361.461 131.606ZM394.643 125.392C393.067 125.392 391.616 125.113 390.28 124.555C388.967 123.978 387.811 123.171 386.816 122.135C385.837 121.099 385.083 119.885 384.544 118.49C384.005 117.096 383.738 115.572 383.738 113.919C383.738 112.246 384.005 110.712 384.544 109.318C385.083 107.924 385.837 106.709 386.816 105.673C387.791 104.637 388.947 103.841 390.28 103.283C391.616 102.705 393.067 102.416 394.643 102.416C396.176 102.416 397.548 102.685 398.767 103.223C400.001 103.761 401.035 104.458 401.873 105.314C402.73 106.171 403.335 107.087 403.697 108.063L401.008 109.288C400.489 108.053 399.683 107.057 398.586 106.3C397.489 105.524 396.176 105.135 394.643 105.135C393.09 105.135 391.703 105.504 390.488 106.241C389.293 106.978 388.357 108.003 387.681 109.318C387.005 110.633 386.667 112.166 386.667 113.919C386.667 115.652 387.005 117.176 387.681 118.49C388.357 119.805 389.293 120.83 390.488 121.568C391.703 122.305 393.09 122.673 394.643 122.673C396.176 122.673 397.489 122.294 398.586 121.538C399.683 120.761 400.489 119.755 401.008 118.52L403.697 119.745C403.335 120.721 402.73 121.637 401.873 122.494C401.035 123.35 400.001 124.047 398.767 124.585C397.548 125.123 396.176 125.392 394.643 125.392ZM415.6 125.392C414.048 125.392 412.644 125.033 411.39 124.316C410.136 123.579 409.138 122.574 408.402 121.299C407.663 120.024 407.298 118.58 407.298 116.966C407.298 115.353 407.656 113.919 408.371 112.664C409.11 111.409 410.105 110.414 411.359 109.676C412.613 108.939 414.028 108.571 415.6 108.571C417.157 108.571 418.561 108.939 419.815 109.676C421.069 110.394 422.055 111.379 422.771 112.634C423.51 113.889 423.88 115.333 423.88 116.966C423.88 118.6 423.498 120.054 422.743 121.329C421.985 122.583 420.978 123.579 419.724 124.316C418.49 125.033 417.114 125.392 415.6 125.392ZM415.6 122.703C416.599 122.703 417.495 122.454 418.289 121.956C419.107 121.458 419.744 120.771 420.204 119.894C420.68 119.018 420.919 118.042 420.919 116.966C420.919 115.871 420.68 114.905 420.204 114.068C419.744 113.212 419.107 112.535 418.289 112.037C417.495 111.519 416.599 111.26 415.6 111.26C414.586 111.26 413.67 111.519 412.853 112.037C412.058 112.535 411.418 113.212 410.942 114.068C410.462 114.905 410.223 115.871 410.223 116.966C410.223 118.042 410.462 119.018 410.942 119.894C411.418 120.771 412.058 121.458 412.853 121.956C413.67 122.454 414.586 122.703 415.6 122.703ZM428.396 125.033V108.93H431.117V111.887L430.818 111.469C431.195 110.553 431.773 109.876 432.552 109.437C433.326 108.979 434.274 108.75 435.39 108.75H436.377V111.379H434.969C433.837 111.379 432.921 111.738 432.222 112.455C431.526 113.152 431.176 114.148 431.176 115.443V125.033H428.396ZM447.148 125.392C445.595 125.392 444.212 125.023 442.997 124.286C441.782 123.549 440.827 122.544 440.127 121.269C439.431 119.974 439.081 118.53 439.081 116.937C439.081 115.323 439.42 113.889 440.1 112.634C440.795 111.379 441.731 110.394 442.907 109.676C444.102 108.939 445.438 108.571 446.909 108.571C448.104 108.571 449.161 108.79 450.077 109.228C451.013 109.647 451.799 110.224 452.436 110.961C453.096 111.678 453.592 112.505 453.93 113.441C454.291 114.357 454.468 115.313 454.468 116.309C454.468 116.528 454.449 116.777 454.409 117.056C454.39 117.315 454.358 117.564 454.319 117.803H441.114V115.413H452.707L451.39 116.488C451.571 115.453 451.473 114.526 451.091 113.71C450.714 112.893 450.156 112.246 449.421 111.768C448.681 111.29 447.848 111.051 446.909 111.051C445.973 111.051 445.116 111.29 444.341 111.768C443.563 112.246 442.958 112.933 442.517 113.829C442.101 114.706 441.932 115.751 442.01 116.966C441.932 118.142 442.108 119.177 442.549 120.074C443.005 120.95 443.646 121.637 444.459 122.135C445.297 122.613 446.205 122.852 447.18 122.852C448.253 122.852 449.161 122.603 449.896 122.105C450.635 121.607 451.233 120.97 451.689 120.193L454.02 121.388C453.702 122.125 453.206 122.802 452.526 123.42C451.87 124.017 451.083 124.496 450.167 124.854C449.271 125.213 448.265 125.392 447.148 125.392ZM463.412 125.033L457.165 102.775H460.243L465.472 122.374H464.756L470.193 102.775H473.271L478.676 122.374H477.93L483.189 102.775H486.268L480.021 125.033H476.766L471.329 105.524H472.104L466.667 125.033H463.412ZM495.946 125.392C494.393 125.392 493.01 125.023 491.795 124.286C490.576 123.549 489.621 122.544 488.925 121.269C488.229 119.974 487.879 118.53 487.879 116.937C487.879 115.323 488.217 113.889 488.894 112.634C489.593 111.379 490.529 110.394 491.704 109.676C492.9 108.939 494.232 108.571 495.706 108.571C496.902 108.571 497.959 108.79 498.875 109.228C499.811 109.647 500.597 110.224 501.234 110.961C501.89 111.678 502.389 112.505 502.728 113.441C503.085 114.357 503.266 115.313 503.266 116.309C503.266 116.528 503.246 116.777 503.207 117.056C503.187 117.315 503.156 117.564 503.117 117.803H489.912V115.413H501.505L500.188 116.488C500.369 115.453 500.267 114.526 499.889 113.71C499.512 112.893 498.954 112.246 498.219 111.768C497.479 111.29 496.642 111.051 495.706 111.051C494.771 111.051 493.914 111.29 493.139 111.768C492.361 112.246 491.752 112.933 491.315 113.829C490.899 114.706 490.726 115.751 490.808 116.966C490.726 118.142 490.906 119.177 491.347 120.074C491.803 120.95 492.44 121.637 493.257 122.135C494.095 122.613 494.999 122.852 495.978 122.852C497.051 122.852 497.959 122.603 498.694 122.105C499.433 121.607 500.031 120.97 500.487 120.193L502.818 121.388C502.5 122.125 502 122.802 501.324 123.42C500.668 124.017 499.881 124.496 498.965 124.854C498.069 125.213 497.063 125.392 495.946 125.392ZM512.3 125.392C511.247 125.392 510.311 125.203 509.493 124.824C508.695 124.426 508.07 123.888 507.61 123.211C507.154 122.514 506.922 121.717 506.922 120.821C506.922 119.964 507.103 119.197 507.461 118.52C507.838 117.823 508.416 117.235 509.194 116.757C509.992 116.279 510.987 115.941 512.182 115.741L518.158 114.756V117.086L512.811 117.982C511.773 118.162 511.018 118.49 510.539 118.968C510.079 119.446 509.851 120.034 509.851 120.731C509.851 121.388 510.11 121.936 510.629 122.374C511.168 122.813 511.832 123.032 512.63 123.032C513.644 123.032 514.521 122.822 515.26 122.404C516.015 121.966 516.605 121.378 517.021 120.641C517.462 119.904 517.678 119.088 517.678 118.191V114.098C517.678 113.222 517.352 112.515 516.695 111.977C516.054 111.419 515.209 111.14 514.156 111.14C513.236 111.14 512.422 111.379 511.702 111.857C511.007 112.315 510.488 112.933 510.15 113.71L507.732 112.455C508.031 111.718 508.506 111.061 509.163 110.483C509.823 109.886 510.59 109.417 511.467 109.079C512.339 108.74 513.259 108.571 514.215 108.571C515.449 108.571 516.534 108.81 517.47 109.288C518.405 109.746 519.132 110.394 519.651 111.23C520.19 112.047 520.457 113.003 520.457 114.098V125.033H517.741V121.986L518.248 122.165C517.91 122.802 517.45 123.36 516.872 123.838C516.294 124.316 515.618 124.695 514.84 124.974C514.065 125.252 513.216 125.392 512.3 125.392ZM529.853 125.033L523.547 108.93H526.657L531.704 122.553H530.627L535.706 108.93H538.816L532.483 125.033H529.853ZM549.316 125.392C547.763 125.392 546.376 125.023 545.161 124.286C543.946 123.549 542.991 122.544 542.295 121.269C541.595 119.974 541.249 118.53 541.249 116.937C541.249 115.323 541.587 113.889 542.264 112.634C542.959 111.379 543.899 110.394 545.074 109.676C546.269 108.939 547.602 108.571 549.076 108.571C550.271 108.571 551.325 108.79 552.245 109.228C553.181 109.647 553.967 110.224 554.604 110.961C555.26 111.678 555.759 112.505 556.097 113.441C556.455 114.357 556.636 115.313 556.636 116.309C556.636 116.528 556.616 116.777 556.577 117.056C556.554 117.315 556.526 117.564 556.487 117.803H543.282V115.413H554.871L553.558 116.488C553.739 115.453 553.637 114.526 553.259 113.71C552.882 112.893 552.324 112.246 551.585 111.768C550.849 111.29 550.012 111.051 549.076 111.051C548.141 111.051 547.284 111.29 546.505 111.768C545.731 112.246 545.122 112.933 544.685 113.829C544.265 114.706 544.096 115.751 544.178 116.966C544.096 118.142 544.276 119.177 544.713 120.074C545.173 120.95 545.81 121.637 546.627 122.135C547.465 122.613 548.369 122.852 549.344 122.852C550.421 122.852 551.325 122.603 552.064 122.105C552.799 121.607 553.397 120.97 553.857 120.193L556.188 121.388C555.869 122.125 555.37 122.802 554.694 123.42C554.038 124.017 553.247 124.496 552.331 124.854C551.435 125.213 550.429 125.392 549.316 125.392Z" fill="white"/>
<path d="M195.222 57.5305C195.222 55.1061 194.752 52.9946 193.736 51.274C192.797 49.4753 191.468 48.1458 189.747 47.1291C188.027 46.1124 185.993 45.6432 183.647 45.6432C181.144 45.6432 178.798 46.2688 176.609 47.4419C174.419 48.615 172.62 50.3356 171.29 52.6817C169.961 54.9497 169.257 57.6087 169.257 60.8152C169.257 64.0217 169.883 66.5243 171.056 68.7922C172.229 70.982 173.871 72.7026 175.983 73.8756C178.094 75.0487 180.519 75.6744 183.256 75.6744C185.993 75.6744 188.418 75.0487 190.373 73.8756C192.406 72.6243 193.97 70.982 195.143 68.7922L193.423 67.2281C192.406 68.323 191.311 69.2615 190.138 69.9653C188.965 70.6692 187.479 70.982 185.759 70.982C183.256 70.982 181.223 70.1218 179.502 68.4012C177.86 66.6807 177 64.1781 176.843 60.737H194.987C195.065 59.8767 195.222 58.7818 195.222 57.5305ZM187.792 57.1395C187.323 57.7652 186.384 57.9998 184.977 57.9998H176.843C177 55.6536 177.391 53.7766 178.016 52.3689C178.72 50.9612 179.502 50.0227 180.362 49.3971C181.301 48.7714 182.239 48.4586 183.178 48.4586C184.664 48.4586 185.915 49.0061 186.932 50.1791C187.948 51.3522 188.496 52.8382 188.496 54.6369C188.418 55.6536 188.183 56.5139 187.792 57.1395Z" fill="white"/>
<path d="M238.47 48.0677C236.436 46.4253 233.621 45.5651 230.023 45.5651C226.426 45.5651 223.61 46.4253 221.577 48.2241C219.544 49.9446 218.527 52.2908 218.527 55.1844C218.527 59.0165 220.091 61.7538 223.219 63.3179C221.734 64.6474 220.639 65.8987 219.935 67.0718C219.231 68.1667 218.918 69.3398 218.918 70.4347C218.918 71.5295 219.231 72.468 219.778 73.2501C220.404 74.0321 221.264 74.6578 222.516 75.0488C220.639 75.9873 219.231 76.9258 218.449 77.9425C217.589 79.0373 217.198 80.2104 217.198 81.4617C217.198 82.713 217.589 83.9643 218.371 84.981C219.231 86.0759 220.56 86.858 222.359 87.5618C224.236 88.1875 226.661 88.5003 229.711 88.5003C233.23 88.5003 236.123 88.0311 238.47 87.0144C240.816 85.9977 242.615 84.7464 243.788 83.1041C245.039 81.4617 245.586 79.7412 245.586 77.8642C245.586 75.3616 244.726 73.4065 243.084 71.9206C241.442 70.4347 238.704 69.7308 234.794 69.7308H227.364C226.035 69.7308 225.175 69.4962 224.627 69.1051C224.158 68.6359 223.923 68.0885 223.923 67.3064C223.923 66.1333 224.314 65.0384 225.018 64.0217C226.504 64.491 228.146 64.6474 229.945 64.6474C233.543 64.6474 236.436 63.7871 238.391 62.0666C240.425 60.2678 241.442 57.9216 241.442 55.1062C241.442 53.1511 241.05 51.5087 240.19 50.101H245.899V45.9561L245.039 45.3304L238.47 48.0677ZM224.08 75.8309C225.253 76.0655 226.504 76.2219 227.99 76.2219H234.559C236.436 76.2219 237.766 76.6129 238.548 77.395C239.33 78.1771 239.721 79.1155 239.721 80.2104C239.721 81.6963 238.939 82.9477 237.297 83.9643C235.732 84.981 233.386 85.5285 230.258 85.5285C227.755 85.5285 225.878 85.1374 224.549 84.2772C223.219 83.4169 222.516 82.0874 222.516 80.2886C222.437 78.8027 222.985 77.3168 224.08 75.8309ZM233.699 60.2678C232.839 61.5973 231.588 62.223 229.945 62.223C228.303 62.223 227.13 61.5973 226.348 60.346C225.487 59.0947 225.096 57.3742 225.096 55.2626C225.096 53.1511 225.566 51.4305 226.426 50.1792C227.364 48.8497 228.616 48.2241 230.18 48.2241C231.744 48.2241 232.995 48.8497 233.777 50.101C234.638 51.3523 235.107 52.9946 235.107 55.1062C235.029 57.2178 234.638 59.0165 233.699 60.2678Z" fill="white"/>
<path d="M277.453 67.3629V56.6487C277.453 52.973 276.749 50.314 275.341 48.5934C273.934 46.8729 271.9 46.0126 269.398 46.0126C265.722 46.0126 262.281 47.7331 259.309 51.2524V40.6946L259.544 32.3265L258.683 31.7791L248.126 34.4381V36.7843L252.427 37.4099V67.2847C252.427 69.0053 252.427 70.5694 252.349 72.0553L248.438 72.8374V75.2617H263.063V72.8374L259.544 72.1335C259.465 70.6476 259.465 69.0052 259.465 67.3629V54.4589C261.812 52.1909 264.158 51.096 266.348 51.096C267.833 51.096 268.928 51.5653 269.476 52.4255C270.101 53.2858 270.414 54.9281 270.414 57.1961V67.3629C270.414 69.0052 270.414 70.5694 270.336 72.0553L266.582 72.8374V75.2617H281.129V72.8374L277.531 72.1335C277.453 70.6476 277.453 69.0835 277.453 67.3629Z" fill="white"/>
<path d="M171.29 35.9666H158.23V38.7038L163.079 39.4077L155.884 65.294L147.985 39.3295L153.538 38.7038V35.9666H136.645V38.7038L141.807 39.3295L133.673 64.9811L126.947 39.3295L131.874 38.7038V35.9666H114.669V38.7038L118.97 39.1731L129.606 75.3826H133.673L142.589 46.5245L151.973 75.3826H156.04L166.285 39.4077L171.056 38.6256V35.9666H171.29Z" fill="white"/>
<path d="M206.874 40.7002C208.126 40.7002 209.221 40.3092 210.003 39.5271C210.863 38.7451 211.332 37.7284 211.332 36.4771C211.332 35.2258 210.863 34.2091 210.003 33.4271C209.142 32.645 208.126 32.254 206.874 32.254C205.623 32.254 204.528 32.645 203.668 33.4271C202.808 34.2091 202.338 35.2258 202.338 36.4771C202.338 37.7284 202.808 38.7451 203.668 39.5271C204.528 40.3092 205.623 40.7002 206.874 40.7002Z" fill="white"/>
<path d="M210.394 67.4466V55.09L210.55 46.7219L209.612 46.0962L198.975 49.8501V52.1181L203.199 52.6656C203.277 53.8387 203.355 55.0118 203.355 56.1066C203.433 57.2015 203.433 58.531 203.433 60.0952V67.3683C203.433 69.0889 203.433 70.653 203.355 72.1389L199.445 72.921V75.3454H214.147V72.921L210.55 72.2171C210.472 70.7312 210.394 69.1671 210.394 67.4466Z" fill="white"/>
<path d="M297.75 71.7641C296.812 71.7641 296.029 71.4513 295.404 70.7475C294.856 70.0436 294.544 69.0269 294.544 67.541V50.101H301.739V46.4253H294.622L294.856 38.2919H290.086L287.818 46.4253L283.047 47.051V50.101H287.427V62.6922C287.427 63.8653 287.427 64.8038 287.349 65.6641V68.2449C287.349 70.8257 288.052 72.7808 289.382 73.9539C290.711 75.127 292.588 75.7527 294.935 75.7527C296.812 75.7527 298.376 75.4398 299.705 74.736C301.035 74.0321 302.051 73.0937 302.755 71.8424L301.348 70.3564C300.096 71.2167 298.845 71.6859 297.75 71.7641Z" fill="white"/>
<path d="M319.335 57.6088L316.989 56.905C314.955 56.2011 313.626 55.5755 312.844 54.9498C312.14 54.246 311.749 53.3857 311.749 52.369C311.749 51.1959 312.218 50.3356 313.078 49.6318C313.939 48.9279 315.19 48.6151 316.754 48.6151C318.084 48.6151 319.335 48.8497 320.43 49.319L321.525 54.3242H325.435L325.748 48.1459C324.34 47.3638 322.932 46.7382 321.525 46.3471C320.117 45.8779 318.631 45.7215 316.911 45.7215C314.486 45.7215 312.453 46.1125 310.732 46.9728C309.09 47.7548 307.839 48.8497 306.978 50.2574C306.118 51.5869 305.649 53.0729 305.649 54.7934C305.649 56.905 306.275 58.6255 307.526 60.0332C308.855 61.4409 310.576 62.4576 312.766 63.1615L315.737 64.1781C317.614 64.8038 318.944 65.5077 319.726 66.2115C320.508 66.9154 320.899 67.7756 320.899 68.8705C320.899 70.1218 320.43 71.1385 319.413 71.8424C318.396 72.5462 316.911 72.9372 314.877 72.9372C313.235 72.9372 311.671 72.6244 310.263 72.077L309.168 66.6025H305.18L305.258 73.4847C306.744 74.345 308.23 74.8924 309.794 75.2834C311.358 75.7527 313 75.9091 314.799 75.9091C318.788 75.9091 321.838 75.0488 323.949 73.3283C326.139 71.6077 327.234 69.418 327.234 66.759C327.234 64.7256 326.608 62.9269 325.435 61.5191C324.262 59.7986 322.229 58.5473 319.335 57.6088Z" fill="white"/>
<path d="M30.6755 32.1134C33.0217 32.1134 34.8986 30.2364 34.8986 27.8903C34.8986 25.5441 33.0217 23.6671 30.6755 23.6671C28.3293 23.6671 26.4524 25.5441 26.4524 27.8903C26.4524 30.2364 28.3293 32.1134 30.6755 32.1134Z" fill="#FCBC32"/>
<path d="M32.1615 51.196C35.759 50.3357 38.027 46.7382 37.1667 43.1407C36.3064 39.5432 32.7089 37.2753 29.1114 38.1355C25.514 38.9958 23.246 42.5933 24.1062 46.1908C24.9665 49.8665 28.564 52.0562 32.1615 51.196Z" fill="#FCBC32"/>
<path d="M32.1615 84.7464C35.759 83.8861 38.027 80.2886 37.1667 76.6911C36.3064 73.0937 32.7089 70.8257 29.1114 71.6859C25.514 72.5462 23.246 76.1437 24.1062 79.7412C24.9665 83.3387 28.564 85.6067 32.1615 84.7464Z" fill="#FCBC32"/>
<path d="M34.8205 61.4407C34.8205 59.0945 32.9436 57.2175 30.5974 57.2175C28.2512 57.2175 26.3743 59.0945 26.3743 61.4407C26.3743 63.7869 28.2512 65.6638 30.5974 65.6638C32.9436 65.6638 34.8205 63.7869 34.8205 61.4407Z" fill="#FCBC32"/>
<path d="M56.4053 60.9717C52.7296 60.9717 49.6796 63.9435 49.6796 67.6974C49.6796 71.3731 52.6514 74.4231 56.4053 74.4231C60.081 74.4231 63.1311 71.4513 63.1311 67.6974C63.0529 63.9435 60.081 60.9717 56.4053 60.9717Z" fill="#FCBC32"/>
<path d="M56.4055 80.2105C54.0593 80.2105 52.1823 82.0874 52.1823 84.4336C52.1823 86.7798 54.0593 88.6568 56.4055 88.6568C58.7517 88.6568 60.6286 86.7798 60.6286 84.4336C60.5504 82.0874 58.6735 80.2105 56.4055 80.2105Z" fill="#FCBC32"/>
<path d="M56.4055 55.106C58.7517 55.106 60.6286 53.229 60.6286 50.8828C60.6286 48.5366 58.7517 46.6597 56.4055 46.6597C54.0593 46.6597 52.1823 48.5366 52.1823 50.8828C52.1823 53.229 54.0593 55.106 56.4055 55.106Z" fill="#FCBC32"/>
<path d="M57.031 38.2919C59.299 37.9008 60.8631 35.7893 60.4721 33.5213C60.0811 31.2533 57.9695 29.6892 55.7015 30.0802C53.4335 30.4712 51.8694 32.5828 52.2604 34.8508C52.6515 37.1188 54.763 38.6047 57.031 38.2919Z" fill="#FCBC32"/>
<path d="M86.8276 49.3971C89.4084 46.8163 89.4084 42.515 86.8276 39.9342C84.2468 37.3534 79.9454 37.3534 77.3646 39.9342C74.7838 42.515 74.7838 46.8163 77.3646 49.3971C79.9454 52.0561 84.2468 52.0561 86.8276 49.3971Z" fill="#FCBC32"/>
<path d="M82.1353 32.1134C84.4814 32.1134 86.3584 30.2364 86.3584 27.8903C86.3584 25.5441 84.4814 23.6671 82.1353 23.6671C79.7891 23.6671 77.9121 25.5441 77.9121 27.8903C77.9121 30.2364 79.7891 32.1134 82.1353 32.1134Z" fill="#FCBC32"/>
<path d="M82.1353 57.2958C79.7891 57.2958 77.9121 59.1728 77.9121 61.519C77.9121 63.8651 79.7891 65.7421 82.1353 65.7421C84.4814 65.7421 86.3584 63.8651 86.3584 61.519C86.2802 59.1728 84.4032 57.2958 82.1353 57.2958Z" fill="#FCBC32"/>
<path d="M82.1353 74.0319C79.7891 74.0319 77.9121 75.9088 77.9121 78.255C77.9121 80.6012 79.7891 82.4782 82.1353 82.4782C84.4814 82.4782 86.3584 80.6012 86.3584 78.255C86.2802 75.9088 84.4032 74.0319 82.1353 74.0319Z" fill="#FCBC32"/>
</svg>
