<svg width="20" height="20" viewBox="0 0 20 20" fill="none" xmlns="http://www.w3.org/2000/svg">
<path d="M10.0315 1.88925C13.3653 1.88927 16.0683 4.59257 16.0686 7.92636C16.0686 8.051 16.0643 8.17566 16.0569 8.29843C18.3589 9.1496 20 11.3656 20.0002 13.9635C19.9997 17.297 17.2968 19.9996 13.9631 19.9996C13.7443 19.9996 13.5284 19.9862 13.3156 19.9635C13.2149 19.9864 13.1099 19.9996 13.0022 19.9996H6.92112C6.83058 19.9996 6.74224 19.9896 6.65647 19.9732C6.47315 19.99 6.28752 19.9996 6.09983 19.9996C2.76613 19.9996 0.0632327 17.297 0.062717 13.9635C0.0628324 12.1758 0.839621 10.5682 2.07444 9.46249C2.11097 9.51579 2.14947 9.56838 2.18381 9.62363C2.67904 10.4207 2.98446 11.4661 3.24924 12.8932C3.31878 13.2664 3.6222 13.5719 4.03049 13.5826C4.44214 13.5931 4.76271 13.2985 4.84592 12.9234C5.16366 11.4881 5.49268 10.4318 5.9924 9.6246C6.47641 8.84321 7.14073 8.26389 8.19846 7.82675C8.6065 7.65794 8.71109 7.25621 8.71701 7.02988C8.72271 6.8007 8.63823 6.40751 8.25901 6.21152C7.12029 5.62488 6.39634 4.74598 5.86643 3.5582C6.94987 2.52477 8.41619 1.88927 10.0315 1.88925ZM3.8674 0.180267C3.90852 -0.0546111 4.18301 -0.0621517 4.23166 0.170502C4.87425 3.24333 5.61999 5.55549 7.9719 6.76718C8.13847 6.85317 8.13108 7.17737 7.96018 7.24863C5.62201 8.21487 4.87628 9.89403 4.23557 12.7887L4.22287 12.8297C4.22024 12.8362 4.21516 12.8422 4.21213 12.8482L4.20627 12.8639C4.11842 13.0141 3.90139 12.9831 3.8635 12.7789C3.32779 9.89153 2.57852 8.21587 0.134983 7.25058C-0.0392323 7.18156 -0.0465856 6.84924 0.123264 6.76523C2.58089 5.55435 3.33062 3.24676 3.8674 0.180267Z" fill="#D4870D"/>
</svg>
