<svg width="20" height="20" viewBox="0 0 20 20" fill="none" xmlns="http://www.w3.org/2000/svg">
<path d="M13.0303 3.0303C13.0303 4.70389 11.6736 6.06061 10 6.06061C8.32641 6.06061 6.9697 4.70389 6.9697 3.0303C6.9697 1.35671 8.32641 0 10 0C11.6736 0 13.0303 1.35671 13.0303 3.0303Z" fill="#D4870D"/>
<path d="M13.0303 16.9697C13.0303 18.6433 11.6736 20 10 20C8.32641 20 6.9697 18.6433 6.9697 16.9697C6.9697 15.2961 8.32641 13.9394 10 13.9394C11.6736 13.9394 13.0303 15.2961 13.0303 16.9697Z" fill="#D4870D"/>
<path d="M3.0303 13.0303C4.70389 13.0303 6.06061 11.6736 6.06061 10C6.06061 8.32641 4.70389 6.9697 3.0303 6.9697C1.35671 6.9697 0 8.32641 0 10C0 11.6736 1.35671 13.0303 3.0303 13.0303Z" fill="#D4870D"/>
<path d="M20 10C20 11.6736 18.6433 13.0303 16.9697 13.0303C15.2961 13.0303 13.9394 11.6736 13.9394 10C13.9394 8.32641 15.2961 6.9697 16.9697 6.9697C18.6433 6.9697 20 8.32641 20 10Z" fill="#D4870D"/>
<path d="M7.79004 5.97185C7.84921 6.03102 7.84921 6.12696 7.79004 6.18613L6.18614 7.79004C6.12697 7.84921 6.03103 7.84921 5.97186 7.79004L5.54331 7.36149C5.48414 7.30232 5.48414 7.20638 5.54331 7.14721L7.14722 5.5433C7.20639 5.48413 7.30232 5.48413 7.36149 5.5433L7.79004 5.97185Z" fill="#D4870D"/>
<path d="M13.1818 10.303C13.1818 10.3867 13.114 10.4545 13.0303 10.4545H6.96971C6.88603 10.4545 6.8182 10.3867 6.8182 10.303V9.69697C6.8182 9.6133 6.88603 9.54546 6.96971 9.54546H13.0303C13.114 9.54546 13.1818 9.6133 13.1818 9.69697V10.303Z" fill="#D4870D"/>
<path d="M12.8528 14.4567C12.7936 14.5159 12.6977 14.5159 12.6385 14.4567L12.21 14.0282C12.1508 13.969 12.1508 13.873 12.21 13.8139L13.8139 12.21C13.8731 12.1508 13.969 12.1508 14.0282 12.21L14.4567 12.6385C14.5159 12.6977 14.5159 12.7936 14.4567 12.8528L12.8528 14.4567Z" fill="#D4870D"/>
<path d="M12.21 5.97185C12.1508 6.03102 12.1508 6.12696 12.21 6.18613L13.8139 7.79004C13.8731 7.84921 13.969 7.84921 14.0282 7.79004L14.4567 7.36149C14.5159 7.30232 14.5159 7.20638 14.4567 7.14721L12.8528 5.5433C12.7936 5.48413 12.6977 5.48413 12.6385 5.5433L12.21 5.97185Z" fill="#D4870D"/>
<path d="M7.14722 14.4567C7.20639 14.5159 7.30233 14.5159 7.3615 14.4567L7.79005 14.0282C7.84922 13.969 7.84922 13.873 7.79005 13.8139L6.18614 12.21C6.12697 12.1508 6.03104 12.1508 5.97187 12.21L5.54332 12.6385C5.48415 12.6977 5.48415 12.7936 5.54332 12.8528L7.14722 14.4567Z" fill="#D4870D"/>
</svg>
