<svg width="20" height="20" viewBox="0 0 20 20" fill="none" xmlns="http://www.w3.org/2000/svg">
<path d="M5.01855 0C5.64417 0 6.15137 0.507198 6.15137 1.13281V18.8672C6.15134 19.4928 5.64415 20 5.01855 20C4.39302 19.9999 3.88577 19.4927 3.88574 18.8672V1.13281C3.88574 0.50724 4.393 6.79857e-05 5.01855 0ZM14.9814 0C15.6069 0.000138837 16.1143 0.507283 16.1143 1.13281V18.8672C16.1142 19.4927 15.6069 19.9999 14.9814 20C14.3558 20 13.8487 19.4928 13.8486 18.8672V1.13281C13.8486 0.507198 14.3558 0 14.9814 0ZM3.25977 17.4873C2.5042 17.4873 1.89186 16.8746 1.8916 16.1191V3.88086C1.89163 3.12516 2.50406 2.5127 3.25977 2.5127V17.4873ZM16.7402 2.5127C17.4959 2.5127 18.1084 3.12516 18.1084 3.88086V16.1191C18.1081 16.8746 17.4958 17.4873 16.7402 17.4873V2.5127ZM1.26465 11.8711C0.566267 11.8711 6.97161e-05 11.3048 0 10.6064V9.39355C0.000129317 8.69524 0.566303 8.12891 1.26465 8.12891V11.8711ZM13.2217 11.8711H6.77832V8.12891H13.2217V11.8711ZM18.7354 8.12891C19.4337 8.12891 19.9999 8.69524 20 9.39355V10.6064C19.9999 11.3048 19.4337 11.8711 18.7354 11.8711V8.12891Z" fill="#D4870D"/>
</svg>
