<svg width="20" height="20" viewBox="0 0 20 20" fill="none" xmlns="http://www.w3.org/2000/svg">
<path d="M3.61334 1.27133C3.48461 0.536056 2.85024 0 2.10885 0H1.5277C0.683974 0 0 0.68879 0 1.53846V5.15694C0 6.11346 0.857577 6.83812 1.79298 6.67202L2.97103 6.46283C3.80193 6.31529 4.35674 5.51737 4.21024 4.68062L3.61334 1.27133Z" fill="#D4870D"/>
<path d="M6.58133 9.00859C6.43482 8.17184 6.98964 7.3739 7.82054 7.22636L11.0702 6.64933C11.9011 6.50179 12.6935 7.06051 12.84 7.89727L13.413 11.1698C13.5595 12.0066 13.0047 12.8045 12.1738 12.952L8.92409 13.5291C8.09319 13.6766 7.30084 13.1179 7.15433 12.2811L6.58133 9.00859Z" fill="#D4870D"/>
<path d="M1.2624 8.39072C0.532287 8.52038 0 9.15921 0 9.9058V13.28C0 14.2366 0.857575 14.9612 1.79298 14.7951L4.35036 14.341C5.18126 14.1935 5.73607 13.3955 5.58956 12.5588L5.01657 9.28626C4.87006 8.44949 4.07769 7.89077 3.24678 8.03833L1.2624 8.39072Z" fill="#D4870D"/>
<path d="M14.6429 18.1943C14.8079 19.1363 14.0883 19.9999 13.1384 19.9999H9.78778C9.0464 19.9999 8.41203 19.4639 8.28329 18.7286L7.96086 16.8871C7.81435 16.0503 8.36916 15.2524 9.20007 15.1049L12.4497 14.5278C13.2806 14.3803 14.073 14.939 14.2195 15.7758L14.6429 18.1943Z" fill="#D4870D"/>
<path d="M6.57632 18.1944C6.74125 19.1364 6.02166 20 5.07183 20H1.5277C0.683974 20 0 19.3112 0 18.4615V18.0296C0 17.283 0.532294 16.6442 1.26241 16.5145L4.62632 15.9172C5.45724 15.7696 6.2496 16.3284 6.3961 17.1651L6.57632 18.1944Z" fill="#D4870D"/>
<path d="M5.28112 1.80595C5.1162 0.863964 5.83579 0.000375599 6.78561 0.000375599H10.1363C10.8777 0.000375599 11.512 0.536402 11.6408 1.27165L11.9946 3.29187C12.1411 4.12864 11.5863 4.9266 10.7554 5.07414L7.50559 5.65118C6.67467 5.79872 5.88232 5.23998 5.73582 4.40321L5.28112 1.80595Z" fill="#D4870D"/>
<path d="M20 14.9107C20 13.9542 19.1424 13.2295 18.207 13.3957L17.1634 13.581C16.3325 13.7285 15.7777 14.5265 15.9242 15.3632L16.4898 18.594C16.6186 19.3293 17.2529 19.8653 17.9943 19.8653H18.4723C19.316 19.8653 20 19.1765 20 18.3269V14.9107Z" fill="#D4870D"/>
<path d="M18.0589 5.31874C18.9943 5.15264 19.8518 5.87729 19.8518 6.83382V10.2081C19.8518 10.9547 19.3196 11.5935 18.5894 11.7231L16.7393 12.0517C15.9084 12.1993 15.116 11.6405 14.9695 10.8038L14.3965 7.53125C14.25 6.6945 14.8048 5.89656 15.6357 5.74902L18.0589 5.31874Z" fill="#D4870D"/>
<path d="M14.8913 0C13.9414 0 13.2218 0.863591 13.3868 1.80558L13.5983 3.01357C13.7447 3.85034 14.5371 4.40908 15.368 4.26153L18.5977 3.68802C19.3278 3.55837 19.8601 2.91954 19.8601 2.17294V1.53846C19.8601 0.68879 19.1762 0 18.3324 0H14.8913Z" fill="#D4870D"/>
</svg>
