<?xml version="1.0" encoding="UTF-8"?>
<svg id="Layer_1" xmlns="http://www.w3.org/2000/svg" xmlns:xlink="http://www.w3.org/1999/xlink" version="1.1" viewBox="0 0 73 73">
  <!-- Generator: Adobe Illustrator 29.8.2, SVG Export Plug-In . SVG Version: 2.1.1 Build 3)  -->
  <defs>
    <style>
      .st0 {
        fill: url(#linear-gradient2);
      }

      .st1 {
        fill: url(#linear-gradient1);
      }

      .st2 {
        fill: url(#linear-gradient3);
      }

      .st3 {
        fill: url(#linear-gradient6);
      }

      .st4 {
        fill: url(#linear-gradient5);
      }

      .st5 {
        fill: url(#linear-gradient4);
      }

      .st6 {
        fill: #ede8ff;
        fill-opacity: .12;
      }

      .st7 {
        fill: url(#linear-gradient);
      }
    </style>
    <linearGradient id="linear-gradient" x1="15.19" y1="25.39" x2="15.19" y2="46.02" gradientUnits="userSpaceOnUse">
      <stop offset=".39" stop-color="#fc3"/>
      <stop offset=".72" stop-color="#ffad33"/>
    </linearGradient>
    <linearGradient id="linear-gradient1" x1="19.11" y1="25.39" x2="19.11" y2="46.02" xlink:href="#linear-gradient"/>
    <linearGradient id="linear-gradient2" x1="23.99" y1="25.39" x2="23.99" y2="46.02" xlink:href="#linear-gradient"/>
    <linearGradient id="linear-gradient3" x1="36.83" y1="25.39" x2="36.83" y2="46.02" xlink:href="#linear-gradient"/>
    <linearGradient id="linear-gradient4" x1="58.47" y1="25.39" x2="58.47" y2="46.02" xlink:href="#linear-gradient"/>
    <linearGradient id="linear-gradient5" x1="54.55" y1="25.39" x2="54.55" y2="46.02" xlink:href="#linear-gradient"/>
    <linearGradient id="linear-gradient6" x1="49.67" y1="25.39" x2="49.67" y2="46.02" xlink:href="#linear-gradient"/>
  </defs>
  <path class="st6" d="M36.5.5h0c19.88,0,36,16.12,36,36h0c0,19.88-16.12,36-36,36h0C16.62,72.5.5,56.38.5,36.5h0C.5,16.62,16.62.5,36.5.5Z"/>
  <g>
    <path class="st7" d="M16.85,33.78h-1.95c-.75,0-1.36.61-1.36,1.36v2.72c0,.75.61,1.36,1.36,1.36h1.95s0-5.44,0-5.44Z"/>
    <path class="st1" d="M20.68,27.36h-1.8c-.75,0-1.36.61-1.36,1.36v15.57c0,.75.61,1.36,1.36,1.36h1.8v-18.29Z"/>
    <path class="st0" d="M26.62,26.89c0-.75-.61-1.36-1.36-1.36h-2.53c-.75,0-1.36.61-1.36,1.36v19.21c0,.75.61,1.36,1.36,1.36h2.53c.75,0,1.36-.61,1.36-1.36v-19.21Z"/>
    <rect class="st2" x="27.3" y="33.78" width="19.06" height="5.44"/>
    <path class="st5" d="M56.81,33.78h1.95c.75,0,1.36.61,1.36,1.36v2.72c0,.75-.61,1.36-1.36,1.36h-1.95s0-5.44,0-5.44Z"/>
    <path class="st4" d="M52.98,27.36h1.8c.75,0,1.36.61,1.36,1.36v15.57c0,.75-.61,1.36-1.36,1.36h-1.8v-18.29Z"/>
    <path class="st3" d="M47.04,26.89c0-.75.61-1.36,1.36-1.36h2.53c.75,0,1.36.61,1.36,1.36v19.21c0,.75-.61,1.36-1.36,1.36h-2.53c-.75,0-1.36-.61-1.36-1.36v-19.21Z"/>
  </g>
</svg>